<?xml version="1.0" standalone="no"?>
<!DOCTYPE svg PUBLIC "-//W3C//DTD SVG 20010904//EN"
 "http://www.w3.org/TR/2001/REC-SVG-20010904/DTD/svg10.dtd">
<svg version="1.0" xmlns="http://www.w3.org/2000/svg"
 width="999.000000pt" height="998.000000pt" viewBox="0 0 999.000000 998.000000"
 preserveAspectRatio="xMidYMid meet">

<g transform="translate(0.000000,998.000000) scale(0.100000,-0.100000)"
fill="#000000" stroke="none">
<path d="M4987 8863 c-4 -3 -7 -127 -7 -275 l0 -268 -94 0 c-53 0 -98 -4 -101
-10 -3 -6 -17 -7 -31 -4 -31 8 -252 -15 -260 -27 -3 -5 -10 -7 -15 -3 -25 15
-375 -68 -573 -136 -208 -72 -498 -207 -624 -291 -24 -16 -45 -29 -47 -29 -11
0 -172 -112 -280 -196 -222 -172 -426 -373 -594 -588 -132 -170 -286 -405
-279 -427 2 -6 35 -28 73 -48 39 -21 111 -61 160 -89 50 -29 98 -52 107 -52
10 0 25 15 34 33 62 119 230 348 365 497 447 491 1040 812 1699 920 69 11 139
20 156 20 17 0 34 3 37 7 4 3 33 5 65 4 32 -1 70 2 85 8 15 6 47 8 72 4 l45
-6 0 -268 c0 -178 4 -270 11 -274 5 -4 27 4 47 18 20 13 80 50 132 83 52 32
109 68 126 81 17 13 34 23 37 23 3 0 63 37 134 82 227 145 254 162 481 303
122 76 222 142 222 146 0 5 -10 14 -22 20 -25 14 -162 102 -458 297 -308 203
-344 227 -355 232 -5 3 -83 54 -172 113 -89 59 -164 107 -166 107 -2 0 -7 -3
-10 -7z"/>
<path d="M6516 7718 c-89 -159 -95 -174 -79 -186 10 -7 79 -52 153 -101 445
-289 791 -680 1025 -1156 184 -375 276 -731 301 -1162 l7 -123 -271 0 c-174 0
-273 -4 -277 -10 -4 -6 159 -274 361 -595 349 -556 369 -585 385 -568 9 10
160 236 334 503 175 267 342 522 372 567 30 45 52 87 48 93 -4 7 -43 10 -103
9 -54 0 -174 -1 -268 0 l-171 1 -7 143 c-48 975 -498 1853 -1261 2462 -139
111 -415 295 -443 295 -5 0 -53 -78 -106 -172z"/>
<path d="M4360 6948 c-52 -22 -155 -64 -229 -94 -73 -30 -146 -61 -161 -69
l-27 -14 40 -237 40 -237 -54 -45 c-69 -59 -192 -182 -251 -251 l-46 -55 -236
41 c-168 29 -238 37 -244 29 -5 -6 -20 -40 -35 -76 -14 -36 -56 -137 -93 -225
-36 -88 -70 -170 -75 -182 -8 -21 8 -34 191 -164 198 -141 199 -142 192 -173
-4 -17 -7 -114 -7 -216 0 -102 3 -199 7 -216 7 -31 6 -32 -192 -173 -183 -130
-199 -143 -191 -164 5 -12 39 -94 76 -182 37 -88 79 -189 93 -225 14 -36 29
-70 34 -76 6 -8 75 0 244 29 l237 40 45 -54 c59 -69 182 -192 251 -250 l55
-45 -41 -237 c-29 -170 -37 -239 -29 -245 6 -5 40 -20 76 -34 36 -14 137 -56
225 -93 88 -37 170 -71 182 -76 21 -8 34 7 165 191 134 189 142 199 167 192
14 -4 128 -7 252 -7 l226 1 137 -193 136 -193 38 16 c164 69 323 134 327 134
2 0 37 15 78 34 l75 34 -41 237 -40 238 54 45 c69 59 192 182 251 251 l45 54
237 -40 c168 -29 238 -37 244 -29 5 6 20 40 35 76 14 36 56 137 93 225 36 88
70 170 75 182 8 21 -7 34 -191 164 -198 141 -199 142 -192 173 4 17 7 114 7
216 0 102 -3 199 -7 216 -7 31 -6 32 192 173 184 130 199 143 191 164 -5 12
-39 94 -76 182 -37 88 -79 189 -93 225 -14 36 -29 70 -34 76 -6 8 -75 0 -244
-29 l-236 -41 -46 55 c-59 69 -182 192 -251 251 l-54 45 40 237 c29 169 37
238 29 244 -6 5 -40 20 -76 34 -36 14 -137 56 -225 93 -88 37 -170 71 -182 76
-21 8 -34 -8 -164 -191 -135 -189 -143 -199 -168 -192 -14 4 -128 7 -252 7
l-226 -1 -133 189 c-74 103 -136 190 -139 192 -3 1 -49 -15 -101 -37z m805
-993 c194 -34 375 -127 515 -265 135 -133 220 -278 272 -468 31 -111 31 -373
0 -484 -100 -365 -361 -625 -720 -719 -110 -29 -292 -36 -410 -15 -201 35
-380 126 -522 266 -135 133 -220 278 -272 468 -31 111 -31 373 0 484 52 190
137 335 272 468 226 222 547 320 865 265z"/>
<path d="M4845 5403 c-120 -43 -208 -124 -262 -239 -26 -55 -28 -68 -28 -184
0 -120 1 -128 32 -192 44 -94 109 -160 202 -206 75 -37 76 -37 201 -37 125 0
126 0 201 37 93 46 158 112 202 206 31 64 32 72 32 192 0 120 -1 128 -32 192
-44 94 -109 160 -202 206 -71 35 -81 37 -185 40 -86 2 -122 -2 -161 -15z"/>
<path d="M1841 6119 c-17 -24 -143 -215 -280 -424 -137 -209 -297 -453 -356
-542 -58 -90 -103 -168 -100 -174 4 -6 21 -9 39 -8 17 1 138 1 269 0 l237 -1
0 -72 c0 -117 27 -371 55 -523 146 -793 572 -1501 1210 -2010 153 -122 424
-300 445 -293 6 2 53 80 105 173 88 157 94 171 78 183 -10 7 -79 52 -153 101
-445 289 -791 680 -1025 1156 -184 375 -276 731 -301 1163 l-7 122 271 0 c175
0 273 4 277 10 5 8 -693 1137 -726 1174 -4 5 -21 -11 -38 -35z"/>
<path d="M7528 3513 c-123 -211 -339 -486 -504 -642 -528 -500 -1169 -775
-1901 -816 l-123 -7 -2 273 c-3 236 -5 274 -18 273 -21 -2 -1165 -722 -1165
-733 0 -5 109 -81 242 -168 134 -87 396 -258 582 -381 187 -123 345 -221 351
-217 7 4 11 48 10 118 -1 62 -1 182 -1 268 l1 156 143 6 c1114 49 2136 662
2720 1633 20 34 37 66 37 72 0 8 -199 124 -328 191 -20 11 -24 8 -44 -26z"/>
</g>
</svg>
