<?xml version="1.0" standalone="no"?>
<!DOCTYPE svg PUBLIC "-//W3C//DTD SVG 20010904//EN"
 "http://www.w3.org/TR/2001/REC-SVG-20010904/DTD/svg10.dtd">
<svg version="1.0" xmlns="http://www.w3.org/2000/svg"
 width="2048.000000pt" height="838.000000pt" viewBox="0 0 2048.000000 838.000000"
 preserveAspectRatio="xMidYMid meet">

<g transform="translate(0.000000,838.000000) scale(0.100000,-0.100000)"
fill="#000000" stroke="none">
<path d="M19754 7805 c-3 -8 -3 -18 0 -24 3 -5 1 -11 -6 -13 -17 -6 -17 -136
-2 -169 7 -13 18 -40 25 -59 27 -74 81 -181 95 -187 8 -3 14 -10 14 -17 0 -7
16 -29 35 -49 l35 -37 -27 -11 c-14 -5 -63 -9 -107 -7 l-81 3 1 -31 c3 -72 71
-113 138 -84 17 8 87 16 156 20 132 6 168 17 247 76 17 13 45 24 62 24 39 0
39 8 -2 48 -21 20 -43 32 -60 32 l-27 0 45 55 45 56 0 92 c0 68 -5 101 -18
126 -19 38 -42 52 -42 27 0 -9 -7 -19 -15 -22 -8 -4 -15 -15 -15 -27 0 -11 -8
-30 -19 -41 -10 -12 -29 -41 -42 -66 -13 -25 -28 -51 -34 -58 -16 -21 -56 -62
-60 -62 -2 0 -20 27 -40 60 -20 33 -54 75 -76 93 -22 17 -78 85 -126 150 -47
64 -87 117 -89 117 -3 0 -7 -7 -10 -15z"/>
<path d="M15480 7118 c3 -19 40 -112 49 -121 6 -6 11 -16 11 -22 0 -7 9 -20
20 -30 11 -10 18 -21 15 -25 -2 -4 2 -16 10 -26 8 -10 15 -27 15 -37 0 -11 6
-31 14 -45 7 -15 19 -40 26 -57 7 -16 16 -38 21 -47 5 -10 9 -26 9 -36 0 -9 6
-26 13 -37 13 -19 18 -36 37 -127 l7 -38 -51 0 c-28 0 -78 7 -111 15 -85 20
-112 19 -126 -7 -15 -29 -5 -129 16 -144 8 -6 15 -14 15 -17 0 -3 11 -18 24
-32 35 -37 93 -38 174 -1 l63 29 69 -17 c103 -25 178 -7 270 64 49 37 95 54
130 46 17 -3 30 -3 30 1 0 11 -94 93 -107 93 -20 0 -15 14 12 40 14 13 25 32
25 42 0 11 13 27 30 36 37 21 38 32 3 32 -34 0 -90 -25 -165 -73 -31 -21 -59
-37 -61 -37 -2 0 -10 35 -17 78 -20 127 -57 190 -193 331 -86 88 -210 171
-257 171 -11 0 -20 -1 -20 -2z"/>
<path d="M17325 6253 c-70 -4 -228 -22 -302 -34 -69 -12 -84 -33 -33 -44 17
-4 30 -11 30 -16 0 -5 15 -9 34 -9 19 0 38 -4 41 -10 3 -5 15 -10 27 -10 11 0
31 -9 45 -20 14 -11 36 -20 49 -20 15 0 24 -6 24 -15 0 -8 18 -23 40 -32 22
-10 40 -20 40 -23 0 -3 -24 -22 -52 -42 -49 -36 -56 -38 -128 -38 -89 0 -110
-15 -110 -78 0 -46 48 -115 92 -133 36 -15 71 0 137 57 l45 39 98 0 c59 0 98
-4 98 -10 0 -5 27 -39 60 -75 33 -35 60 -71 60 -79 0 -21 69 -81 92 -81 10 0
18 -6 18 -14 0 -18 51 -76 66 -76 7 0 15 -11 18 -25 4 -14 10 -25 15 -25 5 0
30 -22 57 -50 32 -32 58 -50 73 -50 14 0 33 -8 44 -17 18 -17 20 -17 31 -1 10
16 13 15 38 -9 15 -15 31 -24 34 -20 4 4 -7 42 -24 84 -16 43 -40 112 -52 153
-45 158 -82 266 -97 290 -9 14 -47 57 -86 97 -64 67 -67 72 -49 82 12 6 34 11
51 11 48 0 38 25 -25 60 -51 30 -61 32 -113 26 -53 -6 -58 -5 -82 21 -14 16
-36 42 -47 60 -40 57 -124 82 -257 76z"/>
<path d="M18820 6172 c0 -4 14 -20 30 -35 17 -16 28 -32 26 -36 -7 -11 49 -88
98 -135 25 -23 46 -48 46 -53 0 -6 7 -16 15 -23 8 -7 13 -16 10 -20 -3 -4 4
-19 15 -32 11 -14 16 -28 13 -32 -4 -3 3 -16 14 -29 11 -12 26 -42 33 -67 7
-25 20 -53 28 -62 13 -15 11 -18 -14 -24 -16 -4 -65 -2 -109 4 -44 6 -90 9
-102 6 -26 -7 -55 -57 -46 -82 32 -100 74 -129 192 -138 l80 -6 26 42 26 41
57 -8 c165 -23 244 -2 346 97 53 51 68 60 99 60 44 0 47 13 10 37 -16 9 -40
28 -55 41 -25 23 -32 24 -90 18 -120 -14 -106 -22 -147 82 -20 51 -48 108 -63
126 -36 44 -197 126 -368 188 -131 47 -170 56 -170 40z"/>
<path d="M12522 6028 c-7 -7 -12 -17 -12 -24 0 -6 -6 -14 -14 -17 -7 -3 -16
-24 -19 -48 -3 -23 -11 -45 -17 -49 -14 -9 -7 -107 9 -123 6 -6 11 -19 11 -28
0 -9 15 -26 33 -38 l32 -21 -92 0 -93 0 -20 -40 c-20 -40 -20 -40 -1 -78 24
-47 94 -85 187 -101 114 -21 123 -17 145 57 l12 43 56 -55 c31 -30 72 -64 91
-75 57 -34 118 -61 134 -61 9 0 16 -6 16 -12 0 -15 63 -58 84 -58 8 0 17 -4
20 -9 6 -9 64 -25 80 -22 4 1 25 -4 45 -10 20 -7 63 -13 96 -14 33 -1 68 -6
78 -10 29 -12 19 13 -11 29 -38 20 -191 160 -233 214 -19 23 -60 74 -93 113
-55 66 -58 71 -40 84 11 8 38 20 62 27 23 7 42 17 42 23 0 5 -15 20 -33 33
-37 24 -89 28 -150 11 -35 -9 -43 -8 -77 15 -21 13 -66 38 -101 54 -63 28
-112 75 -178 170 -25 35 -31 38 -49 20z"/>
<path d="M14356 5754 c-78 -15 -291 -81 -381 -118 -35 -15 -61 -32 -64 -42 -3
-15 8 -16 130 -12 74 3 146 11 160 16 21 8 33 6 60 -10 19 -11 50 -26 69 -33
l35 -12 -55 -13 c-30 -8 -89 -15 -130 -16 -94 -2 -87 0 -93 -26 -8 -29 18 -77
48 -88 14 -5 25 -14 25 -20 0 -5 6 -10 13 -10 14 0 73 -53 80 -72 3 -9 38 5
119 46 90 46 122 57 142 52 15 -4 29 -14 32 -24 3 -9 9 -24 13 -32 4 -8 14
-40 21 -70 7 -30 16 -59 20 -65 4 -5 11 -32 15 -59 3 -27 11 -56 15 -65 5 -9
14 -42 20 -73 9 -47 15 -58 31 -58 12 0 21 -9 25 -26 5 -19 12 -24 25 -21 14
4 19 0 19 -15 0 -13 6 -18 18 -16 9 1 23 -1 30 -6 7 -4 15 -6 17 -5 12 13 69
320 72 392 5 84 4 90 -31 163 -20 42 -33 81 -30 86 4 6 26 8 56 4 56 -8 56 -8
-1 61 -42 51 -75 60 -163 44 -70 -12 -82 -7 -92 41 -3 17 -18 51 -32 75 l-25
43 -72 -1 c-40 0 -103 -7 -141 -15z"/>
<path d="M5694 5708 c3 -18 6 -82 7 -143 0 -78 4 -116 15 -132 38 -60 -8 -57
-130 7 -104 55 -135 61 -143 30 -3 -11 -12 -20 -19 -20 -8 0 -14 -10 -14 -25
0 -14 -4 -25 -9 -25 -5 0 -12 -19 -16 -42 -4 -24 -11 -48 -16 -54 -10 -12 13
-78 30 -89 6 -3 8 -12 5 -20 -3 -8 6 -21 23 -32 15 -9 30 -20 33 -23 11 -13
68 -29 125 -35 l61 -6 53 60 c29 34 57 61 63 61 5 0 23 -14 39 -31 30 -32 38
-76 18 -96 -8 -8 -8 -17 -1 -29 7 -12 6 -23 -1 -36 -9 -13 -9 -23 0 -36 8 -13
8 -24 0 -37 -7 -14 -7 -20 1 -23 8 -2 9 -10 3 -20 -14 -27 -10 -102 5 -102 11
0 11 -6 3 -27 -8 -22 -7 -30 5 -39 9 -6 16 -20 16 -31 0 -32 12 -35 40 -8 l27
25 -5 -30 c-6 -41 13 -38 41 8 93 146 195 396 204 500 6 61 7 63 42 78 21 9
52 14 74 11 20 -3 37 -3 37 0 0 2 -19 27 -42 54 -37 45 -45 49 -84 49 -23 0
-54 -4 -68 -10 -14 -5 -33 -7 -42 -3 -17 6 -17 16 2 164 4 35 1 54 -11 73 -35
53 -218 116 -337 116 -40 0 -40 0 -34 -32z"/>
<path d="M7970 5383 c0 -22 36 -83 49 -83 5 0 11 -8 15 -17 10 -31 30 -56 100
-128 69 -70 109 -124 136 -180 8 -16 26 -43 40 -58 24 -28 25 -29 6 -43 -29
-21 -83 -17 -151 11 -33 14 -65 25 -70 25 -33 0 -50 -122 -23 -171 30 -56 59
-72 149 -83 45 -6 67 -3 110 14 34 14 88 24 144 27 105 7 123 14 190 82 47 49
52 51 102 51 30 0 53 5 53 10 0 21 -44 70 -62 70 -11 0 -18 7 -18 19 0 33 -19
34 -81 6 -46 -20 -63 -24 -74 -15 -14 11 -30 71 -41 153 -11 81 -31 94 -374
252 -91 41 -173 75 -182 75 -10 0 -18 -8 -18 -17z"/>
<path d="M10013 5323 c-4 -10 -17 -27 -30 -39 -13 -11 -26 -37 -30 -57 -3 -20
-10 -37 -14 -37 -5 0 -9 -13 -9 -30 0 -16 -4 -30 -10 -30 -5 0 -10 -13 -10
-29 0 -17 -4 -33 -10 -36 -5 -3 -10 -22 -10 -41 0 -19 -4 -34 -9 -34 -11 0
-32 -162 -21 -175 7 -9 16 -76 26 -190 6 -74 42 -155 83 -191 14 -12 22 -26
18 -31 -5 -4 -90 -10 -190 -13 -100 -3 -188 -9 -196 -14 -17 -11 -8 -106 12
-121 7 -5 24 -28 37 -50 35 -58 62 -85 87 -85 12 0 26 -7 31 -16 16 -29 79
-11 183 50 53 31 104 56 113 56 24 0 70 -28 114 -67 20 -18 42 -33 50 -33 7 0
37 -15 65 -34 29 -19 68 -37 87 -41 19 -4 41 -12 48 -18 20 -16 110 -47 182
-61 36 -8 83 -21 105 -30 22 -8 50 -15 61 -16 12 0 38 -7 58 -15 59 -25 246
-67 264 -60 13 5 7 10 -21 20 -60 21 -214 118 -317 200 -52 41 -128 101 -167
131 -40 31 -73 60 -73 65 0 19 66 49 108 49 23 0 42 3 42 8 0 4 -23 32 -49 62
l-49 55 -79 0 c-117 0 -125 8 -153 155 -10 52 -96 227 -167 338 -48 77 -63
119 -98 276 -29 133 -47 170 -62 129z"/>
<path d="M15612 5324 c-29 -7 -62 -19 -73 -24 -21 -12 -27 -50 -7 -50 6 0 19
-6 27 -13 19 -15 92 -33 174 -43 l57 -6 0 -40 c0 -22 7 -46 15 -54 8 -9 15
-20 15 -25 0 -11 -10 -11 -144 1 -106 10 -110 10 -132 -11 -20 -19 -23 -30
-21 -76 2 -29 6 -54 8 -56 76 -52 94 -61 141 -63 58 -4 79 5 129 53 37 35 37
35 88 24 29 -6 86 -11 127 -11 92 0 151 27 236 107 50 49 62 55 98 55 47 -1
52 11 11 28 -16 6 -37 20 -47 31 -9 10 -22 19 -29 19 -7 0 -20 9 -30 20 -23
25 -36 25 -87 -1 -49 -25 -58 -17 -58 54 l0 48 -52 24 c-50 23 -63 25 -223 24
-114 0 -187 -5 -223 -15z"/>
<path d="M12944 4625 c6 -40 5 -44 -10 -38 -15 5 -16 1 -11 -30 3 -23 2 -37
-5 -37 -6 0 -8 -13 -4 -35 6 -28 4 -35 -9 -35 -12 0 -16 -8 -14 -28 2 -15 0
-33 -5 -40 -4 -7 -5 -24 -2 -38 4 -15 2 -24 -5 -24 -7 0 -9 -10 -5 -27 4 -16
7 -39 7 -52 -1 -13 5 -31 12 -40 7 -9 20 -36 27 -61 7 -25 18 -51 24 -58 5 -8
19 -32 30 -55 12 -23 36 -51 53 -62 18 -11 32 -23 33 -27 0 -13 -112 -48 -158
-49 -112 -1 -147 -20 -126 -67 7 -17 9 -26 12 -48 4 -27 61 -73 110 -89 78
-26 131 -17 187 31 89 76 155 97 178 58 19 -32 72 -45 205 -49 73 -3 141 -9
152 -15 26 -14 50 -12 56 4 4 11 12 10 44 -5 45 -22 67 -24 72 -8 3 8 19 4 48
-11 35 -18 48 -20 62 -11 14 9 29 9 59 1 42 -11 60 -7 43 9 -12 13 -124 76
-204 116 -36 18 -110 47 -165 65 -55 18 -104 36 -108 40 -11 10 13 28 58 43
38 13 59 37 33 37 -7 0 -31 10 -53 21 -32 18 -51 20 -103 16 -77 -6 -88 2
-201 142 -108 136 -109 137 -206 329 -55 110 -92 172 -102 172 -12 0 -14 -8
-9 -45z"/>
<path d="M5300 4555 c-5 -14 -10 -32 -10 -40 0 -7 -7 -26 -15 -41 -8 -16 -15
-36 -15 -44 0 -8 -9 -21 -20 -28 -14 -8 -20 -23 -20 -49 0 -20 -7 -44 -16 -54
-13 -14 -17 -46 -20 -146 -4 -161 -10 -250 -19 -285 -4 -17 -1 -39 9 -59 9
-18 16 -40 16 -50 0 -10 11 -31 25 -47 23 -28 23 -30 7 -44 -39 -35 -58 -38
-140 -26 -44 6 -86 8 -94 6 -24 -10 -69 -106 -73 -156 -8 -98 9 -102 147 -37
l95 45 124 0 c68 0 156 5 194 10 81 12 187 61 259 121 27 21 59 39 72 39 34 0
30 23 -11 59 -42 36 -84 40 -156 15 -83 -30 -109 2 -120 145 -5 73 -19 135
-58 261 -27 91 -65 223 -84 295 -25 98 -37 131 -50 133 -11 2 -21 -6 -27 -23z"/>
<path d="M18565 4529 c-22 -4 -65 -17 -95 -30 -43 -17 -83 -23 -185 -28 -116
-5 -130 -8 -129 -23 1 -10 -2 -18 -7 -18 -14 0 -11 -28 4 -37 7 -4 18 -20 24
-35 7 -16 23 -30 38 -34 14 -3 25 -12 25 -19 0 -13 25 -18 145 -31 l60 -6 36
42 c34 40 37 41 44 21 3 -11 10 -21 15 -21 5 0 28 -20 52 -45 24 -25 48 -45
55 -45 7 0 43 -29 80 -65 37 -36 73 -65 79 -65 7 0 14 -7 18 -15 3 -8 12 -15
21 -15 9 0 32 -16 52 -35 20 -19 44 -35 54 -35 10 0 21 -5 25 -11 3 -6 17 -8
29 -5 13 3 27 1 30 -4 4 -6 15 -8 25 -5 10 3 21 1 25 -5 3 -5 23 -9 44 -8 21
0 49 -7 64 -17 15 -9 27 -13 27 -7 0 6 -6 15 -13 19 -29 17 -137 153 -205 258
-39 61 -78 120 -86 131 -8 12 -35 31 -60 43 -25 11 -46 25 -46 29 0 5 25 17
55 27 30 11 54 23 52 28 -1 5 -21 22 -42 37 -37 26 -49 28 -155 32 -63 3 -133
1 -155 -3z"/>
<path d="M2045 4307 c-11 -8 -45 -20 -75 -26 -94 -21 -295 -96 -325 -121 -8
-7 -24 -5 -48 5 -20 8 -57 16 -83 18 l-46 2 -14 -45 c-24 -80 -34 -149 -24
-174 12 -33 61 -76 85 -76 12 0 25 -4 31 -10 5 -5 35 -12 66 -16 l57 -7 32 52
c20 31 39 51 50 51 12 0 16 -5 13 -15 -4 -8 -1 -15 5 -15 6 0 11 -9 11 -20 0
-11 5 -20 10 -20 6 0 10 -6 10 -14 0 -15 21 -26 51 -26 10 0 18 -3 18 -7 -4
-23 4 -35 29 -45 15 -7 37 -23 50 -36 12 -13 30 -22 40 -20 10 2 25 -8 39 -28
13 -18 46 -44 75 -59 29 -14 69 -39 88 -55 25 -21 50 -31 90 -35 30 -4 69 -9
85 -11 52 -9 126 -10 130 -4 2 4 -7 13 -22 21 -41 22 -124 120 -176 208 -32
53 -71 101 -113 138 -58 52 -113 119 -103 127 19 14 74 27 94 22 33 -8 32 1
-6 47 -29 35 -34 37 -87 37 -34 1 -65 7 -76 15 -19 14 -19 15 7 15 23 0 28 6
42 55 21 71 18 91 -10 72z"/>
<path d="M16447 4173 c-3 -5 -8 -23 -12 -41 -4 -18 -9 -31 -12 -28 -9 8 -51
-29 -87 -76 -38 -51 -63 -162 -47 -214 9 -31 8 -32 -28 -38 -20 -3 -57 -6 -83
-6 -39 0 -52 -5 -73 -27 -27 -30 -32 -70 -12 -106 22 -39 50 -67 68 -67 10 0
21 -4 24 -10 3 -5 21 -10 38 -10 18 0 39 -4 46 -9 9 -6 22 -6 34 1 14 7 26 6
43 -2 33 -18 53 -6 77 50 20 44 47 67 47 39 0 -23 62 -86 105 -104 25 -11 45
-23 45 -27 0 -4 15 -15 33 -23 17 -8 46 -24 62 -35 17 -11 41 -25 55 -31 14
-6 33 -16 44 -21 20 -11 136 -38 178 -42 15 -2 33 -8 41 -14 14 -12 122 -52
139 -52 18 0 6 20 -21 34 -43 23 -116 98 -157 163 -40 63 -44 67 -152 150 -40
31 -71 61 -69 66 2 6 21 16 43 24 21 7 53 20 71 28 17 8 36 15 42 15 29 0 5
23 -54 50 -72 34 -91 36 -156 16 l-47 -14 -68 68 c-80 81 -91 99 -110 193 -8
40 -17 80 -20 90 -6 18 -19 23 -27 10z"/>
<path d="M8318 4023 c-9 -16 -19 -45 -23 -65 -5 -27 -11 -35 -22 -31 -19 8
-43 -22 -43 -54 0 -14 -6 -23 -15 -23 -8 0 -15 -4 -15 -10 0 -5 -9 -17 -19
-27 -22 -21 -26 -97 -9 -197 5 -32 10 -73 10 -90 0 -17 4 -35 8 -41 4 -5 11
-29 15 -51 4 -25 18 -55 35 -74 16 -18 27 -37 24 -41 -7 -12 -99 0 -182 23
-73 21 -91 19 -95 -13 -2 -8 -5 -19 -9 -24 -9 -15 11 -107 28 -126 8 -8 14
-21 14 -27 0 -6 9 -14 20 -17 11 -3 20 -10 20 -15 0 -4 24 -18 54 -30 63 -25
66 -24 147 45 29 25 59 45 67 45 7 0 28 -11 45 -23 18 -13 48 -29 67 -36 19
-7 44 -17 55 -21 67 -29 354 -47 479 -31 l51 7 -55 6 c-30 3 -77 14 -105 23
-51 18 -225 122 -225 135 0 13 62 34 92 32 38 -3 35 13 -12 59 -43 42 -66 47
-131 27 -50 -15 -69 1 -93 79 -10 32 -42 121 -72 198 -62 163 -74 216 -74 331
0 46 -4 84 -8 84 -4 0 -15 -12 -24 -27z"/>
<path d="M6714 3845 c-7 -19 -14 -46 -14 -61 l0 -26 -18 23 c-26 31 -52 20
-52 -24 0 -28 -3 -33 -22 -33 -19 1 -23 -5 -26 -36 -2 -27 -8 -38 -19 -38 -12
0 -14 -7 -10 -35 4 -26 2 -35 -9 -35 -16 0 -18 -27 -4 -50 5 -9 5 -19 -2 -27
-7 -9 -7 -22 3 -45 8 -18 15 -67 16 -108 2 -41 7 -120 12 -174 7 -84 12 -102
30 -117 27 -22 9 -36 -22 -16 -12 8 -47 35 -77 61 -50 43 -90 59 -90 36 0 -5
-8 -18 -17 -28 -30 -31 -63 -81 -63 -95 0 -7 -4 -17 -10 -23 -15 -15 -25 -154
-11 -154 6 0 11 -7 11 -15 0 -17 61 -85 76 -85 5 0 20 -9 34 -20 50 -39 87
-21 159 78 l43 59 52 -20 c36 -14 75 -21 132 -21 76 -1 87 2 165 41 112 57
136 65 192 72 l49 6 -24 34 c-39 58 -67 72 -158 80 -110 9 -111 11 -109 171 1
145 -8 179 -96 365 -39 84 -57 137 -66 193 -6 42 -13 83 -15 90 -6 23 -25 12
-40 -23z"/>
<path d="M3875 3603 c-104 -37 -166 -44 -243 -29 l-43 9 4 -65 c8 -111 32
-132 160 -141 l78 -6 40 41 c39 40 40 41 60 22 12 -10 29 -33 38 -50 29 -56
99 -159 123 -181 13 -11 43 -44 67 -72 25 -28 53 -51 63 -51 10 0 18 -4 18
-10 0 -19 63 -81 72 -72 6 6 23 6 41 1 33 -8 112 -7 121 2 3 3 -20 29 -50 59
-66 64 -81 92 -123 224 -37 115 -43 127 -88 183 l-34 41 61 33 c33 18 59 37
57 42 -6 19 -81 38 -132 34 -28 -3 -66 1 -89 9 -57 20 -90 17 -201 -23z"/>
<path d="M11708 3610 c-38 -3 -71 -10 -74 -13 -4 -4 5 -19 19 -33 15 -15 27
-31 27 -35 0 -5 7 -9 15 -9 8 0 15 -6 15 -14 0 -7 14 -19 30 -26 17 -7 30 -16
30 -21 0 -5 10 -11 23 -14 15 -4 26 -18 33 -41 6 -18 7 -34 2 -34 -4 0 -36 11
-70 25 -34 14 -72 25 -85 25 -31 0 -68 -38 -76 -75 -9 -46 11 -123 33 -130 11
-3 21 -14 25 -24 3 -9 24 -25 48 -35 23 -10 51 -22 62 -27 26 -12 146 -28 163
-22 6 3 18 26 26 52 8 25 15 40 15 33 1 -7 12 -28 25 -45 28 -38 43 -109 40
-191 -1 -33 4 -89 12 -125 7 -36 14 -69 14 -73 0 -5 6 -8 14 -8 9 0 12 -8 8
-25 -3 -18 0 -25 11 -25 9 0 18 4 22 10 3 5 12 7 21 3 26 -10 52 26 84 116 31
85 73 248 84 328 6 38 3 45 -43 100 -40 47 -47 61 -37 74 23 31 61 49 103 49
24 0 43 3 43 7 0 15 -85 93 -101 93 -9 0 -37 -9 -62 -20 -68 -30 -94 -20 -102
38 -14 106 -43 123 -212 121 -65 -1 -148 -5 -185 -9z"/>
<path d="M14756 3423 c-14 -14 -4 -44 24 -76 17 -19 30 -37 30 -41 0 -14 65
-96 77 -96 7 0 13 -4 13 -10 0 -5 24 -34 53 -65 30 -30 64 -76 77 -102 13 -27
35 -60 48 -75 24 -26 24 -26 4 -37 -30 -16 -66 -14 -145 10 -68 20 -71 20 -84
3 -21 -29 -21 -102 0 -144 26 -53 62 -73 150 -85 39 -5 57 -2 105 21 41 19 79
28 137 32 95 5 124 19 186 83 43 45 51 49 93 49 25 0 46 4 46 8 0 12 -54 62
-68 62 -7 0 -12 9 -12 19 0 32 -16 33 -69 6 -28 -14 -57 -25 -66 -25 -20 0
-34 36 -50 128 -7 41 -21 82 -31 94 -23 24 -151 90 -289 147 -55 23 -128 55
-161 71 -34 16 -65 26 -68 23z"/>
<path d="M513 3302 c-24 -9 -64 -32 -89 -50 l-46 -33 23 -25 c19 -21 23 -38
27 -115 l5 -90 -39 6 c-22 4 -64 19 -94 34 -116 59 -152 49 -165 -46 -4 -29
-11 -55 -16 -59 -15 -9 -10 -90 6 -104 8 -7 15 -23 15 -36 0 -28 16 -44 90
-90 87 -54 150 -43 205 36 30 43 70 80 88 80 5 0 35 -26 67 -57 31 -32 68 -65
81 -74 20 -14 24 -24 22 -61 -1 -40 1 -45 26 -55 24 -9 27 -14 23 -42 -4 -28
-2 -31 23 -31 22 0 26 -3 20 -17 -25 -58 -14 -80 29 -63 25 9 26 8 26 -26 0
-34 2 -36 25 -30 22 6 26 3 31 -24 7 -33 37 -41 52 -14 7 13 11 10 21 -15 7
-17 19 -36 27 -42 11 -9 14 -7 14 12 1 24 1 24 16 -3 27 -51 36 -34 30 60 -3
48 -8 146 -11 217 -7 143 -32 273 -65 328 -21 35 -21 36 -1 46 11 6 41 11 68
11 74 0 81 11 34 53 -75 67 -79 69 -160 55 -101 -17 -106 -13 -106 95 0 100
-15 128 -85 165 -55 27 -154 29 -217 4z"/>
<path d="M2770 3303 c0 -16 -8 -27 -61 -81 -40 -41 -61 -89 -54 -122 3 -16 2
-31 -4 -35 -20 -12 -11 -44 15 -58 l27 -14 -46 -11 c-25 -7 -82 -12 -126 -12
-87 0 -102 -9 -93 -56 6 -32 118 -144 143 -144 10 0 19 -4 19 -9 0 -5 14 -19
30 -31 44 -32 73 -21 101 37 25 54 68 105 81 97 4 -3 8 -19 8 -35 0 -24 15
-45 68 -100 37 -38 72 -69 78 -69 6 0 26 -14 45 -31 94 -85 247 -151 381 -164
l63 -6 -25 21 c-61 51 -98 95 -199 235 -59 83 -111 155 -114 162 -12 20 55 53
107 53 l47 0 -38 45 c-40 48 -70 56 -139 36 -35 -10 -89 8 -110 37 -7 9 -37
60 -65 112 -29 52 -63 110 -76 128 -26 34 -63 44 -63 15z"/>
<path d="M10635 2768 c-22 -11 -84 -53 -138 -92 -122 -88 -135 -96 -170 -96
-24 0 -27 -3 -22 -20 5 -15 2 -20 -12 -20 -28 0 -47 -16 -37 -31 5 -8 7 -22 6
-31 -2 -10 6 -19 20 -23 38 -11 68 -28 68 -39 1 -16 72 -46 109 -46 26 0 45
11 90 55 59 56 75 66 65 41 -3 -8 4 -23 15 -33 12 -9 21 -23 21 -31 0 -16 79
-92 95 -92 7 0 36 -25 66 -55 30 -30 60 -55 67 -55 6 0 12 -7 12 -15 0 -8 10
-20 23 -26 12 -7 26 -18 30 -25 4 -8 14 -14 21 -14 8 0 16 -7 20 -15 3 -8 14
-15 25 -15 11 0 33 -13 49 -30 17 -16 35 -30 41 -30 6 0 15 -9 21 -20 6 -11
19 -20 29 -20 11 0 21 -7 25 -15 3 -8 18 -15 32 -15 20 0 40 -14 75 -52 52
-59 70 -60 41 -1 -27 53 -58 157 -83 277 -30 148 -117 300 -204 355 -47 30
-46 51 2 51 13 0 23 3 23 6 0 3 -17 26 -37 50 l-38 46 -67 -7 c-80 -7 -108 4
-156 64 -38 48 -65 52 -127 19z"/>
<path d="M7641 2604 c-11 -14 -23 -35 -27 -46 -6 -19 -7 -19 -16 -5 -14 26
-38 20 -49 -13 -7 -19 -18 -30 -30 -30 -10 0 -19 -6 -19 -14 0 -8 -10 -16 -22
-18 -15 -2 -24 -11 -26 -25 -2 -13 -10 -23 -18 -23 -8 0 -17 -7 -20 -15 -4 -8
-13 -15 -20 -15 -8 0 -18 -8 -21 -17 -4 -10 -12 -23 -17 -30 -6 -7 -16 -18
-22 -26 -6 -7 -14 -31 -18 -52 -4 -22 -13 -46 -18 -53 -6 -7 -8 -15 -5 -18 3
-3 -1 -32 -9 -65 -9 -39 -11 -72 -6 -92 7 -28 13 -33 48 -37 l39 -6 -42 -22
c-46 -24 -56 -24 -159 9 -68 22 -107 15 -119 -20 -3 -12 -11 -21 -16 -21 -5 0
-9 -11 -9 -25 0 -14 -4 -25 -10 -25 -5 0 -10 -22 -10 -50 0 -27 4 -50 9 -50 5
0 12 -18 16 -40 4 -24 14 -44 26 -50 10 -6 19 -17 19 -25 0 -8 7 -15 15 -15 8
0 15 -4 15 -10 0 -5 13 -10 29 -10 17 0 33 -4 36 -10 8 -13 101 -13 125 0 10
6 34 35 52 65 32 55 53 66 53 29 0 -31 36 -96 56 -101 10 -3 19 -10 19 -16 0
-6 19 -29 43 -52 24 -22 47 -48 50 -57 4 -10 13 -18 21 -18 7 0 16 -9 19 -20
3 -12 14 -20 25 -20 11 0 22 -7 26 -15 3 -8 12 -15 20 -15 7 0 16 -6 19 -13 3
-7 24 -19 48 -27 24 -7 51 -20 61 -27 9 -8 22 -13 30 -12 17 3 70 -11 85 -23
7 -6 20 -7 29 -4 9 4 26 0 38 -7 23 -15 131 -57 146 -57 22 0 7 19 -40 49 -75
49 -123 113 -204 271 -41 80 -89 173 -107 207 l-34 62 24 24 c12 14 35 28 49
32 15 4 41 13 57 20 17 8 41 15 54 17 32 4 38 24 9 34 -13 3 -35 17 -50 30
-40 33 -60 37 -109 19 -63 -21 -77 -19 -98 16 -16 26 -18 45 -13 141 3 68 0
142 -8 194 -11 72 -11 97 2 170 8 47 11 87 7 90 -4 2 -17 -7 -28 -22z"/>
<path d="M4940 2022 c0 -11 9 -27 20 -37 11 -10 20 -28 20 -41 0 -13 5 -26 11
-29 6 -4 8 -14 4 -22 -3 -9 2 -24 12 -35 9 -10 18 -26 19 -36 7 -43 18 -78 28
-91 6 -7 11 -19 11 -25 0 -21 38 -106 46 -106 5 0 9 -12 9 -28 0 -15 7 -37 15
-49 12 -17 13 -28 5 -49 -14 -36 -15 -112 -3 -198 l9 -69 -75 6 c-42 3 -103
15 -136 27 -102 38 -142 45 -160 30 -10 -8 -15 -23 -12 -37 3 -14 -1 -23 -8
-23 -7 0 -19 -7 -26 -16 -11 -14 -10 -20 14 -40 16 -13 36 -24 45 -25 11 -1 8
-4 -7 -8 -45 -12 -48 -35 -12 -80 18 -22 41 -41 51 -41 29 0 50 -11 50 -25 0
-34 69 -27 197 20 39 14 78 25 87 25 9 0 62 -13 119 -29 202 -57 270 -52 408
29 86 51 130 61 170 40 48 -26 34 21 -28 98 -20 25 -26 27 -99 25 l-77 -2 31
20 c36 21 41 49 15 74 -17 18 -96 55 -116 55 -34 1 -37 16 -15 68 19 45 20 56
10 91 -17 55 -120 192 -259 344 -39 43 -165 128 -260 176 -72 36 -113 40 -113
13z"/>
<path d="M2466 1890 c-95 -48 -193 -137 -120 -110 33 13 44 12 22 -1 -26 -15
-22 -33 5 -25 12 4 45 9 73 12 47 5 52 3 58 -18 15 -57 15 -57 -105 -60 l-110
-3 -16 -30 c-30 -57 -32 -63 -26 -100 4 -24 13 -40 27 -46 12 -5 36 -18 55
-30 20 -12 54 -21 85 -22 28 -1 56 -8 61 -15 17 -22 62 -4 99 39 34 40 53 46
84 30 9 -6 36 -18 60 -28 40 -16 43 -20 38 -47 -10 -51 4 -128 25 -133 11 -3
19 -14 19 -27 0 -11 5 -28 10 -36 9 -13 11 -13 20 0 8 12 10 9 10 -12 0 -17 5
-28 14 -28 7 0 17 -10 20 -22 7 -22 7 -22 16 -3 8 19 9 19 9 -2 1 -14 7 -23
16 -23 10 0 15 -10 15 -27 0 -31 15 -61 25 -51 4 4 11 66 15 140 5 73 18 180
29 238 12 58 21 122 21 143 0 30 4 37 20 37 11 0 20 7 20 15 0 25 -28 73 -49
85 -28 15 -88 12 -121 -5 -28 -14 -30 -14 -41 7 -7 13 -13 51 -13 86 -1 95
-13 102 -180 102 -126 0 -133 -1 -190 -30z"/>
</g>
</svg>
