<?xml version="1.0" standalone="no"?>
<!DOCTYPE svg PUBLIC "-//W3C//DTD SVG 20010904//EN"
 "http://www.w3.org/TR/2001/REC-SVG-20010904/DTD/svg10.dtd">
<svg version="1.0" xmlns="http://www.w3.org/2000/svg"
 width="1580.000000pt" height="947.000000pt" viewBox="0 0 1580.000000 947.000000"
 preserveAspectRatio="xMidYMid meet">

<g transform="translate(0.000000,947.000000) scale(0.100000,-0.100000)"
fill="#000000" stroke="none">
<path d="M9852 7155 c-40 -18 -62 -65 -62 -134 0 -66 31 -105 83 -105 50 0 77
27 77 76 0 64 -43 92 -106 68 -35 -14 -40 -8 -24 30 18 44 51 63 92 55 22 -5
30 -4 23 3 -19 18 -50 21 -83 7z m62 -121 c35 -34 8 -104 -40 -104 -23 0 -64
42 -64 66 0 22 38 54 64 54 14 0 32 -7 40 -16z"/>
<path d="M10050 7157 c-35 -17 -50 -53 -50 -117 0 -66 16 -100 53 -118 60 -29
117 27 117 114 0 65 -18 104 -56 120 -40 17 -33 17 -64 1z m69 -26 c26 -26 36
-96 19 -145 -15 -46 -36 -61 -70 -53 -32 8 -48 45 -48 111 0 87 53 133 99 87z"/>
<path d="M10821 6953 c-18 -12 -22 -23 -19 -49 3 -29 1 -34 -23 -39 -93 -21
-49 -145 51 -145 47 0 65 24 57 76 -5 29 -2 34 23 43 44 15 50 55 14 91 -37
36 -74 44 -103 23z m63 -13 c14 -5 30 -19 36 -31 10 -18 9 -25 -9 -42 -17 -17
-25 -19 -48 -11 -34 12 -53 55 -33 78 15 19 20 19 54 6z m-35 -116 c36 -45 22
-84 -29 -84 -54 0 -94 75 -52 99 30 18 60 12 81 -15z"/>
<path d="M9038 6944 c-55 -29 -45 -114 21 -184 53 -56 107 -54 140 7 30 58
-55 195 -121 193 -7 -1 -25 -7 -40 -16z m92 -34 c16 -17 36 -51 46 -75 15 -42
15 -46 0 -70 -34 -52 -105 -19 -140 67 -20 48 -20 67 1 90 24 27 61 22 93 -12z"/>
<path d="M9793 6863 c9 -2 25 -2 35 0 9 3 1 5 -18 5 -19 0 -27 -2 -17 -5z"/>
<path d="M10103 6863 c9 -2 25 -2 35 0 9 3 1 5 -18 5 -19 0 -27 -2 -17 -5z"/>
<path d="M8884 6852 c-14 -9 -25 -200 -12 -208 4 -3 29 6 53 20 l45 25 16 -25
c20 -30 37 -22 22 12 -10 20 -8 27 8 40 18 15 18 15 -8 10 -25 -6 -30 0 -68
64 -22 38 -42 70 -43 70 -1 0 -7 -4 -13 -8z m45 -86 c17 -29 31 -56 31 -59 0
-11 -70 -45 -75 -36 -6 9 4 149 11 149 1 0 16 -24 33 -54z"/>
<path d="M9708 6853 c6 -2 18 -2 25 0 6 3 1 5 -13 5 -14 0 -19 -2 -12 -5z"/>
<path d="M10198 6853 c6 -2 18 -2 25 0 6 3 1 5 -13 5 -14 0 -19 -2 -12 -5z"/>
<path d="M10426 6843 c-4 -13 -11 -23 -16 -23 -4 0 -6 -9 -3 -20 3 -12 0 -20
-6 -20 -7 0 -9 -4 -6 -10 4 -7 -126 -455 -152 -520 -3 -8 -8 -22 -9 -30 -2 -8
-70 -229 -152 -491 l-148 -475 -47 -45 c-42 -40 -47 -51 -47 -88 0 -23 5 -52
11 -63 9 -16 8 -35 -2 -76 -12 -52 -12 -55 9 -72 29 -24 98 -36 117 -20 8 7
20 31 26 54 7 26 23 51 45 69 19 16 38 45 45 66 10 32 8 45 -8 83 l-20 44 48
210 c27 115 72 306 99 424 28 118 58 250 68 293 14 65 20 77 37 78 18 1 18 2
2 6 -14 4 -17 11 -13 26 3 12 31 133 63 270 44 190 61 247 72 248 11 0 12 2 4
6 -19 7 -16 33 5 33 11 0 13 3 6 8 -7 4 -14 18 -16 32 -4 25 -4 25 -12 3z"/>
<path d="M11010 6848 c-36 -19 -81 -89 -87 -137 -5 -35 -2 -46 17 -66 27 -29
74 -33 108 -10 32 23 74 100 75 140 2 60 -60 99 -113 73z m72 -25 c27 -24 22
-72 -11 -125 -38 -60 -62 -73 -99 -56 -48 23 -38 99 23 163 36 39 59 43 87 18z"/>
<path d="M9648 6843 c7 -3 16 -2 19 1 4 3 -2 6 -13 5 -11 0 -14 -3 -6 -6z"/>
<path d="M10268 6843 c6 -2 18 -2 25 0 6 3 1 5 -13 5 -14 0 -19 -2 -12 -5z"/>
<path d="M9598 6833 c7 -3 16 -2 19 1 4 3 -2 6 -13 5 -11 0 -14 -3 -6 -6z"/>
<path d="M9548 6823 c7 -3 16 -2 19 1 4 3 -2 6 -13 5 -11 0 -14 -3 -6 -6z"/>
<path d="M9786 6758 c10 -112 25 -161 19 -64 -3 43 -5 92 -5 108 0 15 -5 28
-11 28 -7 0 -8 -24 -3 -72z"/>
<path d="M9818 6823 c7 -3 16 -2 19 1 4 3 -2 6 -13 5 -11 0 -14 -3 -6 -6z"/>
<path d="M9940 6660 l-1 -170 26 0 25 0 0 170 0 170 -24 0 -24 0 -2 -170z"/>
<path d="M10098 6823 c6 -2 18 -2 25 0 6 3 1 5 -13 5 -14 0 -19 -2 -12 -5z"/>
<path d="M10368 6823 c7 -3 16 -2 19 1 4 3 -2 6 -13 5 -11 0 -14 -3 -6 -6z"/>
<path d="M9485 6810 c-13 -5 -14 -9 -5 -9 8 0 24 4 35 9 13 5 14 9 5 9 -8 0
-24 -4 -35 -9z"/>
<path d="M10136 6793 c-10 -53 -18 -178 -11 -171 9 9 32 198 24 198 -4 0 -10
-12 -13 -27z"/>
<path d="M10198 6813 c6 -2 18 -2 25 0 6 3 1 5 -13 5 -14 0 -19 -2 -12 -5z"/>
<path d="M9668 6803 c7 -3 16 -2 19 1 4 3 -2 6 -13 5 -11 0 -14 -3 -6 -6z"/>
<path d="M9605 6778 c8 -35 35 -169 35 -174 0 -2 4 -4 9 -4 5 0 0 39 -10 87
-11 49 -17 94 -14 100 2 7 -2 13 -11 13 -10 0 -13 -7 -9 -22z"/>
<path d="M10306 6794 c8 -3 6 -28 -7 -82 -20 -85 -24 -127 -10 -102 8 14 41
160 41 181 0 5 -8 9 -17 8 -10 0 -13 -3 -7 -5z"/>
<path d="M9568 6783 c7 -3 16 -2 19 1 4 3 -2 6 -13 5 -11 0 -14 -3 -6 -6z"/>
<path d="M9439 6753 c-13 -3 -10 -18 19 -104 19 -55 37 -97 40 -94 3 3 -7 46
-23 96 -25 77 -27 92 -15 99 15 10 7 11 -21 3z"/>
<path d="M10461 6657 c-33 -97 -37 -118 -22 -101 5 5 21 47 36 94 16 47 33 88
39 92 7 5 5 8 -6 8 -12 0 -25 -25 -47 -93z"/>
<path d="M9250 6725 c-14 -8 -20 -14 -15 -14 6 0 21 6 35 14 14 8 21 14 15 14
-5 0 -21 -6 -35 -14z"/>
<path d="M10540 6730 c8 -5 20 -10 25 -10 6 0 3 5 -5 10 -8 5 -19 10 -25 10
-5 0 -3 -5 5 -10z"/>
<path d="M9320 6710 c-8 -5 -10 -10 -5 -10 6 0 17 5 25 10 8 5 11 10 5 10 -5
0 -17 -5 -25 -10z"/>
<path d="M10590 6710 c8 -5 20 -10 25 -10 6 0 3 5 -5 10 -8 5 -19 10 -25 10
-5 0 -3 -5 5 -10z"/>
<path d="M9240 6675 l-25 -15 27 6 c21 4 27 1 33 -15 14 -46 66 -153 72 -148
6 6 -69 187 -77 186 -3 0 -16 -6 -30 -14z"/>
<path d="M10652 6684 c3 -3 -12 -43 -33 -90 -42 -91 -43 -94 -31 -94 5 0 24
37 43 81 18 45 40 84 47 87 11 4 11 6 0 13 -15 10 -34 12 -26 3z"/>
<path d="M9094 6644 c-18 -14 -18 -15 4 -4 12 6 22 13 22 15 0 8 -5 6 -26 -11z"/>
<path d="M10810 6656 c0 -3 14 -12 30 -21 17 -9 30 -13 30 -11 0 3 -13 12 -30
21 -16 9 -30 13 -30 11z"/>
<path d="M9113 6609 c-56 -32 -64 -40 -35 -33 13 4 35 -27 96 -136 75 -131 99
-159 112 -127 3 8 -31 76 -76 153 l-80 139 22 17 c34 26 19 21 -39 -13z"/>
<path d="M9044 6614 c-18 -14 -18 -15 4 -4 12 6 22 13 22 15 0 8 -5 6 -26 -11z"/>
<path d="M10788 6617 c12 -14 3 -35 -68 -158 -55 -95 -78 -145 -71 -152 19
-19 36 1 103 119 91 162 89 159 119 144 41 -21 7 5 -46 35 -30 17 -45 22 -37
12z"/>
<path d="M10880 6617 c0 -2 26 -21 58 -41 31 -20 45 -27 30 -14 -30 26 -88 62
-88 55z"/>
<path d="M8977 6575 c-20 -14 -37 -28 -37 -31 0 -2 18 8 40 22 35 23 47 34 37
34 -1 0 -19 -11 -40 -25z"/>
<path d="M8909 6523 c-13 -16 -12 -17 4 -4 9 7 17 15 17 17 0 8 -8 3 -21 -13z"/>
<path d="M8960 6510 c-19 -17 -28 -28 -19 -25 11 4 31 -16 69 -70 30 -41 58
-75 63 -75 8 0 -17 37 -86 132 -20 27 -20 28 -2 48 26 28 16 24 -25 -10z"/>
<path d="M10947 6522 l22 -20 -59 -81 c-33 -44 -56 -81 -51 -81 5 0 37 36 70
80 l60 80 -32 21 c-28 18 -29 18 -10 1z"/>
<path d="M11000 6536 c0 -2 8 -10 18 -17 15 -13 16 -12 3 4 -13 16 -21 21 -21
13z"/>
<path d="M8861 6490 c-13 -11 -19 -20 -14 -20 6 0 18 9 28 20 23 25 17 25 -14
0z"/>
<path d="M11065 6485 c17 -15 68 -61 115 -102 l85 -75 -73 70 c-40 39 -92 85
-115 102 -31 24 -34 25 -12 5z"/>
<path d="M11000 6486 c0 -2 8 -10 18 -17 15 -13 16 -12 3 4 -13 16 -21 21 -21
13z"/>
<path d="M8899 6463 c-13 -16 -12 -17 4 -4 9 7 17 15 17 17 0 8 -8 3 -21 -13z"/>
<path d="M8789 6423 l-34 -38 38 34 c34 33 42 41 34 41 -2 0 -19 -17 -38 -37z"/>
<path d="M11060 6435 c13 -14 26 -25 28 -25 3 0 -5 11 -18 25 -13 14 -26 25
-28 25 -3 0 5 -11 18 -25z"/>
<path d="M8804 6385 c-39 -35 -97 -95 -129 -132 -33 -38 -43 -53 -23 -34 l37
34 72 -66 c40 -37 75 -64 78 -61 3 3 -28 36 -69 74 l-75 69 57 58 58 58 66
-73 c37 -40 69 -70 72 -67 3 3 -12 24 -34 48 -22 23 -50 54 -64 70 l-24 27 29
30 c47 49 25 34 -51 -35z"/>
<path d="M11100 6396 c0 -10 -27 -48 -61 -83 -33 -36 -57 -68 -54 -71 3 -4 36
26 72 66 l66 73 53 -52 c30 -30 54 -58 54 -64 -1 -5 -32 -37 -69 -70 -38 -33
-67 -64 -64 -68 3 -5 28 13 57 40 28 28 63 59 78 70 l27 20 -80 79 c-55 55
-79 73 -79 60z"/>
<path d="M8714 6358 l-29 -33 33 29 c30 28 37 36 29 36 -2 0 -16 -15 -33 -32z"/>
<path d="M11604 6331 c20 -22 26 -17 -93 -85 -60 -35 -64 -36 -82 -20 -24 22
-24 13 1 -36 23 -44 37 -51 36 -18 -1 18 18 33 92 76 l93 55 -22 23 c-27 28
-50 33 -25 5z"/>
<path d="M4848 6322 c-27 -14 -34 -24 -36 -54 -2 -28 2 -40 19 -52 l23 -16
-27 -28 c-59 -61 -20 -132 73 -132 63 0 100 28 100 76 0 25 -8 42 -27 60 l-27
25 22 15 c28 19 30 74 4 97 -26 24 -85 28 -124 9z m80 -13 c35 -12 46 -32 32
-59 -24 -44 -70 -51 -106 -15 -21 21 -23 28 -14 45 6 12 21 25 33 30 12 5 22
9 23 9 1 1 15 -4 32 -10z m11 -144 c45 -23 52 -54 21 -85 -27 -27 -89 -27
-118 0 -28 27 -28 45 3 75 28 29 54 31 94 10z"/>
<path d="M5131 6331 c-47 -8 -73 -47 -79 -115 -10 -117 23 -176 98 -176 73 0
110 71 97 187 -8 78 -49 114 -116 104z m50 -21 c20 0 39 -62 39 -128 0 -86
-24 -125 -73 -120 -48 5 -71 45 -71 126 0 37 6 77 13 90 13 25 48 43 69 36 8
-2 18 -4 23 -4z"/>
<path d="M8620 6253 c-59 -69 -152 -199 -177 -248 -23 -45 -12 -31 65 85 39
58 94 131 122 163 29 32 51 59 49 61 -2 2 -29 -26 -59 -61z"/>
<path d="M11292 6263 c19 -21 54 -64 78 -95 23 -32 45 -58 47 -58 13 0 -138
189 -152 190 -5 0 7 -17 27 -37z"/>
<path d="M8265 6258 c-18 -16 -26 -34 -27 -57 -2 -67 120 -146 186 -122 25 10
54 55 50 79 -1 6 -2 16 -3 21 -2 17 -57 64 -96 82 -53 24 -78 24 -110 -3z
m113 -24 c33 -16 58 -37 68 -56 14 -27 14 -32 -1 -54 -23 -35 -40 -39 -90 -20
-45 18 -105 75 -105 101 0 21 36 55 58 55 10 0 42 -12 70 -26z"/>
<path d="M9853 6263 c9 -2 23 -2 30 0 6 3 -1 5 -18 5 -16 0 -22 -2 -12 -5z"/>
<path d="M10053 6263 c9 -2 25 -2 35 0 9 3 1 5 -18 5 -19 0 -27 -2 -17 -5z"/>
<path d="M9768 6253 c6 -2 18 -2 25 0 6 3 1 5 -13 5 -14 0 -19 -2 -12 -5z"/>
<path d="M10148 6253 c7 -3 16 -2 19 1 4 3 -2 6 -13 5 -11 0 -14 -3 -6 -6z"/>
<path d="M11280 6215 c13 -14 26 -25 28 -25 3 0 -5 11 -18 25 -13 14 -26 25
-28 25 -3 0 5 -11 18 -25z"/>
<path d="M9510 6180 c-8 -5 -10 -10 -5 -10 6 0 17 5 25 10 8 5 11 10 5 10 -5
0 -17 -5 -25 -10z"/>
<path d="M10400 6180 c8 -5 20 -10 25 -10 6 0 3 5 -5 10 -8 5 -19 10 -25 10
-5 0 -3 -5 5 -10z"/>
<path d="M8599 6163 c-13 -16 -12 -17 4 -4 16 13 21 21 13 21 -2 0 -10 -8 -17
-17z"/>
<path d="M11326 6161 c6 -9 14 -21 17 -27 4 -6 -29 -36 -74 -68 -44 -32 -78
-60 -75 -63 2 -3 43 22 90 54 l85 60 -27 30 c-15 16 -22 22 -16 14z"/>
<path d="M10440 6166 c0 -2 7 -7 16 -10 8 -3 12 -2 9 4 -6 10 -25 14 -25 6z"/>
<path d="M11609 6150 c-46 -24 -89 -75 -89 -104 0 -13 9 -35 21 -50 36 -46
124 -29 190 36 35 35 38 74 8 112 -25 32 -76 35 -130 6z m115 -16 c37 -36 7
-92 -68 -128 -43 -20 -80 -20 -100 0 -24 23 -19 57 12 86 58 55 126 73 156 42z"/>
<path d="M5950 6140 c0 -5 9 -12 20 -15 11 -3 20 -11 20 -16 0 -19 -112 -199
-124 -199 -7 0 -17 5 -23 11 -7 7 -13 7 -17 1 -7 -12 91 -75 105 -67 5 4 0 14
-11 23 -20 17 -20 18 46 131 36 62 62 117 57 121 -13 12 -73 20 -73 10z"/>
<path d="M10480 6146 c0 -2 7 -7 16 -10 8 -3 12 -2 9 4 -6 10 -25 14 -25 6z"/>
<path d="M8560 6109 c-21 -30 -22 -32 -3 -16 21 18 23 17 98 -38 42 -31 79
-54 82 -51 8 7 14 2 -74 65 -39 28 -73 57 -75 63 -2 6 -15 -4 -28 -23z"/>
<path d="M9384 6114 c-18 -14 -18 -15 4 -4 12 6 22 13 22 15 0 8 -5 6 -26 -11z"/>
<path d="M10540 6116 c0 -3 9 -10 20 -16 11 -6 20 -8 20 -6 0 3 -9 10 -20 16
-11 6 -20 8 -20 6z"/>
<path d="M8160 6080 c-11 -11 -22 -31 -26 -45 -7 -28 9 -75 26 -75 13 0 13 17
0 25 -17 10 -11 61 8 78 43 39 85 0 96 -87 7 -64 24 -106 42 -106 11 0 84 107
84 124 0 20 -20 -1 -44 -44 -40 -74 -49 -70 -66 36 -17 103 -69 145 -120 94z"/>
<path d="M9317 6075 c-20 -14 -37 -28 -37 -31 0 -2 18 8 40 22 35 23 47 34 37
34 -1 0 -19 -11 -40 -25z"/>
<path d="M11385 6076 c10 -14 19 -26 22 -26 7 0 -17 39 -28 46 -6 3 -3 -5 6
-20z"/>
<path d="M3898 6060 c-27 -28 -30 -35 -24 -71 14 -85 88 -179 142 -179 113 0
130 132 30 235 -55 58 -101 62 -148 15z m122 -20 c35 -37 70 -108 70 -140 0
-31 -37 -70 -66 -70 -47 0 -124 108 -124 174 0 67 72 88 120 36z"/>
<path d="M10620 6067 c0 -3 17 -17 37 -33 20 -15 33 -23 29 -16 -8 13 -66 56
-66 49z"/>
<path d="M11450 6051 c5 -11 15 -23 21 -27 6 -3 3 5 -6 20 -20 30 -30 35 -15
7z"/>
<path d="M8500 6020 c-6 -11 -8 -20 -6 -20 3 0 10 9 16 20 6 11 8 20 6 20 -3
0 -10 -9 -16 -20z"/>
<path d="M9244 6018 l-19 -23 23 19 c21 18 27 26 19 26 -2 0 -12 -10 -23 -22z"/>
<path d="M6122 5995 c-40 -33 -82 -119 -82 -166 0 -29 7 -43 31 -63 63 -53
134 -24 183 76 35 70 34 112 -3 149 -38 38 -87 39 -129 4z m114 -20 c21 -21
24 -31 19 -58 -15 -73 -84 -157 -128 -157 -28 0 -67 38 -67 65 0 33 48 122 82
150 37 32 62 32 94 0z"/>
<path d="M10740 5968 c41 -45 50 -53 50 -45 0 2 -21 23 -47 47 l-48 45 45 -47z"/>
<path d="M11435 5998 c3 -8 -51 -45 -140 -96 -132 -76 -144 -85 -134 -103 10
-20 10 -20 42 -1 18 11 85 50 149 87 l118 67 -15 29 c-15 29 -28 40 -20 17z"/>
<path d="M4968 5993 c7 -3 16 -2 19 1 4 3 -2 6 -13 5 -11 0 -14 -3 -6 -6z"/>
<path d="M5018 5993 c12 -2 30 -2 40 0 9 3 -1 5 -23 4 -22 0 -30 -2 -17 -4z"/>
<path d="M9144 5928 c-60 -63 -136 -151 -93 -108 48 48 172 180 168 180 -2 0
-36 -33 -75 -72z"/>
<path d="M4833 5983 c15 -2 39 -2 55 0 15 2 2 4 -28 4 -30 0 -43 -2 -27 -4z"/>
<path d="M5133 5983 c15 -2 39 -2 55 0 15 2 2 4 -28 4 -30 0 -43 -2 -27 -4z"/>
<path d="M8464 5958 c-13 -24 -13 -30 -3 -22 11 9 43 -5 149 -67 74 -43 140
-79 146 -79 10 0 29 30 22 35 -12 8 -291 165 -294 165 -2 0 -11 -15 -20 -32z"/>
<path d="M11510 5950 c11 -22 23 -40 25 -40 3 0 -4 18 -15 40 -11 22 -23 40
-25 40 -3 0 4 -18 15 -40z"/>
<path d="M11725 5971 c-81 -37 -114 -97 -84 -152 28 -52 117 -40 185 26 51 48
54 71 18 114 -30 36 -60 39 -119 12z m105 -21 c30 -30 24 -55 -22 -94 -69 -60
-131 -66 -158 -16 -16 30 8 69 65 101 59 34 88 36 115 9z"/>
<path d="M3704 5946 c-42 -42 -45 -87 -10 -162 30 -64 67 -94 116 -94 96 0
127 130 42 174 -39 20 -78 9 -111 -32 l-29 -35 -13 43 c-16 52 0 87 48 110 37
17 42 30 12 30 -12 0 -36 -15 -55 -34z m155 -122 c26 -34 27 -68 1 -94 -42
-42 -120 -12 -120 47 0 65 80 96 119 47z"/>
<path d="M4738 5973 c12 -2 30 -2 40 0 9 3 -1 5 -23 4 -22 0 -30 -2 -17 -4z"/>
<path d="M5253 5973 c9 -2 25 -2 35 0 9 3 1 5 -18 5 -19 0 -27 -2 -17 -5z"/>
<path d="M4673 5963 c9 -2 23 -2 30 0 6 3 -1 5 -18 5 -16 0 -22 -2 -12 -5z"/>
<path d="M5328 5963 c6 -2 18 -2 25 0 6 3 1 5 -13 5 -14 0 -19 -2 -12 -5z"/>
<path d="M4613 5953 c9 -2 23 -2 30 0 6 3 -1 5 -18 5 -16 0 -22 -2 -12 -5z"/>
<path d="M5388 5953 c6 -2 18 -2 25 0 6 3 1 5 -13 5 -14 0 -19 -2 -12 -5z"/>
<path d="M4568 5943 c7 -3 16 -2 19 1 4 3 -2 6 -13 5 -11 0 -14 -3 -6 -6z"/>
<path d="M4978 5938 c9 -9 12 -68 12 -205 l0 -193 25 0 24 0 3 205 3 205 -39
0 c-31 0 -37 -3 -28 -12z"/>
<path d="M5450 5940 c14 -4 34 -8 45 -8 16 0 15 2 -5 8 -14 4 -34 8 -45 8 -16
0 -15 -2 5 -8z"/>
<path d="M8384 5899 c-14 -28 -24 -53 -22 -55 2 -2 16 21 31 51 15 30 25 55
22 55 -3 0 -16 -23 -31 -51z"/>
<path d="M4475 5925 c-54 -17 -33 -18 30 -1 28 8 41 14 30 14 -11 0 -38 -5
-60 -13z"/>
<path d="M4797 5933 c-7 -12 18 -232 27 -240 9 -8 1 125 -11 199 l-5 37 43 4
44 4 -47 1 c-26 1 -49 -1 -51 -5z"/>
<path d="M5173 5933 c36 -4 37 -5 37 -46 0 -23 -5 -75 -10 -116 -9 -69 -8 -92
5 -79 3 3 10 55 17 116 l11 112 36 1 c32 2 30 3 -14 9 -27 5 -66 8 -85 7 l-35
0 38 -4z"/>
<path d="M11500 5880 c16 -33 30 -61 30 -63 0 -2 -40 -21 -90 -43 -49 -21 -90
-42 -90 -46 0 -12 0 -12 95 32 48 22 91 37 96 34 5 -3 5 6 -1 20 -14 39 -60
126 -65 126 -3 0 8 -27 25 -60z"/>
<path d="M4733 5923 c9 -2 23 -2 30 0 6 3 -1 5 -18 5 -16 0 -22 -2 -12 -5z"/>
<path d="M5528 5923 c7 -3 16 -2 19 1 4 3 -2 6 -13 5 -11 0 -14 -3 -6 -6z"/>
<path d="M4673 5913 c9 -2 23 -2 30 0 6 3 -1 5 -18 5 -16 0 -22 -2 -12 -5z"/>
<path d="M5323 5913 c9 -2 23 -2 30 0 6 3 -1 5 -18 5 -16 0 -22 -2 -12 -5z"/>
<path d="M8430 5899 c-7 -11 -10 -23 -7 -25 2 -2 9 7 15 21 14 30 7 33 -8 4z"/>
<path d="M4347 5888 c-32 -11 -57 -22 -54 -24 2 -2 35 7 73 20 38 14 62 24 54
24 -8 0 -41 -9 -73 -20z"/>
<path d="M4618 5903 c6 -2 18 -2 25 0 6 3 1 5 -13 5 -14 0 -19 -2 -12 -5z"/>
<path d="M5393 5903 c32 -5 33 -11 7 -123 -21 -93 -25 -129 -11 -114 4 5 18
56 30 114 12 57 23 106 25 108 2 2 32 -4 66 -13 34 -9 64 -14 67 -12 6 7 -169
47 -193 46 -11 -1 -7 -4 9 -6z"/>
<path d="M5669 5879 c47 -16 86 -27 88 -25 5 5 -147 56 -162 55 -6 0 28 -14
74 -30z"/>
<path d="M10845 5858 c27 -32 51 -58 53 -58 7 0 -55 74 -79 95 -13 11 -1 -6
26 -37z"/>
<path d="M4571 5888 c9 -7 26 -60 38 -118 13 -58 25 -107 27 -109 14 -15 11
20 -11 117 -14 61 -25 113 -25 116 0 3 -10 6 -22 6 -19 0 -20 -2 -7 -12z"/>
<path d="M6353 5881 c-66 -41 -116 -155 -94 -210 15 -34 72 -65 105 -57 58 14
128 115 130 187 2 74 -78 119 -141 80z m100 -29 c25 -22 21 -70 -12 -127 -36
-63 -63 -87 -96 -87 -62 0 -83 64 -44 137 50 95 100 121 152 77z"/>
<path d="M4528 5883 c7 -3 16 -2 19 1 4 3 -2 6 -13 5 -11 0 -14 -3 -6 -6z"/>
<path d="M4488 5873 c7 -3 16 -2 19 1 4 3 -2 6 -13 5 -11 0 -14 -3 -6 -6z"/>
<path d="M11551 5875 c0 -5 6 -21 14 -35 8 -14 14 -20 14 -15 0 6 -6 21 -14
35 -8 14 -14 21 -14 15z"/>
<path d="M4395 5850 c-27 -10 -42 -19 -33 -19 17 -1 27 -24 68 -154 12 -37 25
-65 30 -62 5 3 -7 51 -26 107 -19 57 -33 107 -31 112 2 5 19 15 38 22 19 7 27
12 19 12 -8 0 -37 -8 -65 -18z"/>
<path d="M4225 5841 c-22 -11 -35 -19 -30 -19 14 -1 93 36 80 37 -5 0 -28 -8
-50 -18z"/>
<path d="M5623 5833 c-1 -10 -16 -60 -32 -112 -33 -102 -36 -115 -22 -106 6 3
24 53 42 110 23 76 37 105 48 105 14 0 14 2 1 10 -23 15 -36 12 -37 -7z"/>
<path d="M5895 5787 c204 -99 365 -207 510 -340 47 -43 57 -58 48 -68 -14 -14
-18 -12 -126 81 -41 36 -104 85 -139 109 -39 27 -50 32 -29 13 l35 -29 -67
-91 c-68 -93 -73 -102 -59 -102 7 0 96 115 134 173 7 11 53 -18 121 -76 l38
-33 -75 -84 c-42 -46 -76 -88 -76 -94 1 -6 38 29 83 77 l82 88 28 -29 28 -29
-53 -48 c-29 -27 -114 -106 -188 -175 -74 -69 -157 -146 -185 -172 l-52 -48
-53 46 c-30 25 -79 63 -109 83 -117 79 -107 64 15 -23 45 -32 94 -71 110 -87
24 -25 26 -31 14 -43 -46 -41 -654 -607 -754 -700 -109 -102 -122 -112 -168
-119 -28 -4 -63 -15 -79 -24 -32 -19 -69 -85 -69 -124 0 -16 -15 -39 -40 -64
-26 -25 -40 -48 -40 -65 0 -32 73 -110 104 -110 12 0 39 17 61 40 21 22 48 40
58 40 41 0 99 25 122 52 28 33 48 98 39 122 -4 11 19 43 78 104 46 48 144 152
218 232 74 80 162 174 196 210 33 36 123 131 198 213 76 81 141 147 146 147
26 0 151 -172 220 -302 55 -102 68 -114 19 -15 -41 81 -111 189 -163 252 -23
28 -47 58 -55 67 -12 16 7 40 180 224 107 114 206 221 221 238 l27 31 31 -31
31 -31 -85 -74 c-46 -41 -85 -77 -85 -81 -2 -19 23 -4 81 50 117 106 98 104
162 22 31 -40 56 -75 56 -79 0 -3 -41 -35 -90 -70 -78 -56 -104 -81 -85 -81 3
0 46 30 96 66 89 64 91 65 112 47 51 -44 -76 121 -161 209 -48 49 -54 59 -42
73 12 14 16 13 43 -12 46 -44 186 -221 235 -298 52 -82 74 -108 43 -50 -38 69
-143 211 -220 296 -65 71 -73 84 -63 100 19 29 15 44 -6 26 -26 -24 -34 -22
-73 19 -51 54 -173 150 -274 217 -84 56 -357 197 -380 197 -5 0 49 -29 120
-63z"/>
<path d="M4295 5815 c-25 -12 -26 -14 -5 -9 28 7 60 23 45 23 -5 0 -23 -6 -40
-14z"/>
<path d="M4055 5762 c-355 -186 -666 -483 -845 -807 -46 -83 -30 -65 28 32
192 320 479 587 825 769 67 35 118 64 112 64 -5 0 -59 -26 -120 -58z"/>
<path d="M5710 5816 c0 -2 27 -14 59 -26 l59 -22 -49 -110 c-27 -60 -43 -108
-36 -105 6 2 30 46 53 97 25 56 48 96 59 100 14 5 -1 15 -57 38 -76 32 -88 36
-88 28z"/>
<path d="M8381 5794 c-6 -15 -10 -29 -7 -31 2 -2 7 5 11 17 7 23 22 21 85 -10
62 -32 110 -49 110 -41 0 6 -105 59 -176 87 -6 3 -16 -7 -23 -22z"/>
<path d="M8336 5795 c-9 -26 -7 -32 5 -12 6 10 9 21 6 23 -2 3 -7 -2 -11 -11z"/>
<path d="M4135 5747 c-60 -30 -150 -79 -200 -110 -91 -57 -163 -112 -134 -101
12 4 35 -20 83 -85 37 -50 71 -91 77 -91 12 0 7 10 -46 80 -23 30 -51 70 -64
87 l-22 33 70 45 c38 25 72 45 74 45 3 0 50 -76 104 -170 54 -93 101 -170 104
-170 3 0 13 6 23 13 16 12 10 26 -78 178 -53 91 -96 170 -96 175 0 5 34 26 75
47 l75 37 26 -58 c14 -31 35 -78 46 -104 11 -27 24 -48 29 -48 13 0 13 2 -36
111 -26 56 -45 102 -43 104 2 1 17 10 33 18 17 9 26 16 20 17 -5 0 -59 -24
-120 -53z"/>
<path d="M9019 5783 c-13 -16 -12 -17 4 -4 9 7 17 15 17 17 0 8 -8 3 -21 -13z"/>
<path d="M10915 5766 c10 -14 19 -26 22 -26 7 0 -17 39 -28 46 -6 3 -3 -5 6
-20z"/>
<path d="M11590 5785 c0 -5 5 -17 10 -25 5 -8 10 -10 10 -5 0 6 -5 17 -10 25
-5 8 -10 11 -10 5z"/>
<path d="M8356 5735 c-9 -26 -7 -32 5 -12 6 10 9 21 6 23 -2 3 -7 -2 -11 -11z"/>
<path d="M11610 5735 c0 -5 5 -17 10 -25 5 -8 10 -10 10 -5 0 6 -5 17 -10 25
-5 8 -10 11 -10 5z"/>
<path d="M5978 5693 l22 -18 -61 -105 c-145 -249 -139 -235 -116 -250 26 -16
23 -20 134 175 47 83 87 152 89 154 2 2 20 -7 41 -19 29 -17 33 -18 15 -3 -13
11 -51 34 -85 52 -34 18 -52 24 -39 14z"/>
<path d="M10975 5670 c9 -16 18 -30 21 -30 2 0 -2 14 -11 30 -9 17 -18 30 -21
30 -2 0 2 -13 11 -30z"/>
<path d="M11580 5695 c0 -5 5 -17 10 -25 5 -8 10 -10 10 -5 0 6 -5 17 -10 25
-5 8 -10 11 -10 5z"/>
<path d="M8930 5639 c-12 -23 -20 -43 -18 -45 3 -2 14 17 26 41 27 56 20 60
-8 4z"/>
<path d="M8330 5663 c0 -6 -3 -19 -7 -29 -4 -12 -3 -15 6 -10 6 4 47 -4 91
-19 44 -15 86 -25 93 -22 6 2 -26 16 -73 31 -47 16 -91 35 -97 44 -7 9 -13 11
-13 5z"/>
<path d="M11503 5618 c-51 -16 -93 -33 -93 -38 0 -10 200 52 200 63 0 10 -2 9
-107 -25z"/>
<path d="M11651 5614 c0 -11 3 -14 6 -6 3 7 2 16 -1 19 -3 4 -6 -2 -5 -13z"/>
<path d="M11011 5605 c0 -5 6 -21 14 -35 8 -14 14 -20 14 -15 0 6 -6 21 -14
35 -8 14 -14 21 -14 15z"/>
<path d="M8886 5545 c-9 -26 -7 -32 5 -12 6 10 9 21 6 23 -2 3 -7 -2 -11 -11z"/>
<path d="M3695 5462 c-146 -125 -301 -302 -397 -453 -48 -75 -72 -123 -59
-114 6 3 86 -37 177 -89 91 -53 169 -96 174 -96 16 0 23 42 9 51 -8 5 -83 48
-166 96 -84 48 -153 92 -153 98 1 15 79 135 89 135 4 0 48 -29 97 -64 49 -35
93 -62 97 -59 5 3 -35 37 -87 75 l-96 70 27 37 c16 21 43 55 61 75 l33 38 85
-76 c115 -103 131 -96 19 8 l-90 85 66 66 66 67 50 -54 c27 -29 64 -69 81 -88
17 -19 34 -32 38 -28 4 4 -29 47 -72 94 l-79 87 60 53 c85 77 65 67 -30 -14z"/>
<path d="M11681 5504 c0 -11 3 -14 6 -6 3 7 2 16 -1 19 -3 4 -6 -2 -5 -13z"/>
<path d="M8280 5484 c0 -18 11 -23 78 -37 42 -10 87 -20 100 -23 12 -4 22 -2
22 4 0 5 -41 17 -90 27 -59 11 -94 23 -100 34 -8 14 -9 13 -10 -5z"/>
<path d="M11640 5486 c0 -9 -29 -19 -90 -31 -50 -10 -93 -21 -96 -26 -7 -13 0
-12 104 12 76 18 92 25 92 40 0 11 -2 19 -5 19 -3 0 -5 -6 -5 -14z"/>
<path d="M8232 5450 c0 -14 2 -19 5 -12 2 6 2 18 0 25 -3 6 -5 1 -5 -13z"/>
<path d="M11691 5454 c0 -11 3 -14 6 -6 3 7 2 16 -1 19 -3 4 -6 -2 -5 -13z"/>
<path d="M8271 5434 c0 -11 3 -14 6 -6 3 7 2 16 -1 19 -3 4 -6 -2 -5 -13z"/>
<path d="M11651 5434 c0 -11 3 -14 6 -6 3 7 2 16 -1 19 -3 4 -6 -2 -5 -13z"/>
<path d="M8221 5394 c0 -11 3 -14 6 -6 3 7 2 16 -1 19 -3 4 -6 -2 -5 -13z"/>
<path d="M11701 5394 c0 -11 3 -14 6 -6 3 7 2 16 -1 19 -3 4 -6 -2 -5 -13z"/>
<path d="M8262 5370 c0 -14 2 -19 5 -12 2 6 2 18 0 25 -3 6 -5 1 -5 -13z"/>
<path d="M6930 5373 c0 -3 7 -15 17 -25 9 -10 14 -20 12 -22 -10 -11 -199
-116 -207 -116 -5 0 -13 10 -19 22 -5 12 -12 17 -16 12 -8 -14 51 -116 63
-109 6 4 5 14 -2 25 -7 11 -10 21 -8 23 3 3 46 28 95 57 50 29 101 59 114 67
l23 15 -28 29 c-27 28 -44 37 -44 22z"/>
<path d="M8831 5364 c0 -11 3 -14 6 -6 3 7 2 16 -1 19 -3 4 -6 -2 -5 -13z"/>
<path d="M11091 5364 c0 -11 3 -14 6 -6 3 7 2 16 -1 19 -3 4 -6 -2 -5 -13z"/>
<path d="M11770 5315 c0 -30 5 -55 10 -55 6 0 10 9 10 20 0 11 6 20 13 21 6 0
58 0 115 -1 78 -1 102 2 102 12 0 25 -12 58 -21 58 -5 0 -8 -10 -6 -22 2 -22
0 -23 -98 -23 -96 0 -100 1 -103 23 -7 44 -22 21 -22 -33z"/>
<path d="M11712 5325 c0 -16 2 -22 5 -12 2 9 2 23 0 30 -3 6 -5 -1 -5 -18z"/>
<path d="M8212 5320 c0 -14 2 -19 5 -12 2 6 2 18 0 25 -3 6 -5 1 -5 -13z"/>
<path d="M11670 5321 c0 -24 -12 -27 -112 -36 -43 -4 -78 -11 -78 -16 0 -5 24
-6 58 -2 31 5 76 8 100 8 41 0 42 1 42 33 0 17 -2 32 -5 32 -3 0 -5 -9 -5 -19z"/>
<path d="M8821 5314 c0 -11 3 -14 6 -6 3 7 2 16 -1 19 -3 4 -6 -2 -5 -13z"/>
<path d="M8250 5299 c0 -22 4 -25 28 -22 15 3 59 0 97 -5 39 -5 73 -7 78 -3 4
4 -36 12 -89 19 -58 6 -101 16 -105 24 -6 9 -9 5 -9 -13z"/>
<path d="M2999 5261 c-57 -58 -26 -136 73 -185 69 -35 121 -34 153 0 55 59 22
139 -77 188 -70 35 -112 34 -149 -3z m133 -17 c52 -27 98 -75 98 -102 0 -32
-36 -72 -65 -72 -33 0 -122 48 -150 82 -32 37 -32 62 0 94 28 28 60 27 117 -2z"/>
<path d="M4846 5272 c-2 -4 14 -6 37 -4 68 5 76 10 20 11 -28 0 -54 -2 -57 -7z"/>
<path d="M4988 5273 c12 -2 30 -2 40 0 9 3 -1 5 -23 4 -22 0 -30 -2 -17 -4z"/>
<path d="M5088 5273 c12 -2 32 -2 45 0 12 2 2 4 -23 4 -25 0 -35 -2 -22 -4z"/>
<path d="M4798 5263 c6 -2 18 -2 25 0 6 3 1 5 -13 5 -14 0 -19 -2 -12 -5z"/>
<path d="M5193 5263 c9 -2 23 -2 30 0 6 3 -1 5 -18 5 -16 0 -22 -2 -12 -5z"/>
<path d="M4748 5253 c6 -2 18 -2 25 0 6 3 1 5 -13 5 -14 0 -19 -2 -12 -5z"/>
<path d="M5253 5253 c9 -2 23 -2 30 0 6 3 -1 5 -18 5 -16 0 -22 -2 -12 -5z"/>
<path d="M8812 5235 c0 -16 2 -22 5 -12 2 9 2 23 0 30 -3 6 -5 -1 -5 -18z"/>
<path d="M4698 5243 c6 -2 18 -2 25 0 6 3 1 5 -13 5 -14 0 -19 -2 -12 -5z"/>
<path d="M5308 5243 c7 -3 16 -2 19 1 4 3 -2 6 -13 5 -11 0 -14 -3 -6 -6z"/>
<path d="M11723 5185 c0 -38 2 -53 4 -32 2 20 2 52 0 70 -2 17 -4 1 -4 -38z"/>
<path d="M4658 5233 c7 -3 16 -2 19 1 4 3 -2 6 -13 5 -11 0 -14 -3 -6 -6z"/>
<path d="M5348 5233 c7 -3 16 -2 19 1 4 3 -2 6 -13 5 -11 0 -14 -3 -6 -6z"/>
<path d="M8203 5170 c0 -41 2 -58 4 -37 2 20 2 54 0 75 -2 20 -4 3 -4 -38z"/>
<path d="M4572 5213 c-24 -8 -41 -17 -39 -19 2 -2 28 5 58 15 30 11 47 20 39
19 -8 0 -34 -6 -58 -15z"/>
<path d="M5465 5196 c50 -18 123 -49 163 -70 39 -20 72 -34 72 -31 0 16 -279
136 -313 135 -7 -1 29 -16 78 -34z"/>
<path d="M11682 5180 c0 -19 2 -27 5 -17 2 9 2 25 0 35 -3 9 -5 1 -5 -18z"/>
<path d="M4490 5180 c-8 -5 -10 -10 -5 -10 6 0 17 5 25 10 8 5 11 10 5 10 -5
0 -17 -5 -25 -10z"/>
<path d="M7981 5180 c-46 -11 -65 -33 -65 -76 0 -59 37 -84 124 -84 84 0 121
24 122 78 2 66 -85 106 -181 82z m141 -31 c10 -5 21 -21 24 -36 6 -21 1 -31
-21 -51 -26 -22 -36 -24 -98 -20 -53 3 -72 8 -83 23 -18 25 -18 59 1 75 34 28
131 33 177 9z"/>
<path d="M8242 5143 l-2 -53 175 0 c168 0 175 1 175 20 0 19 -7 20 -169 20
l-170 0 -4 33 c-3 22 -4 15 -5 -20z"/>
<path d="M11121 5174 c0 -11 3 -14 6 -6 3 7 2 16 -1 19 -3 4 -6 -2 -5 -13z"/>
<path d="M11770 5110 c0 -47 4 -80 10 -80 6 0 10 28 10 65 0 36 3 65 8 65 4 0
34 -29 68 -65 66 -71 97 -82 134 -45 39 39 14 130 -35 130 -8 0 -15 -4 -15
-10 0 -5 4 -10 9 -10 38 0 56 -81 22 -100 -33 -17 -41 -13 -110 60 -90 94
-101 93 -101 -10z"/>
<path d="M4371 5124 c-224 -119 -421 -311 -551 -535 -22 -37 -40 -71 -40 -76
0 -4 23 30 51 77 139 235 324 411 564 537 44 23 76 42 70 43 -5 0 -48 -21 -94
-46z"/>
<path d="M7005 5150 c3 -5 17 -10 31 -10 29 0 74 -41 74 -67 0 -24 -10 -37
-38 -52 -25 -13 -37 -11 -129 25 -69 27 -111 31 -119 11 -6 -15 73 -157 87
-157 15 0 11 12 -26 73 -19 32 -35 60 -35 63 0 11 54 2 114 -21 81 -30 105
-31 140 -4 58 46 13 149 -65 149 -24 0 -38 -4 -34 -10z"/>
<path d="M11122 5125 c0 -16 2 -22 5 -12 2 9 2 23 0 30 -3 6 -5 -1 -5 -18z"/>
<path d="M11512 5133 c-153 -3 -173 -5 -168 -19 3 -9 6 -18 6 -20 0 -2 77 -4
170 -4 l170 0 0 25 c0 14 -1 24 -2 23 -2 -1 -81 -4 -176 -5z"/>
<path d="M2876 5054 c-7 -19 100 -224 117 -224 7 0 25 24 41 53 16 28 30 53
32 55 1 2 14 -4 29 -14 18 -12 29 -14 37 -6 7 7 1 15 -21 26 -27 15 -30 19
-20 37 14 26 1 40 -15 16 -7 -9 -16 -17 -20 -17 -4 0 -42 20 -85 45 -43 25
-80 45 -83 45 -3 0 -9 -7 -12 -16z m106 -64 l67 -40 -27 -45 c-14 -24 -29 -41
-33 -37 -16 19 -89 162 -83 162 4 0 38 -18 76 -40z"/>
<path d="M6730 4987 c12 -21 21 -39 19 -41 -2 -2 -76 -45 -164 -95 -88 -51
-164 -96 -169 -101 -5 -5 -2 -17 5 -28 13 -18 22 -15 184 79 137 80 172 96
180 85 6 -8 16 -23 23 -33 7 -10 -4 14 -24 53 -20 39 -45 82 -56 95 -17 20
-16 18 2 -14z"/>
<path d="M11808 4964 c-49 -26 -51 -94 -5 -128 23 -17 43 -21 97 -21 59 0 72
4 94 24 42 39 34 101 -15 126 -36 19 -136 19 -171 -1z m162 -17 c34 -17 39
-66 9 -93 -16 -14 -36 -19 -84 -19 -76 0 -108 21 -103 69 4 39 36 56 103 56
28 0 61 -6 75 -13z"/>
<path d="M6871 4828 c33 -68 78 -172 100 -233 22 -60 37 -96 34 -80 -17 79
-172 435 -190 435 -2 0 23 -55 56 -122z"/>
<path d="M7072 4919 c-101 -50 -129 -116 -76 -178 33 -39 84 -42 153 -6 100
50 130 128 72 186 -38 38 -71 37 -149 -2z m132 -10 c39 -31 35 -69 -12 -111
-42 -38 -118 -72 -147 -66 -10 1 -27 15 -38 30 -17 23 -19 33 -11 55 13 40
113 103 175 112 4 1 18 -8 33 -20z"/>
<path d="M3126 4797 c-24 -51 -46 -103 -50 -117 l-6 -25 12 25 c43 88 96 210
92 210 -3 0 -25 -42 -48 -93z"/>
<path d="M3174 4785 c-42 -91 -59 -139 -29 -83 l15 27 100 -45 c55 -24 105
-44 111 -44 25 0 -7 20 -100 60 -56 24 -101 47 -101 52 0 5 14 35 30 68 17 33
28 60 24 60 -3 0 -25 -43 -50 -95z"/>
<path d="M6841 4782 c6 -19 8 -37 3 -41 -5 -4 -53 -27 -106 -51 -54 -23 -95
-46 -93 -51 3 -4 51 13 107 37 55 25 106 43 112 41 6 -3 20 -28 30 -56 10 -29
20 -50 23 -47 3 2 -12 44 -32 93 -38 89 -65 135 -44 75z"/>
<path d="M3116 4655 c-9 -26 -7 -32 5 -12 6 10 9 21 6 23 -2 3 -7 -2 -11 -11z"/>
<path d="M3036 4573 c-14 -43 -26 -83 -25 -88 0 -6 14 28 30 74 16 47 27 86
25 88 -2 3 -16 -31 -30 -74z"/>
<path d="M3086 4569 c-18 -59 -19 -70 -8 -52 6 9 35 4 117 -22 128 -40 115
-37 115 -26 0 5 -46 24 -102 41 -57 17 -107 35 -111 39 -4 4 -3 20 3 36 6 15
8 30 6 32 -3 3 -12 -19 -20 -48z"/>
<path d="M6931 4559 c-1 -11 -31 -25 -106 -48 -57 -18 -107 -36 -110 -42 -9
-14 1 -12 117 25 59 18 110 31 113 28 7 -8 5 10 -5 33 -6 15 -9 16 -9 4z"/>
<path d="M3056 4474 c-4 -14 -5 -28 -3 -31 3 -2 8 8 11 23 4 14 5 28 3 31 -3
2 -8 -8 -11 -23z"/>
<path d="M3742 4428 c-17 -40 -33 -86 -37 -103 -3 -16 9 8 28 55 19 47 37 93
42 103 4 9 5 17 2 17 -3 0 -19 -33 -35 -72z"/>
<path d="M6961 4475 c0 -5 6 -32 13 -60 8 -27 14 -41 14 -30 0 21 -25 107 -27
90z"/>
<path d="M7011 4475 c0 -5 8 -41 19 -80 11 -38 18 -54 15 -34 -6 39 -33 130
-34 114z"/>
<path d="M2995 4440 c-4 -17 -5 -34 -2 -36 2 -3 7 10 11 27 8 42 0 50 -9 9z"/>
<path d="M6270 4435 c0 -5 5 -17 10 -25 5 -8 10 -10 10 -5 0 6 -5 17 -10 25
-5 8 -10 11 -10 5z"/>
<path d="M3035 4400 c-4 -17 -5 -34 -2 -36 2 -3 7 10 11 27 8 42 0 50 -9 9z"/>
<path d="M2981 4374 c0 -11 3 -14 6 -6 3 7 2 16 -1 19 -3 4 -6 -2 -5 -13z"/>
<path d="M6302 4355 c0 -5 6 -26 13 -45 7 -19 14 -28 14 -20 0 8 -6 29 -14 45
-7 17 -13 26 -13 20z"/>
<path d="M6990 4352 c0 -8 -97 -33 -183 -48 -36 -6 -62 -24 -35 -24 7 0 61 10
121 22 87 19 107 26 107 40 0 10 -2 18 -5 18 -3 0 -5 -4 -5 -8z"/>
<path d="M2972 4330 c0 -14 2 -19 5 -12 2 6 2 18 0 25 -3 6 -5 1 -5 -13z"/>
<path d="M3021 4329 c0 -13 3 -19 5 -13 4 8 28 6 87 -7 130 -29 147 -32 147
-22 0 5 -48 20 -107 33 -60 12 -114 25 -120 27 -8 3 -13 -3 -12 -18z"/>
<path d="M7052 4295 c0 -16 2 -22 5 -12 2 9 2 23 0 30 -3 6 -5 -1 -5 -18z"/>
<path d="M7002 4290 c0 -14 2 -19 5 -12 2 6 2 18 0 25 -3 6 -5 1 -5 -13z"/>
<path d="M2962 4275 c0 -16 2 -22 5 -12 2 9 2 23 0 30 -3 6 -5 -1 -5 -18z"/>
<path d="M3012 4280 c0 -14 2 -19 5 -12 2 6 2 18 0 25 -3 6 -5 1 -5 -13z"/>
<path d="M9841 4284 c-64 -45 -68 -204 -6 -228 32 -12 75 -6 95 14 26 26 27
90 2 113 -20 19 -87 23 -97 7 -13 -21 -27 -9 -20 18 10 42 45 73 80 72 45 -3
52 -1 35 10 -23 15 -63 12 -89 -6z m67 -110 c18 -12 22 -24 20 -52 -5 -61 -71
-77 -105 -25 -19 29 -5 69 29 83 31 12 31 12 56 -6z"/>
<path d="M10047 4293 c-61 -16 -63 -213 -2 -237 63 -24 112 13 122 91 12 108
-36 168 -120 146z m76 -31 c39 -43 28 -175 -16 -191 -30 -11 -56 -2 -74 25
-19 29 -15 143 6 168 18 21 64 20 84 -2z"/>
<path d="M3685 4260 c-4 -17 -5 -34 -2 -36 2 -3 7 10 11 27 8 42 0 50 -9 9z"/>
<path d="M6331 4254 c0 -11 3 -14 6 -6 3 7 2 16 -1 19 -3 4 -6 -2 -5 -13z"/>
<path d="M7012 4235 c0 -16 2 -22 5 -12 2 9 2 23 0 30 -3 6 -5 -1 -5 -18z"/>
<path d="M7062 4235 c0 -16 2 -22 5 -12 2 9 2 23 0 30 -3 6 -5 -1 -5 -18z"/>
<path d="M3002 4225 c0 -16 2 -22 5 -12 2 9 2 23 0 30 -3 6 -5 -1 -5 -18z"/>
<path d="M2952 4210 c0 -14 2 -19 5 -12 2 6 2 18 0 25 -3 6 -5 1 -5 -13z"/>
<path d="M6342 4210 c0 -14 2 -19 5 -12 2 6 2 18 0 25 -3 6 -5 1 -5 -13z"/>
<path d="M7140 4155 c0 -37 4 -65 10 -65 6 0 10 11 10 25 l0 25 134 0 c145 0
151 2 132 52 -13 35 -26 36 -26 3 l0 -25 -120 0 -120 0 0 25 c0 14 -4 25 -10
25 -6 0 -10 -28 -10 -65z"/>
<path d="M3671 4194 c0 -11 3 -14 6 -6 3 7 2 16 -1 19 -3 4 -6 -2 -5 -13z"/>
<path d="M7022 4170 c0 -14 2 -19 5 -12 2 6 2 18 0 25 -3 6 -5 1 -5 -13z"/>
<path d="M7072 4160 c0 -19 2 -27 5 -17 2 9 2 25 0 35 -3 9 -5 1 -5 -18z"/>
<path d="M2943 4140 c0 -25 2 -35 4 -22 2 12 2 32 0 45 -2 12 -4 2 -4 -23z"/>
<path d="M2991 4147 c-1 -21 2 -36 7 -34 4 2 57 -1 117 -8 61 -7 112 -11 114
-9 11 10 -16 16 -115 27 -102 11 -108 13 -115 37 -6 21 -7 19 -8 -13z"/>
<path d="M6352 4160 c0 -14 2 -19 5 -12 2 6 2 18 0 25 -3 6 -5 1 -5 -13z"/>
<path d="M3662 4150 c0 -14 2 -19 5 -12 2 6 2 18 0 25 -3 6 -5 1 -5 -13z"/>
<path d="M2640 4132 c-44 -22 -63 -78 -39 -120 42 -77 221 -84 273 -11 32 46
13 109 -39 134 -45 21 -150 20 -195 -3z m197 -27 c46 -30 38 -96 -13 -115 -14
-6 -57 -10 -95 -10 -61 0 -73 3 -94 25 -44 43 -26 94 41 115 38 12 133 3 161
-15z"/>
<path d="M6975 4129 c-27 -4 -80 -10 -117 -14 -38 -4 -68 -11 -68 -17 0 -6 13
-8 33 -4 17 3 71 8 119 12 l87 7 4 -44 4 -44 1 45 c2 61 -4 67 -63 59z"/>
<path d="M6362 4100 c0 -19 2 -27 5 -17 2 9 2 25 0 35 -3 9 -5 1 -5 -18z"/>
<path d="M3652 4080 c0 -19 2 -27 5 -17 2 9 2 25 0 35 -3 9 -5 1 -5 -18z"/>
<path d="M7083 4035 c0 -38 2 -53 4 -32 2 20 2 52 0 70 -2 17 -4 1 -4 -38z"/>
<path d="M9010 4077 c-42 -21 -61 -104 -40 -179 12 -43 34 -58 84 -58 54 0 76
35 76 122 0 64 -3 72 -29 99 -32 32 -53 35 -91 16z m66 -15 c22 -14 34 -52 34
-106 0 -44 -5 -61 -24 -83 -21 -24 -27 -26 -52 -18 -75 27 -63 216 14 215 9 0
22 -4 28 -8z"/>
<path d="M10772 4074 c-28 -19 -30 -69 -3 -86 19 -12 19 -13 -5 -35 -31 -29
-32 -76 -2 -97 12 -9 41 -16 63 -16 56 0 85 22 85 65 0 23 -7 39 -22 49 -20
15 -21 16 -5 34 40 44 6 102 -58 102 -17 0 -41 -7 -53 -16z m96 -16 c20 -20
14 -46 -14 -65 -24 -15 -29 -15 -53 -2 -50 28 -35 79 23 79 18 0 37 -5 44 -12z
m-8 -113 c20 -10 30 -23 30 -38 0 -34 -19 -47 -65 -47 -23 0 -46 5 -53 12 -19
19 -14 55 10 72 28 20 41 20 78 1z"/>
<path d="M10979 4064 c-21 -22 -24 -35 -24 -99 0 -64 3 -77 24 -99 39 -42 101
-34 126 15 17 31 20 115 6 152 -24 62 -89 77 -132 31z m107 -26 c19 -37 16
-137 -5 -162 -8 -9 -29 -16 -48 -16 -29 0 -36 5 -49 35 -17 41 -18 93 -3 132
13 34 26 43 61 43 21 0 32 -8 44 -32z"/>
<path d="M2932 3918 c-1 -92 1 -169 6 -171 4 -3 6 47 4 111 -4 208 -8 231 -10
60z"/>
<path d="M2984 3915 c0 -93 2 -137 3 -97 l4 72 199 0 200 0 0 25 0 25 -200 0
-199 0 -4 73 c-1 39 -3 -4 -3 -98z"/>
<path d="M8800 4003 c-25 -43 -46 -83 -48 -90 -3 -9 12 -13 52 -13 56 0 56 0
56 -30 0 -16 5 -30 10 -30 6 0 10 12 10 26 0 17 6 28 20 31 25 7 27 21 3 19
-16 -1 -18 10 -21 82 -4 109 -20 110 -82 5z m56 -79 c-6 -15 -71 -20 -79 -6
-3 4 14 36 37 72 l41 65 3 -59 c2 -32 1 -65 -2 -72z"/>
<path d="M6373 3995 c0 -27 2 -38 4 -22 2 15 2 37 0 50 -2 12 -4 0 -4 -28z"/>
<path d="M3644 3915 c0 -60 1 -84 3 -52 2 32 2 81 0 110 -2 29 -3 3 -3 -58z"/>
<path d="M7210 3950 l0 -70 -35 0 c-19 0 -35 -4 -35 -10 0 -5 16 -10 35 -10
31 0 35 -3 35 -25 0 -31 17 -33 22 -2 3 21 8 22 101 25 133 4 132 18 -4 101
-56 33 -105 61 -110 61 -5 0 -9 -31 -9 -70z m115 -16 c41 -25 75 -47 75 -50 0
-2 -38 -4 -85 -4 l-85 0 0 50 c0 28 4 50 10 50 5 0 43 -21 85 -46z"/>
<path d="M9858 4003 c18 -2 45 -2 60 0 15 2 0 4 -33 4 -33 0 -45 -2 -27 -4z"/>
<path d="M10018 4003 c18 -2 45 -2 60 0 15 2 0 4 -33 4 -33 0 -45 -2 -27 -4z"/>
<path d="M9738 3993 c6 -2 18 -2 25 0 6 3 1 5 -13 5 -14 0 -19 -2 -12 -5z"/>
<path d="M10168 3993 c6 -2 18 -2 25 0 6 3 1 5 -13 5 -14 0 -19 -2 -12 -5z"/>
<path d="M9494 3963 c3 -16 7 -37 10 -48 34 -125 125 -534 122 -547 -2 -9 0
-18 5 -20 5 -2 31 -102 59 -223 27 -121 68 -299 91 -395 92 -396 90 -389 74
-420 -8 -16 -15 -48 -15 -71 0 -35 6 -47 40 -82 27 -26 44 -55 52 -84 14 -58
40 -69 106 -45 51 19 48 11 42 117 -1 17 4 48 11 71 11 36 10 45 -7 80 -10 21
-33 48 -50 59 -30 19 -38 42 -183 514 -120 389 -150 496 -139 502 10 7 9 9 -3
9 -16 0 -24 25 -145 423 -28 93 -30 107 -16 108 12 0 10 3 -5 9 -27 11 -30 27
-5 33 13 4 11 5 -5 6 -13 1 -23 7 -23 16 0 8 -5 15 -11 15 -6 0 -8 -12 -5 -27z"/>
<path d="M9668 3983 c6 -2 18 -2 25 0 6 3 1 5 -13 5 -14 0 -19 -2 -12 -5z"/>
<path d="M10248 3983 c7 -3 16 -2 19 1 4 3 -2 6 -13 5 -11 0 -14 -3 -6 -6z"/>
<path d="M9628 3973 c7 -3 16 -2 19 1 4 3 -2 6 -13 5 -11 0 -14 -3 -6 -6z"/>
<path d="M10288 3973 c6 -2 18 -2 25 0 6 3 1 5 -13 5 -14 0 -19 -2 -12 -5z"/>
<path d="M9578 3963 c7 -3 16 -2 19 1 4 3 -2 6 -13 5 -11 0 -14 -3 -6 -6z"/>
<path d="M9903 3963 l37 -4 1 -152 c2 -192 0 -181 27 -185 l22 -3 0 170 0 170
38 4 c20 2 -8 4 -63 4 -55 0 -83 -2 -62 -4z"/>
<path d="M10338 3963 c7 -3 16 -2 19 1 4 3 -2 6 -13 5 -11 0 -14 -3 -6 -6z"/>
<path d="M7040 3950 c0 -6 -73 -10 -200 -10 l-200 0 0 -25 0 -25 193 0 c137 0
196 -3 205 -12 9 -9 12 -2 12 35 0 26 -2 47 -5 47 -3 0 -5 -4 -5 -10z"/>
<path d="M9762 3953 c12 -3 18 -20 23 -61 4 -31 10 -75 15 -97 8 -33 9 -27 5
30 -3 39 -5 85 -5 103 0 29 -3 32 -27 31 -16 -1 -21 -3 -11 -6z"/>
<path d="M10135 3938 c-1 -13 -4 -59 -8 -103 -4 -51 -3 -73 3 -60 5 11 12 55
15 97 5 60 10 78 23 81 11 3 8 5 -8 6 -19 1 -25 -4 -25 -21z"/>
<path d="M9688 3943 c6 -2 18 -2 25 0 6 3 1 5 -13 5 -14 0 -19 -2 -12 -5z"/>
<path d="M10218 3943 c6 -2 18 -2 25 0 6 3 1 5 -13 5 -14 0 -19 -2 -12 -5z"/>
<path d="M9600 3931 c-20 -5 -21 -8 -9 -13 11 -4 22 -35 34 -97 10 -50 22 -91
27 -91 5 0 7 8 4 18 -7 22 -36 161 -36 172 0 5 8 11 18 13 11 3 12 5 2 5 -8 0
-26 -3 -40 -7z"/>
<path d="M10293 3934 c21 -7 21 -24 2 -110 -9 -36 -14 -74 -12 -83 2 -9 14 28
26 82 17 71 28 97 39 97 27 0 9 7 -33 13 -22 3 -32 3 -22 1z"/>
<path d="M10378 3913 c7 -3 16 -2 19 1 4 3 -2 6 -13 5 -11 0 -14 -3 -6 -6z"/>
<path d="M6373 3850 c0 -36 2 -50 4 -32 2 17 2 47 0 65 -2 17 -4 3 -4 -33z"/>
<path d="M9468 3893 c7 -3 16 -2 19 1 4 3 -2 6 -13 5 -11 0 -14 -3 -6 -6z"/>
<path d="M10448 3893 c7 -3 16 -2 19 1 4 3 -2 6 -13 5 -11 0 -14 -3 -6 -6z"/>
<path d="M10590 3890 c8 -5 20 -10 25 -10 6 0 3 5 -5 10 -8 5 -19 10 -25 10
-5 0 -3 -5 5 -10z"/>
<path d="M2624 3882 c-19 -12 -34 -49 -34 -82 0 -31 45 -90 69 -90 18 0 12 28
-7 34 -46 15 -53 94 -11 117 35 18 67 1 116 -61 48 -62 81 -90 108 -90 12 0
15 16 15 90 0 53 -4 90 -10 90 -6 0 -10 -32 -10 -75 0 -41 -3 -75 -7 -75 -5 0
-40 34 -78 75 -62 65 -75 75 -105 75 -19 0 -40 -4 -46 -8z"/>
<path d="M9416 3881 c-20 -7 -20 -8 0 -13 15 -4 26 -25 43 -84 13 -43 28 -83
34 -89 11 -11 11 -12 -24 112 -13 46 -26 83 -29 82 -3 0 -14 -4 -24 -8z"/>
<path d="M10484 3881 c3 -5 -8 -48 -24 -97 -34 -100 -33 -94 -22 -94 5 0 21
41 36 90 20 67 31 90 44 91 14 0 13 2 -3 9 -27 11 -37 12 -31 1z"/>
<path d="M9230 3850 c-19 -11 -30 -19 -25 -19 6 0 26 8 45 19 19 11 31 19 25
19 -5 0 -26 -8 -45 -19z"/>
<path d="M10660 3860 c8 -5 20 -10 25 -10 6 0 3 5 -5 10 -8 5 -19 10 -25 10
-5 0 -3 -5 5 -10z"/>
<path d="M7083 3790 c0 -41 2 -58 4 -37 2 20 2 54 0 75 -2 20 -4 3 -4 -38z"/>
<path d="M9310 3840 c-8 -5 -10 -10 -5 -10 6 0 17 5 25 10 8 5 11 10 5 10 -5
0 -17 -5 -25 -10z"/>
<path d="M10600 3840 c8 -5 20 -10 25 -10 6 0 3 5 -5 10 -8 5 -19 10 -25 10
-5 0 -3 -5 5 -10z"/>
<path d="M9255 3814 c-16 -8 -22 -12 -12 -9 15 4 26 -12 60 -86 23 -50 43 -87
44 -82 2 6 -12 47 -32 92 -20 45 -33 86 -30 91 8 13 6 12 -30 -6z"/>
<path d="M10647 3824 c7 -3 -2 -35 -28 -96 -22 -50 -37 -93 -35 -96 3 -2 25
37 49 89 42 89 44 110 12 108 -5 0 -5 -3 2 -5z"/>
<path d="M7030 3756 l0 -48 -42 6 c-106 14 -201 19 -195 9 4 -6 51 -14 105
-18 55 -4 104 -10 109 -13 6 -4 13 -18 15 -32 2 -14 8 10 12 53 5 43 6 81 2
84 -3 4 -6 -15 -6 -41z"/>
<path d="M9084 3774 c-18 -14 -18 -15 4 -4 12 6 22 13 22 15 0 8 -5 6 -26 -11z"/>
<path d="M9180 3780 c-9 -6 -10 -10 -3 -10 6 0 15 5 18 10 8 12 4 12 -15 0z"/>
<path d="M10820 3786 c0 -3 9 -10 20 -16 11 -6 20 -8 20 -6 0 3 -9 10 -20 16
-11 6 -20 8 -20 6z"/>
<path d="M3652 3750 c0 -19 2 -27 5 -17 2 9 2 25 0 35 -3 9 -5 1 -5 -18z"/>
<path d="M9107 3741 c-49 -29 -78 -52 -40 -32 23 12 33 -3 158 -224 16 -27 29
-51 30 -53 4 -6 35 11 35 19 0 6 -36 73 -81 150 -76 132 -79 142 -62 155 29
21 12 15 -40 -15z"/>
<path d="M10785 3755 c15 -12 17 -19 9 -33 -6 -9 -44 -75 -84 -145 -60 -104
-71 -130 -59 -138 8 -5 17 -9 20 -9 3 0 38 57 79 128 40 70 79 136 87 148 12
19 10 22 -30 43 -23 12 -33 15 -22 6z"/>
<path d="M6362 3730 c0 -19 2 -27 5 -17 2 9 2 25 0 35 -3 9 -5 1 -5 -18z"/>
<path d="M7188 3744 c-35 -18 -48 -43 -48 -89 0 -68 64 -102 176 -93 69 6 107
32 115 80 7 48 -4 74 -43 98 -41 25 -158 27 -200 4z m199 -30 c16 -10 23 -24
23 -47 0 -59 -30 -77 -128 -77 -55 0 -75 4 -96 21 -26 21 -34 60 -17 87 25 40
166 51 218 16z"/>
<path d="M8974 3705 c-44 -30 -98 -70 -119 -90 -23 -20 -9 -13 31 17 38 30 94
69 122 87 46 29 60 41 49 41 -2 0 -39 -25 -83 -55z"/>
<path d="M10870 3756 c0 -3 9 -10 20 -16 11 -6 20 -8 20 -6 0 3 -9 10 -20 16
-11 6 -20 8 -20 6z"/>
<path d="M3115 3725 c-60 -7 -113 -10 -117 -8 -5 2 -8 -13 -7 -34 1 -32 2 -34
8 -13 6 24 12 26 114 36 96 10 129 18 116 27 -2 2 -53 -2 -114 -8z"/>
<path d="M2942 3695 c0 -16 2 -22 5 -12 2 9 2 23 0 30 -3 6 -5 -1 -5 -18z"/>
<path d="M3661 3684 c0 -11 3 -14 6 -6 3 7 2 16 -1 19 -3 4 -6 -2 -5 -13z"/>
<path d="M7072 3670 c0 -19 2 -27 5 -17 2 9 2 25 0 35 -3 9 -5 1 -5 -18z"/>
<path d="M6352 3670 c0 -14 2 -19 5 -12 2 6 2 18 0 25 -3 6 -5 1 -5 -13z"/>
<path d="M10980 3687 c0 -3 17 -17 37 -33 20 -15 33 -23 29 -16 -8 13 -66 56
-66 49z"/>
<path d="M8944 3633 c-17 -16 -22 -22 -13 -15 16 12 24 6 75 -65 31 -43 59
-80 61 -82 1 -2 6 -2 9 2 3 3 -20 40 -51 82 -31 43 -54 83 -51 91 7 19 5 18
-30 -13z"/>
<path d="M10957 3650 c9 -12 0 -30 -43 -89 -47 -64 -62 -91 -51 -91 2 0 30 36
62 80 46 65 60 78 71 69 8 -6 14 -9 14 -6 0 3 -15 16 -32 28 -18 13 -28 17
-21 9z"/>
<path d="M3671 3634 c0 -11 3 -14 6 -6 3 7 2 16 -1 19 -3 4 -6 -2 -5 -13z"/>
<path d="M2952 3610 c0 -14 2 -19 5 -12 2 6 2 18 0 25 -3 6 -5 1 -5 -13z"/>
<path d="M3002 3605 c0 -16 2 -22 5 -12 2 9 2 23 0 30 -3 6 -5 -1 -5 -18z"/>
<path d="M6341 3614 c0 -11 3 -14 6 -6 3 7 2 16 -1 19 -3 4 -6 -2 -5 -13z"/>
<path d="M11187 3505 c72 -71 159 -168 193 -215 67 -92 85 -113 55 -65 -59 97
-226 282 -330 369 -27 22 9 -17 82 -89z"/>
<path d="M7012 3595 c0 -16 2 -22 5 -12 2 9 2 23 0 30 -3 6 -5 -1 -5 -18z"/>
<path d="M7062 3595 c0 -16 2 -22 5 -12 2 9 2 23 0 30 -3 6 -5 -1 -5 -18z"/>
<path d="M3682 3590 c0 -14 2 -19 5 -12 2 6 2 18 0 25 -3 6 -5 1 -5 -13z"/>
<path d="M8874 3578 l-19 -23 23 19 c12 11 22 21 22 23 0 8 -8 2 -26 -19z"/>
<path d="M11045 3580 c10 -11 20 -20 23 -20 3 0 -3 9 -13 20 -10 11 -20 20
-23 20 -3 0 3 -9 13 -20z"/>
<path d="M6331 3574 c0 -11 3 -14 6 -6 3 7 2 16 -1 19 -3 4 -6 -2 -5 -13z"/>
<path d="M2962 3555 c0 -16 2 -22 5 -12 2 9 2 23 0 30 -3 6 -5 -1 -5 -18z"/>
<path d="M8714 3487 l-89 -92 90 85 c49 47 91 86 94 88 2 1 2 4 0 7 -3 2 -45
-37 -95 -88z"/>
<path d="M3011 3560 c0 -8 2 -31 5 -51 6 -35 7 -36 33 -24 14 7 68 20 119 30
50 10 92 21 92 26 0 12 -11 11 -128 -15 l-102 -23 -6 26 c-9 39 -12 48 -13 31z"/>
<path d="M3691 3550 c0 -8 4 -24 9 -35 5 -13 9 -14 9 -5 0 8 -4 24 -9 35 -5
13 -9 14 -9 5z"/>
<path d="M7001 3539 c0 -14 -3 -28 -7 -31 -3 -3 -55 5 -116 18 -99 22 -132 24
-117 9 3 -2 54 -15 114 -28 l110 -23 -2 -35 c-1 -26 2 -21 13 21 7 30 12 64
10 75 -2 15 -4 13 -5 -6z"/>
<path d="M8750 3463 c-52 -53 -88 -92 -80 -85 13 9 29 -1 88 -55 40 -36 75
-63 78 -60 5 5 -60 70 -116 115 l-25 21 58 58 58 58 69 -75 c38 -41 70 -70 70
-64 0 6 -28 41 -62 79 -54 58 -60 69 -50 86 7 10 11 19 9 19 -1 0 -45 -44 -97
-97z"/>
<path d="M11093 3542 c15 -16 12 -22 -50 -90 -36 -40 -63 -75 -60 -78 2 -3 34
28 71 67 l65 73 23 -19 c13 -11 5 0 -17 23 -21 23 -41 42 -44 42 -2 0 3 -8 12
-18z"/>
<path d="M6302 3483 c-12 -37 -20 -69 -18 -71 2 -2 14 27 26 63 12 36 20 68
18 70 -2 3 -14 -26 -26 -62z"/>
<path d="M7052 3530 c0 -14 2 -19 5 -12 2 6 2 18 0 25 -3 6 -5 1 -5 -13z"/>
<path d="M2972 3500 c0 -14 2 -19 5 -12 2 6 2 18 0 25 -3 6 -5 1 -5 -13z"/>
<path d="M7027 3428 c-10 -39 -16 -73 -13 -75 2 -2 11 28 21 67 10 39 15 73
13 75 -2 3 -12 -27 -21 -67z"/>
<path d="M2982 3455 c0 -21 25 -107 27 -90 0 6 -6 33 -13 60 -8 28 -14 41 -14
30z"/>
<path d="M11170 3466 c0 -2 7 -9 15 -16 9 -7 15 -8 15 -2 0 5 -7 12 -15 16 -8
3 -15 4 -15 2z"/>
<path d="M3031 3450 c0 -8 4 -24 9 -35 5 -13 9 -14 9 -5 0 8 -4 24 -9 35 -5
13 -9 14 -9 5z"/>
<path d="M3721 3458 c-1 -12 31 -89 35 -85 3 2 -4 24 -15 48 -11 24 -20 41
-20 37z"/>
<path d="M6966 3384 c-4 -14 -5 -28 -3 -31 3 -2 8 8 11 23 4 14 5 28 3 31 -3
2 -8 -8 -11 -23z"/>
<path d="M11160 3333 c-90 -88 -82 -97 12 -13 36 33 70 60 74 60 5 0 26 -19
47 -42 38 -42 38 -42 -3 9 -23 29 -45 54 -48 55 -4 2 -41 -30 -82 -69z"/>
<path d="M6257 3365 c-24 -50 -20 -58 4 -12 11 22 19 41 17 43 -3 2 -12 -12
-21 -31z"/>
<path d="M9818 3393 c6 -2 18 -2 25 0 6 3 1 5 -13 5 -14 0 -19 -2 -12 -5z"/>
<path d="M10088 3393 c6 -2 18 -2 25 0 6 3 1 5 -13 5 -14 0 -19 -2 -12 -5z"/>
<path d="M3051 3374 c0 -11 3 -14 6 -6 3 7 2 16 -1 19 -3 4 -6 -2 -5 -13z"/>
<path d="M8599 3363 l-24 -28 28 24 c15 14 27 26 27 28 0 8 -8 1 -31 -24z"/>
<path d="M9748 3383 c6 -2 18 -2 25 0 6 3 1 5 -13 5 -14 0 -19 -2 -12 -5z"/>
<path d="M10168 3383 c7 -3 16 -2 19 1 4 3 -2 6 -13 5 -11 0 -14 -3 -6 -6z"/>
<path d="M3191 3334 c-107 -35 -119 -34 -122 6 0 8 -3 10 -5 4 -11 -26 140
-386 188 -448 14 -17 23 -13 184 79 93 54 171 99 172 101 7 5 -9 44 -19 44 -5
0 -83 -43 -173 -95 -91 -52 -167 -95 -170 -95 -7 0 -76 135 -76 148 0 5 45 28
101 52 93 40 125 60 100 60 -6 0 -56 -20 -111 -44 -97 -43 -100 -44 -111 -25
-25 47 -59 153 -52 160 4 4 54 22 111 39 56 17 102 36 102 41 0 12 1 12 -119
-27z"/>
<path d="M6715 3360 c-3 -5 43 -25 102 -44 104 -34 108 -36 106 -63 l-1 -28
13 31 c8 17 17 44 20 60 5 26 4 26 -4 7 -6 -13 -14 -23 -19 -23 -4 0 -54 15
-110 34 -56 19 -104 31 -107 26z"/>
<path d="M3760 3356 c0 -11 62 -127 66 -123 2 2 -12 32 -31 68 -19 35 -35 60
-35 55z"/>
<path d="M3012 3340 c0 -8 6 -31 13 -50 7 -19 13 -28 13 -20 0 8 -6 31 -13 50
-7 19 -13 28 -13 20z"/>
<path d="M8624 3328 l-19 -23 23 19 c12 11 22 21 22 23 0 8 -8 2 -26 -19z"/>
<path d="M6996 3314 c-4 -14 -5 -28 -3 -31 3 -2 8 8 11 23 4 14 5 28 3 31 -3
2 -8 -8 -11 -23z"/>
<path d="M8054 3328 c-28 -13 -50 -58 -29 -58 8 0 15 4 15 9 0 17 31 41 53 41
29 0 43 -10 52 -38 6 -20 -4 -34 -64 -91 -95 -90 -94 -101 9 -101 47 0 80 4
80 10 0 6 -28 10 -65 10 -36 0 -65 3 -65 8 0 4 29 34 65 68 72 67 79 90 40
129 -25 26 -56 31 -91 13z"/>
<path d="M8263 3328 c-30 -15 -45 -57 -44 -125 0 -74 23 -107 75 -111 47 -4
72 17 87 70 30 113 -36 206 -118 166z m81 -30 c24 -37 26 -142 4 -170 -24 -30
-56 -31 -83 -4 -21 22 -25 34 -25 88 0 77 18 108 60 108 20 0 34 -8 44 -22z"/>
<path d="M11560 3327 l-25 -11 28 -4 27 -3 0 -100 c0 -92 -1 -99 -20 -99 -11
0 -20 -4 -20 -10 0 -5 23 -10 50 -10 28 0 50 5 50 10 0 6 -9 10 -20 10 -19 0
-20 7 -20 115 0 123 -1 125 -50 102z"/>
<path d="M11755 3316 c-43 -43 -45 -160 -4 -205 25 -27 78 -28 110 -2 19 15
24 30 27 85 5 77 -9 119 -44 135 -38 17 -63 13 -89 -13z m100 -26 c17 -33 20
-122 5 -150 -16 -30 -45 -41 -74 -30 -46 17 -59 147 -18 193 25 28 69 22 87
-13z"/>
<path d="M11973 3325 c-47 -33 -54 -156 -12 -209 29 -37 89 -37 118 0 26 33
29 139 6 183 -21 41 -73 53 -112 26z m91 -27 c11 -15 16 -45 16 -86 0 -54 -4
-66 -25 -88 -27 -27 -59 -26 -82 4 -23 28 -21 133 3 170 19 30 67 30 88 0z"/>
<path d="M8563 3318 c-43 -57 -66 -91 -58 -86 12 7 78 98 72 98 -3 0 -9 -6
-14 -12z"/>
<path d="M9500 3310 c-8 -5 -10 -10 -5 -10 6 0 17 5 25 10 8 5 11 10 5 10 -5
0 -17 -5 -25 -10z"/>
<path d="M8589 3283 c-13 -16 -12 -17 4 -4 16 13 21 21 13 21 -2 0 -10 -8 -17
-17z"/>
<path d="M11339 3276 c10 -12 -1 -25 -66 -72 -43 -32 -80 -59 -82 -61 -2 -1
-2 -6 1 -9 4 -3 41 20 83 51 45 34 82 54 91 51 11 -4 9 3 -6 24 -12 17 -24 30
-27 30 -3 0 0 -6 6 -14z"/>
<path d="M6200 3250 c-6 -11 -8 -20 -6 -20 3 0 10 9 16 20 6 11 8 20 6 20 -3
0 -10 -9 -16 -20z"/>
<path d="M9394 3254 c-18 -14 -18 -15 4 -4 12 6 22 13 22 15 0 8 -5 6 -26 -11z"/>
<path d="M8560 3243 c-12 -15 -12 -16 0 -6 11 10 20 8 44 -10 100 -74 136 -98
136 -89 0 9 -130 109 -155 118 -6 3 -18 -3 -25 -13z"/>
<path d="M10530 3256 c0 -3 9 -10 20 -16 11 -6 20 -8 20 -6 0 3 -9 10 -20 16
-11 6 -20 8 -20 6z"/>
<path d="M3040 3246 c0 -13 62 -167 66 -164 2 2 -10 40 -27 84 -30 76 -39 95
-39 80z"/>
<path d="M6937 3147 c-49 -120 -51 -127 -33 -97 19 31 78 181 74 186 -2 2 -21
-38 -41 -89z"/>
<path d="M10580 3227 c0 -3 12 -12 26 -22 15 -9 23 -12 20 -6 -7 11 -46 35
-46 28z"/>
<path d="M7036 3164 c-28 -60 -26 -84 2 -47 l17 21 119 -55 c95 -45 120 -53
127 -42 12 19 11 69 -1 69 -5 0 -10 -7 -10 -15 0 -30 -28 -25 -125 20 -55 25
-101 47 -103 50 -2 2 1 12 7 24 7 12 7 22 2 25 -5 4 -21 -19 -35 -50z"/>
<path d="M8484 3208 c-4 -7 -14 -24 -22 -38 -14 -24 -13 -24 3 -5 20 24 37 55
31 55 -3 0 -8 -6 -12 -12z"/>
<path d="M11395 3196 c10 -14 19 -26 22 -26 7 0 -17 39 -28 46 -6 3 -3 -5 6
-20z"/>
<path d="M6650 3181 c0 -5 45 -28 100 -52 63 -27 100 -49 100 -59 1 -8 10 2
21 23 11 22 18 41 15 45 -3 3 -6 1 -6 -4 -1 -35 -19 -33 -120 11 -114 50 -110
49 -110 36z"/>
<path d="M6896 3175 c-9 -26 -7 -32 5 -12 6 10 9 21 6 23 -2 3 -7 -2 -11 -11z"/>
<path d="M9269 3173 c-13 -16 -12 -17 4 -4 9 7 17 15 17 17 0 8 -8 3 -21 -13z"/>
<path d="M11471 3155 c12 -22 26 -44 32 -50 15 -16 -20 48 -38 70 -9 11 -7 2
6 -20z"/>
<path d="M10670 3168 c0 -2 39 -39 88 -83 48 -43 69 -59 47 -36 -40 42 -135
126 -135 119z"/>
<path d="M9175 3094 l-70 -66 73 63 c64 55 78 69 70 69 -2 0 -34 -30 -73 -66z"/>
<path d="M8478 3118 c-8 -13 -20 -34 -27 -48 -11 -23 -11 -23 3 -6 18 22 2 28
170 -68 110 -63 140 -76 147 -65 5 8 9 17 9 20 0 4 -65 44 -145 89 -79 46
-142 87 -139 91 12 20 -5 7 -18 -13z"/>
<path d="M11305 3043 c-77 -45 -144 -84 -148 -85 -10 -4 2 -38 14 -38 5 0 72
36 149 81 76 44 144 77 151 74 11 -7 2 14 -18 40 -5 7 -58 -19 -148 -72z"/>
<path d="M6420 3099 c-7 -11 -10 -22 -8 -23 13 -12 338 -196 345 -196 10 0 97
159 91 166 -3 2 -15 -19 -28 -46 -13 -28 -30 -55 -37 -61 -9 -8 -54 13 -179
85 -91 53 -167 96 -169 96 -3 0 -9 -9 -15 -21z"/>
<path d="M8420 3100 c-6 -11 -8 -20 -6 -20 3 0 10 9 16 20 6 11 8 20 6 20 -3
0 -10 -9 -16 -20z"/>
<path d="M3110 3066 c0 -11 88 -179 105 -202 9 -10 -10 31 -41 91 -61 118 -64
122 -64 111z"/>
<path d="M11536 3037 c3 -10 9 -15 12 -12 3 3 0 11 -7 18 -10 9 -11 8 -5 -6z"/>
<path d="M9074 2988 l-29 -33 33 29 c17 17 32 31 32 33 0 8 -8 1 -36 -29z"/>
<path d="M11556 2997 c3 -10 9 -15 12 -12 3 3 0 11 -7 18 -10 9 -11 8 -5 -6z"/>
<path d="M6847 2949 c-16 -27 -26 -49 -23 -49 7 0 59 90 54 95 -2 2 -16 -18
-31 -46z"/>
<path d="M8401 2974 c-7 -15 -8 -30 -4 -34 15 -14 176 -81 181 -75 5 4 -93 52
-155 76 -20 8 -22 12 -13 30 7 11 10 23 7 25 -2 2 -9 -8 -16 -22z"/>
<path d="M10855 2980 c10 -11 20 -20 23 -20 3 0 -3 9 -13 20 -10 11 -20 20
-23 20 -3 0 3 -9 13 -20z"/>
<path d="M6947 2972 c-39 -42 -41 -110 -4 -140 69 -57 171 -2 155 83 -6 30 -5
30 29 8 52 -34 60 -91 21 -145 -19 -27 2 -36 23 -10 48 60 29 131 -49 186 -55
39 -147 49 -175 18z m113 -22 c26 -26 25 -68 -2 -97 -27 -29 -57 -29 -92 -2
-50 40 -21 119 44 119 17 0 39 -9 50 -20z"/>
<path d="M8346 2955 c-9 -26 -7 -32 5 -12 6 10 9 21 6 23 -2 3 -7 -2 -11 -11z"/>
<path d="M11495 2935 c-22 -11 -65 -31 -95 -44 -30 -13 -50 -26 -44 -28 6 -2
46 12 90 32 43 20 84 33 91 31 14 -6 17 3 5 19 -4 6 -22 3 -47 -10z"/>
<path d="M9029 2933 c-13 -16 -12 -17 4 -4 16 13 21 21 13 21 -2 0 -10 -8 -17
-17z"/>
<path d="M10916 2900 c46 -67 64 -87 38 -42 -10 19 -32 48 -47 65 -20 23 -18
17 9 -23z"/>
<path d="M11580 2945 c0 -5 5 -17 10 -25 5 -8 10 -10 10 -5 0 6 -5 17 -10 25
-5 8 -10 11 -10 5z"/>
<path d="M8366 2895 c-9 -26 -7 -32 5 -12 6 10 9 21 6 23 -2 3 -7 -2 -11 -11z"/>
<path d="M3015 2875 c-58 -28 -74 -40 -98 -75 -24 -35 -21 -74 9 -109 21 -25
33 -31 65 -31 47 0 111 30 157 73 43 41 45 101 6 141 -34 33 -73 34 -139 1z
m119 -16 c56 -44 25 -107 -77 -154 -65 -31 -82 -31 -112 0 -48 47 -22 95 77
144 73 37 78 37 112 10z"/>
<path d="M11600 2895 c0 -5 5 -17 10 -25 5 -8 10 -10 10 -5 0 6 -5 17 -10 25
-5 8 -10 11 -10 5z"/>
<path d="M8301 2839 c-6 -18 -9 -34 -7 -36 2 -2 9 10 15 28 6 18 9 34 7 36 -2
2 -9 -10 -15 -28z"/>
<path d="M8955 2820 c-9 -16 -13 -30 -11 -30 3 0 12 14 21 30 9 17 13 30 11
30 -3 0 -12 -13 -21 -30z"/>
<path d="M8331 2798 c0 -9 -4 -25 -7 -35 -4 -12 -3 -14 3 -5 7 9 29 5 98 -18
101 -34 95 -33 95 -22 0 5 -40 21 -89 36 -62 18 -91 32 -94 44 -4 15 -5 15 -6
0z"/>
<path d="M11591 2798 c-1 -12 -25 -24 -83 -43 -46 -15 -87 -31 -92 -36 -17
-15 6 -10 96 20 48 16 89 27 92 23 8 -8 6 9 -4 33 -7 16 -9 17 -9 3z"/>
<path d="M11001 2760 c14 -31 19 -36 19 -24 0 6 -7 19 -16 30 -14 18 -14 18
-3 -6z"/>
<path d="M6857 2759 c-21 -12 -47 -61 -47 -88 0 -53 116 -131 197 -131 34 0
46 5 67 31 51 60 27 122 -65 168 -63 32 -119 39 -152 20z m145 -45 c81 -41
100 -103 44 -139 -32 -21 -77 -12 -145 26 -57 33 -76 65 -61 103 19 52 73 55
162 10z"/>
<path d="M11661 2714 c0 -11 3 -14 6 -6 3 7 2 16 -1 19 -3 4 -6 -2 -5 -13z"/>
<path d="M11621 2704 c0 -11 3 -14 6 -6 3 7 2 16 -1 19 -3 4 -6 -2 -5 -13z"/>
<path d="M8301 2694 c0 -11 3 -14 6 -6 3 7 2 16 -1 19 -3 4 -6 -2 -5 -13z"/>
<path d="M11030 2695 c0 -5 5 -17 10 -25 5 -8 10 -10 10 -5 0 6 -5 17 -10 25
-5 8 -10 11 -10 5z"/>
<path d="M11631 2664 c0 -11 3 -14 6 -6 3 7 2 16 -1 19 -3 4 -6 -2 -5 -13z"/>
<path d="M8241 2624 c0 -11 3 -14 6 -6 3 7 2 16 -1 19 -3 4 -6 -2 -5 -13z"/>
<path d="M8280 2615 c0 -18 13 -23 95 -39 53 -10 98 -16 102 -13 6 6 -6 10
-111 31 -38 8 -72 20 -77 28 -7 10 -9 8 -9 -7z"/>
<path d="M11638 2619 c-4 -9 -24 -19 -47 -23 -83 -13 -141 -28 -141 -36 0 -4
39 1 87 11 106 23 113 23 113 2 0 -9 3 -14 6 -11 3 3 1 21 -3 39 -7 23 -11 29
-15 18z"/>
<path d="M8231 2574 c0 -11 3 -14 6 -6 3 7 2 16 -1 19 -3 4 -6 -2 -5 -13z"/>
<path d="M8271 2564 c0 -11 3 -14 6 -6 3 7 2 16 -1 19 -3 4 -6 -2 -5 -13z"/>
<path d="M11702 2530 c0 -14 2 -19 5 -12 2 6 2 18 0 25 -3 6 -5 1 -5 -13z"/>
<path d="M8221 2524 c0 -11 3 -14 6 -6 3 7 2 16 -1 19 -3 4 -6 -2 -5 -13z"/>
<path d="M8262 2510 c0 -14 2 -19 5 -12 2 6 2 18 0 25 -3 6 -5 1 -5 -13z"/>
<path d="M8212 2455 c0 -16 2 -22 5 -12 2 9 2 23 0 30 -3 6 -5 -1 -5 -18z"/>
<path d="M11670 2456 c0 -23 -5 -25 -67 -31 -117 -11 -150 -25 -43 -18 52 3
101 6 108 6 7 0 12 14 12 34 0 18 -2 33 -5 33 -3 0 -5 -11 -5 -24z"/>
<path d="M11712 2455 c0 -16 2 -22 5 -12 2 9 2 23 0 30 -3 6 -5 -1 -5 -18z"/>
<path d="M8821 2444 c0 -11 3 -14 6 -6 3 7 2 16 -1 19 -3 4 -6 -2 -5 -13z"/>
<path d="M11101 2444 c0 -11 3 -14 6 -6 3 7 2 16 -1 19 -3 4 -6 -2 -5 -13z"/>
<path d="M8250 2425 c0 -17 4 -25 8 -18 5 8 28 9 82 3 99 -12 130 -12 110 -1
-8 5 -53 12 -100 16 -47 4 -88 12 -92 18 -4 7 -8 -1 -8 -18z"/>
<path d="M8812 2375 c0 -16 2 -22 5 -12 2 9 2 23 0 30 -3 6 -5 -1 -5 -18z"/>
<path d="M11680 2325 l0 -55 -164 0 c-155 0 -164 -1 -169 -20 -5 -19 0 -20
169 -20 l174 0 0 75 c0 41 -2 75 -5 75 -3 0 -5 -25 -5 -55z"/>
<path d="M11723 2315 c0 -38 2 -53 4 -32 2 20 2 52 0 70 -2 17 -4 1 -4 -38z"/>
<path d="M8203 2300 c0 -41 2 -58 4 -37 2 20 2 54 0 75 -2 20 -4 3 -4 -38z"/>
<path d="M7981 2334 c-42 -53 -35 -176 12 -209 47 -33 108 -8 123 50 3 14 4
53 2 87 -4 48 -9 65 -27 79 -34 28 -85 25 -110 -7z m103 -16 c10 -14 16 -44
16 -83 0 -73 -18 -105 -60 -105 -42 0 -63 37 -63 111 0 43 5 64 18 79 24 27
70 26 89 -2z"/>
<path d="M11808 2353 c-25 -6 -22 -25 3 -21 19 3 21 -2 23 -99 2 -102 1 -103
-22 -103 -13 0 -20 -4 -17 -10 3 -5 28 -10 56 -10 27 0 49 5 49 10 0 6 -9 10
-20 10 -19 0 -20 7 -20 115 0 123 1 122 -52 108z"/>
<path d="M12002 2337 c-23 -25 -29 -47 -12 -47 6 0 10 4 10 9 0 19 32 41 59
41 58 0 69 -53 19 -97 -79 -69 -110 -103 -106 -115 6 -16 158 -24 158 -8 0 6
-27 10 -65 10 -36 0 -65 3 -65 8 0 4 29 34 65 68 49 45 65 67 65 87 0 62 -84
91 -128 44z"/>
<path d="M12222 2353 c-54 -22 -56 -204 -2 -233 34 -18 75 -11 101 16 21 22
24 35 24 99 0 64 -3 77 -24 99 -24 25 -65 33 -99 19z m94 -48 c7 -19 14 -50
14 -70 0 -20 -7 -51 -14 -70 -13 -31 -19 -35 -50 -35 -29 0 -38 5 -51 30 -8
16 -15 50 -15 75 0 25 7 59 15 75 13 25 22 30 51 30 31 0 37 -4 50 -35z"/>
<path d="M8241 2278 l-1 -48 175 0 c168 0 175 1 175 20 0 19 -7 20 -169 20
l-170 0 -4 28 c-2 16 -5 9 -6 -20z"/>
<path d="M11122 2255 c0 -16 2 -22 5 -12 2 9 2 23 0 30 -3 6 -5 -1 -5 -18z"/>
</g>
</svg>
