<?xml version="1.0" standalone="no"?>
<!DOCTYPE svg PUBLIC "-//W3C//DTD SVG 20010904//EN"
 "http://www.w3.org/TR/2001/REC-SVG-20010904/DTD/svg10.dtd">
<svg version="1.0" xmlns="http://www.w3.org/2000/svg"
 width="1000.000000pt" height="842.000000pt" viewBox="0 0 1000.000000 842.000000"
 preserveAspectRatio="xMidYMid meet">

<g transform="translate(0.000000,842.000000) scale(0.100000,-0.100000)"
fill="#000000" stroke="none">
<path d="M6610 7081 c-80 -26 -151 -92 -171 -160 l-12 -41 -474 0 -473 0 0
-275 0 -275 -585 0 -585 0 0 129 0 129 32 11 c116 41 183 181 147 308 -17 62
-96 143 -155 161 -217 64 -405 -150 -305 -346 23 -46 84 -102 129 -121 l32
-13 0 -129 0 -129 -148 0 -149 0 -12 41 c-8 26 -31 60 -61 90 -159 159 -420
51 -420 -174 0 -150 110 -254 261 -245 89 5 151 42 196 118 l33 55 150 -3 150
-3 0 -155 0 -154 -335 0 -335 0 0 -300 0 -300 -565 0 -565 0 0 55 c0 44 3 55
16 55 29 0 113 52 139 86 102 133 51 325 -102 389 -42 18 -121 19 -174 3 -51
-15 -114 -69 -142 -122 -30 -57 -30 -164 0 -222 24 -45 89 -108 122 -119 21
-6 21 -8 21 -410 l0 -403 -24 -6 c-14 -3 -45 -26 -70 -52 -70 -69 -92 -165
-61 -255 21 -59 58 -104 110 -135 l45 -26 0 -139 0 -139 -274 0 -275 0 6 -483
6 -483 -49 -25 c-90 -46 -141 -143 -131 -245 14 -139 129 -234 268 -221 148
13 252 149 222 292 -18 83 -61 138 -138 176 l-65 32 0 282 c0 155 3 343 7 418
l6 137 154 0 153 0 0 -615 0 -615 300 0 300 0 0 -135 0 -134 132 -3 132 -3 8
-34 c14 -51 102 -134 160 -150 147 -41 290 44 319 190 34 170 -122 326 -291
291 -74 -16 -128 -56 -169 -125 l-34 -58 -66 3 -66 3 -3 137 -3 138 -299 0
-300 0 0 555 0 555 55 0 55 0 2 196 3 196 38 13 c56 19 105 61 135 116 l27 49
342 0 342 0 -29 -62 c-48 -103 -70 -206 -70 -332 0 -133 15 -200 71 -314 122
-249 392 -402 762 -434 l137 -11 0 -427 0 -426 -36 -13 c-90 -33 -157 -131
-157 -231 0 -166 158 -285 319 -240 60 17 137 87 160 145 l17 45 573 0 574 0
0 194 0 194 163 7 c89 3 331 5 537 3 l375 -3 3 -425 2 -425 -45 -18 c-49 -21
-110 -82 -131 -133 -19 -44 -18 -146 2 -192 19 -47 68 -98 119 -125 30 -16 58
-21 110 -21 80 0 129 20 182 76 43 45 65 101 65 168 0 100 -50 178 -144 226
l-48 24 0 480 0 480 -527 1 c-425 1 -684 1 -775 -1 -4 0 -9 -88 -10 -195 l-3
-195 -514 0 -515 0 -12 29 c-19 44 -79 106 -124 126 l-40 18 0 428 0 428 813
4 c891 4 856 2 1025 67 203 78 364 218 452 392 105 210 92 441 -36 626 l-43
62 487 0 487 0 42 -49 c26 -30 60 -56 87 -67 l46 -19 0 -217 0 -218 275 0 275
0 0 -150 0 -150 -665 0 -665 0 0 -220 0 -220 -330 0 -330 0 0 -180 0 -180 60
0 60 0 0 120 0 120 330 0 330 0 0 220 0 220 605 0 605 0 0 -198 0 -198 -32
-12 c-127 -46 -194 -207 -137 -332 88 -196 359 -199 454 -5 31 64 27 157 -10
223 -28 52 -84 101 -132 116 l-23 7 0 470 0 469 -275 0 -275 0 0 158 0 159 40
18 c51 23 114 90 130 141 19 54 17 123 -4 177 -19 50 -90 122 -137 139 l-29
10 0 383 0 383 34 12 c91 30 160 132 159 234 -3 153 -111 253 -263 244 -130
-7 -220 -96 -228 -224 -7 -111 37 -193 129 -240 l49 -24 0 -145 0 -145 -435 0
-435 0 0 330 0 330 -300 0 -300 0 0 480 0 480 139 0 139 0 12 -30 c32 -78 134
-140 229 -140 88 0 191 70 225 152 20 46 21 148 2 192 -20 47 -73 104 -119
128 -44 22 -137 32 -177 19z m151 -147 c42 -40 54 -92 33 -143 -41 -104 -190
-109 -237 -8 -22 45 -21 62 3 113 38 78 139 97 201 38z m-2441 10 c83 -50 78
-184 -9 -229 -109 -56 -232 66 -176 175 34 66 120 92 185 54z m1720 -724 l0
-540 300 0 300 0 0 -330 0 -330 495 0 495 0 0 -177 0 -178 -45 -18 c-73 -30
-145 -125 -145 -192 l0 -25 -567 2 -568 3 -6 125 c-4 72 -14 148 -24 180 -63
202 -217 384 -416 494 -230 126 -522 152 -764 67 -32 -12 -61 -21 -62 -21 -2
0 -3 209 -3 465 l0 465 285 0 285 0 0 275 0 275 220 0 220 0 0 -540z m-2340
185 c125 -64 86 -245 -53 -245 -135 0 -182 161 -68 237 39 27 80 29 121 8z
m1210 -693 l0 -499 -61 -47 -61 -48 -81 35 c-122 53 -189 68 -323 74 -148 7
-242 -11 -359 -67 -185 -89 -314 -252 -366 -463 -34 -135 -27 -126 -100 -151
-65 -23 -142 -69 -168 -100 -12 -14 -60 -16 -401 -16 l-388 0 -26 55 c-31 62
-82 109 -141 128 l-40 14 -3 276 -2 277 625 0 625 0 0 300 0 300 333 2 332 3
0 213 0 212 303 0 302 0 0 -498z m2860 69 c63 -44 74 -131 24 -190 -48 -57
-126 -63 -184 -14 -71 59 -53 174 32 213 48 22 88 19 128 -9z m-5373 -6 c12
-3 36 -22 52 -41 37 -42 42 -101 12 -150 -20 -32 -74 -64 -111 -64 -38 0 -89
31 -111 67 -43 69 -3 170 76 192 30 9 40 8 82 -4z m3191 -565 c292 -70 525
-289 583 -548 12 -53 14 -186 4 -253 l-6 -44 46 -19 c121 -49 238 -174 275
-293 96 -310 -133 -635 -525 -745 -80 -22 -83 -23 -970 -26 -953 -3 -1051 0
-1201 44 -227 65 -403 212 -465 389 -45 130 -43 288 8 428 66 183 185 289 350
312 58 8 56 4 68 120 21 198 142 383 303 468 102 54 183 70 322 64 136 -5 234
-33 351 -100 l76 -43 65 62 c101 95 223 161 353 189 94 21 265 18 363 -5z
m2167 -680 c35 -21 65 -73 65 -110 0 -38 -31 -89 -67 -111 -70 -43 -166 -5
-194 78 -15 45 2 93 47 133 42 37 99 41 149 10z m-5338 -40 c45 -27 66 -73 60
-128 -13 -120 -174 -153 -237 -49 -52 85 10 197 110 197 19 0 49 -9 67 -20z
m5894 -1703 c22 -15 39 -38 49 -65 13 -37 13 -47 0 -84 -21 -61 -69 -91 -134
-85 -41 4 -55 11 -83 41 -28 30 -33 43 -33 85 0 107 113 168 201 108z m-6450
-22 c39 -21 69 -71 69 -115 0 -74 -61 -130 -141 -130 -35 0 -48 6 -80 39 -33
32 -39 45 -39 80 0 107 100 172 191 126z m1482 -371 c55 -40 72 -115 37 -171
-50 -83 -176 -84 -224 -3 -21 36 -21 109 0 139 43 61 130 77 187 35z m948
-240 c16 -15 34 -45 41 -65 9 -32 8 -44 -10 -81 -12 -24 -35 -51 -51 -61 -38
-22 -98 -22 -137 2 -31 19 -64 74 -64 107 0 31 39 98 67 117 42 27 115 18 154
-19z m2510 -731 c40 -24 73 -93 64 -135 -14 -65 -66 -108 -128 -108 -53 0 -94
27 -119 78 -18 38 -19 49 -9 82 16 55 71 100 122 100 23 0 54 -8 70 -17z"/>
<path d="M4530 3775 l0 -45 60 0 60 0 0 45 0 45 -60 0 -60 0 0 -45z"/>
<path d="M4760 3775 l0 -45 60 0 60 0 0 45 0 45 -60 0 -60 0 0 -45z"/>
<path d="M4990 3775 l0 -45 60 0 60 0 0 45 0 45 -60 0 -60 0 0 -45z"/>
<path d="M5220 3775 l0 -45 60 0 60 0 0 45 0 45 -60 0 -60 0 0 -45z"/>
<path d="M5450 3775 l0 -45 60 0 60 0 0 45 0 45 -60 0 -60 0 0 -45z"/>
</g>
</svg>
