<?xml version="1.0" standalone="no"?>
<!DOCTYPE svg PUBLIC "-//W3C//DTD SVG 20010904//EN"
 "http://www.w3.org/TR/2001/REC-SVG-20010904/DTD/svg10.dtd">
<svg version="1.0" xmlns="http://www.w3.org/2000/svg"
 width="659.000000pt" height="628.000000pt" viewBox="0 0 659.000000 628.000000"
 preserveAspectRatio="xMidYMid meet">

<g transform="translate(0.000000,628.000000) scale(0.100000,-0.100000)"
fill="#000000" stroke="none">
<path d="M2405 5764 c-94 -15 -200 -40 -275 -66 -429 -151 -746 -507 -852
-958 -14 -62 -21 -136 -25 -276 l-6 -192 -66 -16 c-245 -60 -414 -263 -428
-516 -6 -111 9 -186 60 -289 43 -88 150 -197 238 -240 118 -58 141 -61 515
-61 318 0 342 1 357 18 22 24 21 65 -1 85 -16 15 -53 17 -313 17 -162 0 -322
5 -357 10 -142 20 -268 113 -333 245 -33 67 -34 74 -34 185 0 110 2 118 34
185 67 137 189 223 351 247 74 11 86 16 97 38 9 18 13 83 13 218 0 156 4 214
21 295 97 480 478 849 964 934 135 23 358 14 490 -21 303 -81 568 -281 725
-548 91 -154 92 -154 204 -78 88 60 177 102 283 132 67 20 101 23 243 23 142
0 176 -3 243 -23 159 -46 285 -119 406 -236 168 -163 281 -408 281 -613 0 -94
11 -106 110 -121 162 -24 284 -110 351 -247 32 -67 34 -75 34 -185 0 -111 -1
-118 -34 -185 -65 -132 -191 -225 -333 -245 -35 -5 -196 -10 -359 -10 -274 0
-297 -1 -312 -18 -22 -24 -21 -65 1 -85 17 -15 56 -17 358 -17 372 0 395 3
513 61 88 43 195 152 238 240 51 103 66 178 60 289 -14 252 -183 456 -428 516
l-66 16 -12 85 c-16 114 -53 229 -109 337 -284 554 -974 743 -1509 415 l-31
-20 -37 60 c-180 297 -491 515 -851 596 -68 15 -356 28 -419 19z"/>
<path d="M3017 4752 c-15 -16 -17 -52 -17 -295 0 -237 2 -278 16 -291 13 -14
54 -16 294 -16 240 0 281 2 294 16 14 13 16 54 16 293 0 257 -1 279 -18 294
-16 15 -52 17 -294 17 -254 0 -276 -1 -291 -18z m481 -294 l-3 -183 -185 0
-185 0 -3 183 -2 182 190 0 190 0 -2 -182z"/>
<path d="M1767 4252 c-15 -16 -17 -52 -17 -294 0 -254 1 -276 18 -291 16 -15
52 -17 295 -17 237 0 278 2 291 16 14 13 16 54 16 293 0 257 -1 279 -18 294
-16 15 -52 17 -294 17 -254 0 -276 -1 -291 -18z m478 -292 l0 -185 -182 -3
-183 -2 0 190 0 190 183 -2 182 -3 0 -185z"/>
<path d="M4266 4254 c-14 -13 -16 -54 -16 -294 0 -240 2 -281 16 -294 13 -14
54 -16 293 -16 257 0 279 1 294 18 15 16 17 52 17 294 0 254 -1 276 -18 291
-16 15 -52 17 -295 17 -237 0 -278 -2 -291 -16z m474 -294 l0 -190 -182 2
-183 3 -3 175 c-1 96 0 180 2 187 4 10 48 13 186 13 l180 0 0 -190z"/>
<path d="M3267 4002 c-16 -17 -17 -95 -17 -919 0 -859 1 -901 18 -916 24 -22
65 -21 85 1 16 17 17 95 17 919 0 859 -1 901 -18 916 -24 22 -65 21 -85 -1z"/>
<path d="M2017 3502 c-15 -16 -17 -60 -19 -373 l-3 -354 -229 -3 c-196 -2
-232 -5 -248 -19 -17 -15 -18 -39 -18 -293 0 -256 1 -278 18 -293 19 -18 59
-22 78 -9 29 19 34 55 34 271 l0 221 229 0 c195 0 232 2 245 16 14 13 16 65
16 419 0 354 -2 406 -16 419 -21 21 -67 20 -87 -2z"/>
<path d="M4516 3504 c-14 -13 -16 -65 -16 -419 0 -354 2 -406 16 -419 13 -14
50 -16 245 -16 l229 0 0 -221 c0 -256 6 -278 71 -279 57 0 59 10 59 312 0 252
-1 276 -18 291 -16 14 -52 17 -248 19 l-229 3 -3 354 c-2 313 -4 357 -19 373
-20 22 -66 23 -87 2z"/>
<path d="M2267 3252 c-22 -24 -21 -65 1 -85 17 -15 60 -17 420 -17 440 0 432
-1 432 60 0 61 8 60 -434 60 -378 0 -404 -1 -419 -18z"/>
<path d="M3516 3254 c-9 -8 -16 -28 -16 -44 0 -61 -8 -60 434 -60 378 0 404 1
419 18 22 24 21 65 -1 85 -17 15 -60 17 -420 17 -351 0 -403 -2 -416 -16z"/>
<path d="M767 2002 c-15 -17 -17 -69 -17 -544 0 -496 1 -526 18 -541 17 -15
57 -17 375 -17 l357 0 0 -59 0 -59 -111 -4 c-121 -3 -139 -12 -139 -68 0 -58
10 -60 313 -60 l276 0 20 27 c24 30 20 58 -11 86 -16 14 -39 17 -119 17 l-99
0 0 60 0 60 353 0 c335 0 355 1 371 19 16 18 17 61 16 547 0 365 -4 532 -12
541 -8 11 -159 13 -793 13 -745 0 -783 -1 -798 -18z m1483 -537 l0 -435 -685
0 -685 0 0 435 0 435 685 0 685 0 0 -435z"/>
<path d="M2516 2004 c-14 -14 -16 -77 -16 -543 0 -497 1 -529 18 -544 16 -15
60 -17 373 -19 l354 -3 3 -57 3 -58 -103 0 c-122 0 -148 -11 -148 -64 0 -65 5
-66 312 -66 254 0 276 1 291 18 10 10 17 33 17 50 0 50 -28 62 -148 62 l-103
0 3 58 3 57 354 3 c313 2 357 4 373 19 17 15 18 47 18 544 0 466 -2 529 -16
543 -14 14 -100 16 -794 16 -694 0 -780 -2 -794 -16z m1481 -541 l2 -433 -689
0 -689 0 -1 428 c0 236 3 431 7 435 3 4 313 6 687 5 l681 -3 2 -432z"/>
<path d="M4262 2007 c-8 -9 -12 -176 -12 -541 -1 -486 0 -529 16 -547 16 -18
36 -19 371 -19 l353 0 0 -60 0 -60 -99 0 c-80 0 -103 -3 -119 -17 -31 -28 -35
-56 -11 -86 l20 -27 278 0 c257 0 279 1 294 18 21 23 22 62 3 88 -12 16 -29
19 -125 22 l-111 4 0 59 0 59 358 0 c335 0 360 1 375 18 15 17 17 69 17 544 0
496 -1 526 -18 541 -17 16 -87 17 -799 17 -632 0 -783 -2 -791 -13z m1478
-542 l0 -435 -685 0 -685 0 0 435 0 435 685 0 685 0 0 -435z"/>
</g>
</svg>
