<?xml version="1.0" standalone="no"?>
<!DOCTYPE svg PUBLIC "-//W3C//DTD SVG 20010904//EN"
 "http://www.w3.org/TR/2001/REC-SVG-20010904/DTD/svg10.dtd">
<svg version="1.0" xmlns="http://www.w3.org/2000/svg"
 width="1000.000000pt" height="1001.000000pt" viewBox="0 0 1000.000000 1001.000000"
 preserveAspectRatio="xMidYMid meet">

<g transform="translate(0.000000,1001.000000) scale(0.100000,-0.100000)"
fill="#000000" stroke="none">
<path d="M1770 9048 c-164 -40 -272 -88 -380 -168 -65 -48 -89 -74 -144 -160
-53 -81 -117 -221 -128 -278 -7 -39 -11 -738 -12 -2172 l-1 -2115 32 -73 c18
-40 43 -87 56 -105 14 -17 34 -53 45 -79 28 -65 121 -155 227 -220 120 -73
150 -84 290 -109 93 -17 162 -22 306 -23 l187 -1 6 -44 c16 -114 -4 -248 -44
-301 -73 -98 -133 -216 -161 -317 -30 -110 -23 -193 25 -298 60 -129 89 -246
131 -522 4 -23 13 -44 20 -47 8 -3 17 -20 20 -39 5 -27 0 -45 -30 -96 -79
-134 -115 -250 -140 -446 -4 -27 -15 -81 -26 -120 -36 -132 -67 -280 -73 -345
-4 -36 -11 -95 -18 -131 -16 -97 -9 -115 48 -123 47 -6 79 4 101 33 10 14 14
14 35 -6 22 -21 28 -22 193 -16 94 3 175 10 182 15 7 5 12 5 15 -1 5 -14 136
-17 150 -3 9 9 16 7 31 -6 17 -15 39 -17 196 -14 97 2 179 7 184 11 4 4 0 21
-8 38 -15 31 -26 37 -125 69 -30 10 -70 31 -89 47 -18 16 -45 34 -60 40 -14 6
-37 21 -51 34 -25 22 -25 23 -17 125 4 57 14 139 22 183 8 44 15 95 15 113 0
18 4 52 9 75 95 440 93 427 80 519 -6 46 -13 93 -14 105 -2 12 -37 106 -79
210 -41 103 -91 241 -111 306 -40 135 -43 183 -21 370 8 67 17 188 20 268 4
91 11 161 21 188 8 24 15 58 16 75 0 32 17 83 18 57 1 -8 4 -12 7 -9 3 3 29 1
57 -6 38 -9 148 -10 417 -5 201 4 497 8 657 8 l293 1 6 -24 c3 -14 1 -46 -4
-72 -12 -56 -4 -77 38 -99 54 -28 84 -20 140 38 27 28 50 55 50 60 0 12 58 8
95 -7 47 -20 57 -45 53 -133 -3 -72 -2 -76 24 -96 17 -13 43 -20 73 -21 l47
-1 -7 -100 c-4 -55 -10 -127 -13 -160 -4 -33 -4 -96 0 -140 3 -44 5 -395 4
-780 -3 -636 -5 -710 -22 -805 -11 -62 -19 -151 -19 -217 l0 -113 -65 -33
c-52 -26 -66 -38 -68 -59 -6 -47 16 -55 160 -63 73 -4 162 -5 198 -3 l65 3 13
85 c7 47 17 155 22 240 4 85 13 207 19 270 6 63 13 223 15 355 3 132 9 278 15
325 21 164 34 240 41 240 11 0 28 -98 40 -225 9 -93 16 -729 9 -820 -5 -68 4
-305 11 -310 5 -3 12 -37 16 -75 6 -68 7 -70 38 -74 67 -10 298 -14 328 -5 75
21 61 88 -26 130 l-29 14 -2 120 c-1 66 -5 206 -9 310 -4 105 -3 348 1 540 7
269 6 365 -4 415 -23 123 -27 266 -9 387 20 132 22 253 7 378 -6 50 -11 111
-11 137 l0 48 43 -6 c36 -5 45 -2 66 20 22 23 23 31 18 92 -10 101 20 141 115
159 31 6 41 3 62 -19 15 -14 26 -32 26 -39 0 -24 77 -87 106 -87 34 0 81 26
88 47 3 10 -1 43 -9 73 -8 30 -15 60 -15 66 0 7 70 13 218 17 183 6 719 18
830 19 20 0 42 -8 56 -21 27 -26 43 -26 154 -2 48 11 105 21 127 22 22 2 46 7
52 12 18 13 18 13 -22 -275 -19 -139 -35 -260 -35 -269 0 -9 11 -21 24 -28 20
-11 29 -10 65 8 32 17 41 27 42 49 1 15 5 -9 9 -53 5 -44 11 -112 15 -152 6
-63 -2 -120 -65 -480 l-73 -408 32 -485 c17 -267 32 -500 31 -517 0 -27 -7
-37 -39 -57 -21 -14 -65 -32 -97 -41 -123 -34 -121 -33 -119 -63 5 -68 -15
-62 204 -62 168 0 200 2 205 15 7 19 26 19 26 0 0 -12 15 -15 73 -15 39 0 78
4 86 9 12 8 13 90 7 527 -4 298 -3 513 2 504 5 -8 80 -196 167 -417 153 -390
158 -404 140 -423 -21 -24 -134 -67 -195 -75 -72 -10 -91 -15 -86 -24 3 -4 2
-21 -2 -37 -18 -65 -21 -64 195 -64 165 0 199 3 214 16 16 14 18 14 24 -5 5
-17 15 -21 54 -21 27 0 62 3 79 6 l30 6 4 122 4 121 -143 483 -143 482 -1 233
c0 127 -4 322 -8 432 l-9 200 -51 141 -51 142 0 231 0 231 153 0 c145 0 159 2
233 29 222 81 248 97 366 220 88 92 111 124 157 214 l54 107 4 187 c2 104 5
319 7 478 3 160 9 356 14 437 7 97 7 160 0 185 -6 24 -11 602 -14 1553 -4
1021 -9 1530 -16 1560 -25 105 -42 148 -81 198 -22 29 -50 58 -61 64 -12 6
-49 39 -83 74 -97 98 -102 101 -389 194 -20 7 -1126 10 -3202 10 -1744 0
-3182 4 -3194 9 -15 5 -49 2 -98 -11z m595 -138 c36 -55 8 -100 -90 -145 -118
-54 -143 -101 -110 -212 21 -71 39 -83 137 -94 46 -5 93 -12 105 -14 26 -6 61
-52 69 -93 6 -27 2 -33 -35 -57 -29 -20 -60 -29 -113 -35 -62 -7 -76 -12 -94
-36 -43 -54 -60 -188 -26 -216 9 -8 60 -36 112 -62 52 -27 101 -53 108 -58 15
-13 15 -38 1 -74 l-10 -28 -25 32 c-21 26 -32 32 -65 32 -53 0 -79 -15 -79
-45 0 -20 -5 -25 -25 -25 -17 0 -45 -20 -90 -65 -36 -35 -65 -70 -65 -77 0 -7
-16 6 -36 30 -31 36 -41 42 -75 42 -34 0 -41 -4 -51 -27 -18 -41 -19 -173 -2
-200 8 -12 14 -26 14 -31 0 -12 -49 -34 -60 -27 -5 3 -15 -3 -22 -15 -18 -29
-37 -25 -74 15 l-32 35 29 0 c19 0 42 12 69 36 35 32 38 38 25 51 -8 8 -15 23
-15 33 0 11 -18 31 -43 49 -49 33 -102 104 -93 123 3 7 10 20 16 28 5 8 14 27
20 43 9 26 13 27 75 27 79 0 145 24 145 52 0 41 -31 80 -85 104 -38 18 -52 29
-48 40 4 10 0 12 -11 8 -11 -4 -19 1 -25 17 -5 13 -7 27 -5 30 2 3 4 22 6 42
2 33 5 37 29 37 34 0 45 -15 27 -37 -12 -14 -11 -15 7 -4 11 7 21 24 22 38 1
31 20 45 51 38 17 -4 23 -2 20 7 -3 7 5 27 17 44 18 27 21 40 15 79 -4 25 -12
51 -18 57 -6 6 -38 15 -72 19 -69 10 -105 30 -126 71 -27 52 -11 83 62 125 70
41 80 56 75 123 -5 69 -12 74 -108 67 -82 -6 -83 -6 -83 17 0 31 58 89 102
103 19 7 137 11 283 12 l250 1 20 -30z m2926 8 c6 -11 7 -27 3 -36 -4 -9 -9
-28 -11 -42 -3 -29 -13 -90 -17 -105 -2 -5 -4 -14 -6 -20 -1 -5 -5 -14 -9 -20
-5 -5 -11 -22 -15 -37 -3 -16 -11 -28 -16 -28 -6 0 -10 -10 -10 -22 0 -13 -25
-69 -56 -125 -99 -179 -255 -323 -458 -422 -49 -24 -97 -45 -105 -46 -9 -2
-18 -4 -21 -5 -3 -1 -9 -3 -15 -4 -66 -11 -102 -20 -112 -28 -7 -5 -16 -7 -22
-4 -5 3 -21 2 -35 -4 -16 -6 -35 -6 -50 0 -13 5 -27 6 -30 3 -9 -10 -177 -10
-211 -1 -16 5 -48 11 -69 14 -21 2 -44 8 -50 12 -6 3 -22 8 -35 10 -13 2 -45
14 -70 28 -25 13 -53 24 -61 24 -13 0 -51 22 -136 78 -10 6 -26 15 -34 19 -45
21 -222 211 -265 285 -40 69 -116 233 -113 245 1 4 -8 39 -20 76 -13 38 -20
77 -17 87 3 10 1 21 -5 25 -11 7 -14 48 -3 58 3 4 469 6 1035 6 1011 -1 1029
-2 1039 -21z m-2551 -22 c0 -51 37 -256 61 -333 52 -169 145 -348 254 -488 78
-100 232 -248 324 -312 39 -26 71 -51 71 -54 0 -17 -80 -94 -114 -110 -56 -26
-66 -24 -60 9 18 92 -1 152 -48 152 -13 0 -18 7 -18 28 0 46 -25 72 -70 72
-61 0 -87 -14 -95 -52 -4 -18 -13 -48 -21 -66 -13 -32 -14 -33 -39 -16 -15 10
-38 15 -59 12 -30 -3 -35 -1 -39 22 -3 14 -19 33 -35 42 -20 12 -32 29 -36 52
-4 19 -13 39 -21 46 -10 9 -15 32 -15 74 0 56 -3 65 -31 94 -17 18 -46 34 -65
38 -34 6 -47 5 -149 -16 -61 -13 -100 -5 -120 23 -25 36 -18 45 46 58 34 7 73
22 87 34 24 21 26 28 28 130 3 120 -5 145 -55 188 -25 20 -45 26 -108 32 -115
9 -143 14 -143 28 0 7 41 39 91 71 49 32 98 70 106 83 11 16 18 55 21 109 l5
84 123 0 124 0 0 -34z m3281 -18 c3 -104 2 -103 129 -162 101 -47 115 -57 118
-80 2 -15 -4 -39 -13 -53 -17 -25 -19 -25 -96 -18 -77 6 -149 -5 -149 -25 0
-4 -8 -10 -18 -12 -25 -7 -59 -81 -68 -145 l-6 -51 58 -44 c31 -23 78 -61 102
-84 39 -35 43 -43 34 -61 -16 -29 -131 -43 -219 -28 -68 12 -90 1 -133 -68
-61 -95 -55 -122 41 -224 33 -34 59 -69 59 -78 0 -26 -31 -72 -57 -84 -28 -13
-41 -8 -125 46 -89 58 -127 58 -194 3 -89 -73 -93 -107 -28 -226 52 -96 53
-123 3 -153 -44 -27 -78 -12 -141 59 -53 61 -83 80 -122 80 -29 0 -134 -54
-152 -78 -18 -23 -17 -94 1 -162 8 -30 15 -67 15 -81 0 -38 -65 -90 -86 -69
-5 5 -21 11 -34 13 -19 3 -35 22 -67 78 -23 41 -50 80 -60 86 -39 29 -162 4
-199 -40 -22 -26 -24 -38 -24 -121 0 -102 -10 -127 -59 -144 -22 -8 -32 -7
-40 2 -18 21 -83 148 -100 195 -18 49 -33 55 -149 54 -49 0 -67 -4 -85 -20
-18 -17 -27 -19 -47 -11 -33 13 -100 3 -150 -21 l-40 -19 0 25 c0 15 10 33 25
45 33 26 55 69 55 108 0 36 -51 95 -75 87 -9 -4 -15 3 -17 21 -2 19 -13 32
-38 44 -43 21 -93 12 -148 -26 -48 -32 -86 -46 -101 -37 -9 6 -6 25 14 77 29
77 25 100 -20 130 -47 30 -26 33 38 5 201 -90 403 -127 655 -118 259 9 417 49
637 162 194 98 365 239 497 407 35 44 73 92 84 105 37 43 138 259 173 366 28
87 57 231 66 325 l8 72 123 0 124 0 1 -52z m-4321 10 c-11 -13 -23 -33 -27
-46 l-6 -24 -18 29 c-25 37 -24 38 14 51 51 16 60 14 37 -10z m6670 -9 c30
-11 63 -23 73 -26 9 -3 17 -9 17 -14 0 -5 6 -9 13 -9 16 0 85 -74 108 -115 16
-28 16 -35 -2 -105 -11 -41 -22 -100 -25 -130 -9 -78 13 -332 35 -415 10 -38
28 -110 41 -159 18 -70 36 -108 83 -180 l60 -91 5 -145 4 -145 -34 -37 c-40
-44 -92 -68 -131 -61 -33 7 -34 18 -2 65 14 20 25 47 25 60 1 13 7 34 15 48
32 55 4 148 -57 193 -25 19 -33 20 -91 9 -118 -22 -157 -14 -157 34 0 20 32
53 109 112 27 21 31 30 31 73 0 54 -18 106 -43 127 -8 7 -56 16 -105 20 -91 8
-132 26 -132 58 0 21 62 62 110 73 59 13 87 46 95 114 13 103 -20 140 -148
167 -62 12 -77 25 -80 66 -2 25 3 30 38 42 22 7 68 17 102 21 38 4 70 15 83
26 24 22 40 75 40 137 0 42 -4 50 -44 85 -25 22 -63 46 -86 53 -44 14 -56 29
-46 55 7 20 31 19 96 -6z m-6770 -24 c0 -8 17 -32 39 -55 37 -39 40 -40 82
-33 24 4 67 8 94 8 45 0 50 -2 53 -24 7 -45 -7 -70 -56 -97 -83 -48 -92 -60
-92 -125 0 -51 4 -61 30 -88 28 -28 81 -46 160 -53 22 -3 25 -8 28 -51 3 -44
1 -48 -25 -58 -15 -6 -46 -15 -68 -20 -22 -4 -61 -19 -87 -34 -42 -23 -48 -31
-48 -58 0 -18 13 -57 29 -87 25 -47 37 -59 89 -85 73 -37 92 -52 92 -75 0 -22
-27 -30 -103 -30 -32 0 -67 -5 -78 -10 -19 -11 -79 -118 -79 -143 0 -25 58
-94 104 -127 50 -33 60 -65 30 -94 -19 -20 -42 -20 -87 -1 -50 21 -136 19
-163 -3 -65 -52 -56 -161 20 -231 30 -28 34 -66 10 -99 -26 -38 -63 -28 -142
40 -18 15 -44 28 -58 28 -40 0 -101 -39 -119 -76 -19 -41 -19 -57 4 -102 25
-51 35 -133 18 -156 -10 -13 -20 -16 -36 -11 l-23 7 4 229 3 228 42 43 c47 50
141 185 180 261 43 85 84 205 110 322 21 96 24 127 19 245 -3 85 -11 151 -20
179 -9 24 -16 58 -16 75 0 29 -19 85 -62 186 -38 88 -39 98 -8 120 37 27 113
70 123 70 4 0 7 -7 7 -15z m5336 -61 c10 -14 21 -50 26 -81 12 -74 30 -107 72
-127 67 -32 90 -31 129 4 20 17 48 51 64 76 39 62 95 74 119 26 17 -34 8 -55
-34 -77 -30 -16 -39 -28 -46 -62 -7 -35 -5 -49 15 -89 13 -27 35 -56 49 -66
25 -18 109 -40 205 -55 50 -8 50 -8 47 -43 -2 -19 -13 -45 -24 -57 -27 -29
-26 -83 3 -123 24 -31 24 -32 4 -47 -49 -36 -51 -36 -79 30 -77 181 -257 297
-459 297 -98 0 -163 -16 -245 -60 -106 -56 -191 -157 -233 -275 -22 -63 -31
-213 -16 -267 6 -23 4 -28 -11 -28 -10 0 -29 -10 -41 -21 -29 -27 -25 -72 13
-153 14 -30 26 -62 26 -70 0 -18 -53 -60 -103 -81 -49 -20 -57 -19 -57 10 0
46 -27 82 -75 100 -54 21 -109 15 -137 -15 -42 -45 -128 -8 -128 56 0 42 21
64 98 103 61 31 82 59 82 111 0 44 -45 87 -105 101 -86 20 -103 29 -114 61
-14 41 -14 41 10 69 19 22 30 24 115 27 94 4 95 4 120 37 37 49 38 129 1 160
-14 13 -29 24 -34 26 -4 2 -20 27 -34 55 -25 48 -26 52 -10 78 20 33 41 33 94
-1 35 -24 53 -28 110 -28 64 0 70 2 97 32 24 26 28 38 25 80 -1 26 -13 76 -25
110 -25 70 -22 90 15 99 36 9 64 -8 113 -71 35 -45 49 -55 92 -65 63 -15 114
-6 132 23 8 12 18 52 21 89 6 67 19 106 41 120 23 16 56 7 72 -18z m1808 -300
c23 -22 27 -81 24 -314 l-3 -215 -28 80 c-23 65 -30 103 -34 205 -7 147 4 318
18 282 5 -13 15 -30 23 -38z m-7483 -71 c31 -80 50 -190 45 -268 -3 -44 -5
-84 -6 -88 0 -5 -4 -6 -9 -3 -5 3 -16 -15 -26 -39 -9 -25 -22 -45 -29 -45 -10
0 -12 54 -12 235 0 186 3 235 13 235 8 0 18 -12 24 -27z m5825 -144 c118 -22
232 -108 284 -214 26 -54 21 -75 -18 -75 -34 0 -82 -34 -82 -58 0 -9 -13 -53
-28 -97 l-28 -80 -57 -3 c-35 -2 -57 1 -57 8 0 5 -6 10 -14 10 -7 0 -21 15
-31 33 -9 17 -24 46 -32 62 -32 62 -54 77 -102 72 -69 -8 -76 -21 -76 -145 l0
-107 -48 -25 -48 -25 -21 25 c-40 48 -80 149 -85 214 -15 187 127 367 320 405
59 12 57 12 123 0z m-5226 -74 c11 -13 9 -15 -19 -13 -31 2 -37 8 -24 21 11
12 30 8 43 -8z m-85 -64 c-4 -17 -11 -29 -16 -25 -13 8 -11 52 4 57 18 6 20 2
12 -32z m5617 -245 c9 -65 44 -149 73 -176 21 -20 32 -22 109 -19 94 4 109 14
119 76 3 18 21 54 39 79 l33 46 23 -27 c21 -25 23 -36 21 -121 -2 -52 -1 -95
2 -97 2 -1 20 -14 39 -28 19 -14 43 -28 52 -32 45 -16 145 45 185 114 17 29
37 34 81 23 28 -8 29 -45 2 -114 -29 -73 -26 -104 15 -161 20 -26 44 -50 54
-54 31 -10 117 13 168 45 30 19 61 30 74 28 20 -2 24 -10 27 -45 3 -35 -2 -48
-23 -69 -65 -65 -65 -98 0 -165 67 -69 123 -77 195 -29 25 16 57 30 73 30 27
0 27 -1 27 -63 0 -62 -1 -64 -34 -82 -41 -22 -76 -80 -76 -125 0 -42 47 -116
82 -131 l28 -11 0 -487 c0 -419 -2 -494 -16 -534 -14 -42 -14 -49 0 -78 10
-21 16 -59 16 -108 l0 -76 -50 3 c-96 7 -156 -56 -148 -156 4 -49 9 -58 56
-104 50 -49 59 -68 46 -102 -7 -19 -56 -21 -85 -3 -28 16 -78 65 -72 70 2 3
-22 4 -53 2 -44 -2 -62 -7 -74 -22 -9 -11 -25 -23 -36 -27 -48 -15 -58 -118
-19 -196 39 -77 32 -120 -19 -120 -24 1 -43 13 -86 55 -55 54 -56 55 -115 55
-66 -1 -99 -20 -129 -78 -14 -27 -14 -35 -1 -79 8 -26 15 -64 15 -83 -1 -38
-29 -80 -53 -80 -15 0 -77 81 -77 101 0 5 -4 9 -10 9 -5 0 -10 8 -10 18 0 11
-9 27 -20 37 -19 17 -27 18 -97 6 -95 -16 -98 -17 -110 -43 -9 -20 -16 -21
-179 -19 l-169 2 -32 -32 c-18 -17 -38 -50 -44 -73 -18 -66 -40 -96 -71 -96
-24 0 -28 5 -33 38 -12 87 -27 158 -37 175 -12 24 -84 56 -124 57 -41 0 -91
-18 -98 -36 -3 -8 -9 -14 -14 -14 -13 0 -32 47 -32 79 0 32 -32 66 -54 58 -8
-3 -31 11 -55 34 -35 32 -40 42 -31 58 21 41 75 37 170 -13 124 -66 462 -111
641 -86 191 27 486 120 544 172 8 7 52 38 97 68 45 30 108 80 138 109 30 30
57 56 60 56 23 7 40 19 40 31 0 8 6 14 13 14 6 0 28 20 47 45 19 25 43 55 53
67 9 11 17 27 17 33 0 7 6 18 14 25 16 13 72 124 106 210 37 93 58 169 85 315
28 144 28 143 9 360 -4 39 -13 79 -20 90 -8 11 -14 27 -14 37 0 62 -102 313
-174 426 -14 23 -26 46 -26 52 0 5 -4 10 -8 10 -5 0 -24 21 -42 46 -39 55
-204 224 -218 224 -6 0 -12 4 -14 9 -5 15 -162 116 -240 154 -185 91 -335 128
-543 134 -249 8 -439 -33 -651 -140 -75 -38 -225 -136 -272 -177 -7 -6 -22
-13 -34 -15 -11 -3 -21 -6 -22 -7 -15 -38 -35 -62 -49 -60 -11 2 -17 -4 -17
-16 0 -11 -11 -31 -25 -46 -14 -15 -25 -30 -25 -34 0 -4 -13 -22 -30 -40 -16
-18 -30 -35 -30 -37 0 -3 -15 -28 -34 -57 -114 -179 -184 -398 -201 -630 -4
-49 -11 -88 -16 -88 -20 0 -68 30 -83 52 -20 28 -21 102 -2 117 27 23 30 70 7
102 -12 15 -21 43 -21 61 0 50 -23 73 -100 103 -64 24 -70 29 -70 55 0 16 4
40 10 54 l9 25 100 -6 c89 -5 102 -4 127 15 30 21 64 98 64 146 0 15 -9 34
-22 44 -103 83 -133 123 -116 155 13 24 97 23 148 -3 62 -31 150 -23 150 15 0
8 11 31 25 51 14 20 25 42 25 48 0 6 -22 44 -50 85 -54 80 -58 95 -35 128 24
35 106 16 120 -27 10 -30 54 -60 91 -60 39 0 71 13 141 57 67 41 74 66 40 136
-58 121 -56 136 13 132 37 -2 79 -33 80 -58 0 -13 40 -45 78 -63 32 -16 35
-16 83 6 87 41 89 45 89 170 l0 110 35 0 c33 0 37 -4 56 -47 45 -104 94 -143
182 -143 73 0 89 18 128 140 20 64 37 101 48 103 36 10 46 2 53 -47z m-4628
-21 c8 -9 18 -32 21 -53 16 -94 30 -126 65 -150 43 -29 71 -36 115 -28 48 9
90 55 106 117 10 38 19 53 37 60 54 21 63 7 72 -111 7 -102 7 -103 43 -137 20
-18 46 -33 57 -33 37 0 119 49 167 100 45 48 47 49 75 34 15 -8 28 -18 28 -23
0 -5 -11 -33 -25 -63 -40 -86 -35 -112 35 -180 32 -32 67 -58 77 -57 10 0 38
14 63 30 82 52 137 66 162 41 15 -15 -8 -96 -38 -131 -38 -45 -39 -71 -5 -122
17 -25 46 -54 65 -64 33 -18 34 -18 87 8 58 29 115 35 143 14 30 -22 12 -67
-49 -127 -63 -62 -68 -86 -34 -153 32 -62 45 -69 114 -62 33 3 71 8 85 11 38
8 80 -29 80 -70 0 -40 -18 -57 -91 -90 -30 -13 -61 -32 -69 -41 -18 -21 -16
-94 5 -161 16 -53 19 -112 7 -130 -15 -24 -86 -64 -112 -64 -27 0 -27 1 -34
86 -13 174 -64 353 -144 509 -26 50 -52 97 -59 105 -6 8 -30 40 -53 70 -53 71
-249 270 -267 270 -2 0 -19 11 -36 24 -18 13 -79 49 -137 79 -368 193 -799
194 -1175 4 -55 -28 -102 -53 -105 -57 -3 -3 -36 -29 -75 -57 -82 -60 -213
-193 -275 -278 -24 -33 -47 -62 -51 -65 -14 -10 -109 -218 -133 -294 -81 -248
-81 -538 1 -791 23 -73 96 -235 116 -260 8 -10 104 -146 122 -172 35 -51 191
-188 285 -248 216 -140 443 -207 700 -208 158 -1 276 19 424 70 94 32 103 33
150 22 64 -15 83 -24 96 -48 8 -16 4 -25 -20 -50 -19 -19 -30 -40 -30 -58 0
-36 -16 -53 -50 -53 -14 0 -38 -8 -53 -19 -28 -18 -28 -18 -57 10 -33 33 -49
35 -118 13 -61 -20 -72 -40 -72 -132 0 -79 -15 -107 -62 -117 -27 -6 -36 -3
-55 19 -19 22 -22 34 -17 65 6 34 2 43 -31 80 -35 39 -40 41 -93 41 -45 0 -68
7 -119 35 -82 45 -176 56 -272 30 -81 -21 -128 -54 -187 -133 -6 -9 -18 -12
-31 -8 -20 6 -21 13 -17 93 4 95 -9 138 -54 173 -47 37 -137 15 -196 -49 -34
-35 -76 -42 -76 -12 0 10 -9 30 -20 44 l-20 25 25 48 c14 26 25 56 25 67 0 34
-41 108 -65 119 -30 13 -153 -22 -180 -52 -23 -26 -59 -26 -86 1 -27 27 -18
74 21 111 42 39 60 80 60 135 0 60 -19 89 -70 104 -34 10 -45 9 -91 -11 -41
-17 -63 -21 -98 -16 -49 7 -61 18 -61 56 0 21 12 31 66 60 86 45 97 62 84 128
-19 101 -47 132 -119 132 l-41 0 0 63 c0 58 2 63 28 78 35 20 62 75 62 127 0
30 -7 47 -29 71 -16 17 -36 31 -45 31 -13 0 -16 12 -16 68 l0 69 41 13 c58 19
79 51 79 118 0 81 -37 114 -86 77 -10 -8 -22 -15 -26 -15 -5 0 -8 40 -8 90 l0
89 49 -6 c56 -6 112 9 159 44 30 22 32 28 32 84 0 59 -1 60 -60 124 -50 54
-60 70 -60 100 0 31 3 35 26 35 15 0 41 -13 61 -30 25 -23 43 -30 74 -30 50 0
72 11 127 63 37 36 42 47 42 85 0 36 -7 51 -35 85 -28 33 -35 49 -35 83 0 24
4 46 10 49 22 13 84 -9 126 -46 56 -48 88 -50 160 -8 61 35 65 47 38 130 -14
43 -15 59 -5 105 7 30 16 54 21 54 5 0 26 -18 46 -39 20 -22 54 -52 75 -67 35
-24 45 -26 95 -20 69 8 112 29 119 59 3 12 6 63 8 112 2 89 2 90 29 93 21 3
32 -4 52 -35 14 -21 26 -43 26 -49 0 -7 16 -26 35 -43 104 -91 235 -39 235 94
0 82 52 132 94 90z m-1188 -407 c-9 -12 -16 -43 -16 -68 0 -33 -3 -41 -10 -30
-22 34 0 120 31 120 6 0 3 -10 -5 -22z m5991 -34 c45 -8 117 -26 160 -40 89
-29 293 -132 300 -151 3 -7 11 -13 18 -13 7 0 32 -17 55 -37 103 -91 140 -126
140 -135 0 -5 14 -21 30 -35 17 -13 30 -31 30 -38 0 -7 7 -15 15 -19 8 -3 15
-10 15 -16 0 -6 9 -21 20 -33 26 -27 120 -214 120 -236 0 -9 5 -22 10 -27 6
-6 22 -55 36 -110 20 -76 27 -133 31 -245 7 -172 -10 -293 -60 -446 -33 -99
-113 -255 -154 -300 -13 -13 -23 -26 -23 -29 0 -14 -44 -44 -58 -40 -9 3 -32
-4 -51 -15 -27 -16 -31 -23 -20 -30 12 -8 11 -12 -4 -23 -9 -7 -22 -27 -28
-45 -6 -17 -15 -31 -20 -31 -5 0 -28 -18 -51 -40 -24 -22 -53 -43 -65 -46 -13
-4 -23 -10 -23 -14 0 -5 -51 -33 -112 -64 -295 -145 -618 -164 -934 -54 -82
28 -94 35 -108 65 -19 40 -59 60 -146 71 -78 11 -100 31 -100 92 0 54 11 71
64 99 28 14 44 17 57 11 10 -6 29 -10 42 -10 14 0 31 -7 38 -16 12 -15 11 -16
-9 -9 -21 6 -23 5 -13 -13 11 -20 32 -32 56 -32 8 0 37 20 65 45 61 54 75 57
66 13 -19 -95 -19 -115 3 -137 13 -13 34 -21 56 -21 25 0 35 -4 35 -16 0 -34
43 -54 85 -38 9 4 29 32 45 64 26 52 44 70 71 70 5 0 9 -18 9 -41 0 -41 14
-78 34 -91 6 -4 26 -8 44 -8 17 0 32 -4 32 -10 0 -17 39 -50 58 -50 36 0 52
24 62 90 16 101 65 129 114 65 17 -22 38 -36 60 -40 22 -5 37 -15 45 -31 9
-21 17 -25 48 -22 52 4 59 22 43 106 -7 39 -10 77 -7 86 9 23 83 57 111 50 13
-3 45 -23 71 -45 51 -42 69 -47 102 -24 21 15 38 86 18 79 -13 -5 -65 80 -65
106 0 24 66 100 86 100 8 0 41 -11 74 -25 72 -30 75 -30 100 -5 28 28 25 56
-9 88 -16 15 -32 38 -36 52 -4 14 -16 35 -27 47 -17 19 -19 26 -9 56 16 46 47
61 111 53 39 -5 58 -3 76 9 37 24 30 79 -12 96 -16 5 -24 17 -24 32 0 36 -27
65 -70 77 -43 12 -45 15 -31 53 7 18 24 30 63 42 77 25 98 41 98 74 0 32 -18
51 -49 54 -17 1 -21 8 -21 34 0 39 -21 53 -80 53 -47 0 -80 14 -80 35 0 8 24
33 53 56 28 23 56 48 60 56 14 23 -2 63 -28 73 -17 6 -25 17 -25 33 0 14 -12
37 -27 52 -23 22 -34 26 -62 21 -18 -3 -41 -12 -51 -21 -16 -15 -61 -21 -72
-9 -4 3 10 32 29 64 38 64 38 94 0 111 -13 6 -23 20 -23 35 -3 41 -41 74 -86
74 -50 0 -74 -13 -93 -50 -11 -21 -23 -30 -41 -30 -25 0 -25 1 -19 53 7 56 -7
87 -41 87 -10 0 -14 12 -14 41 0 48 -19 68 -65 69 -37 0 -73 -30 -105 -87 -20
-37 -28 -43 -56 -43 -27 0 -32 4 -37 30 -4 19 -17 34 -35 44 -18 9 -32 27 -37
43 -15 63 -49 86 -100 67 -26 -10 -58 -83 -52 -120 9 -55 -1 -72 -45 -79 -37
-7 -43 -4 -80 31 -22 22 -51 56 -64 77 -26 40 -54 47 -89 21 -17 -13 -21 -29
-23 -107 -2 -51 -9 -98 -14 -104 -23 -28 -118 -7 -118 26 0 23 -40 51 -72 51
-91 -1 -121 -41 -102 -140 4 -19 12 -39 19 -45 7 -5 21 -25 31 -43 l19 -34
-28 -24 c-34 -29 -47 -30 -97 -4 -78 40 -150 16 -150 -49 0 -49 17 -79 60
-106 35 -22 40 -30 40 -63 0 -53 -14 -62 -89 -62 -51 0 -72 -5 -98 -22 -72
-49 -54 -105 55 -169 66 -38 77 -48 80 -74 2 -28 -2 -32 -70 -65 -54 -26 -75
-42 -82 -61 -12 -35 1 -80 24 -86 29 -8 24 -16 -19 -35 -74 -35 -118 -17 -146
57 l-17 44 31 50 c37 57 48 109 31 140 -14 27 -72 53 -95 44 -15 -5 -16 1 -10
53 10 90 53 257 87 337 50 117 131 249 199 322 20 22 54 59 74 83 21 23 46 42
56 42 11 0 19 7 19 15 0 9 8 19 18 22 9 4 23 13 30 20 43 42 193 125 295 163
199 73 427 92 644 54z m-1476 -21 c31 -19 44 -50 54 -128 4 -27 9 -62 11 -77
5 -27 4 -28 -36 -28 -22 0 -58 9 -80 20 -22 11 -53 20 -70 20 -26 0 -30 3 -26
23 3 12 8 48 11 79 10 93 67 132 136 91z m-3353 -22 c28 18 235 -15 361 -57
112 -37 264 -116 320 -166 17 -16 35 -28 41 -28 5 0 10 -7 10 -15 0 -8 6 -15
14 -15 18 0 176 -167 176 -186 0 -8 4 -14 8 -14 10 0 92 -138 122 -205 34 -78
49 -126 70 -227 24 -112 25 -148 6 -148 -25 0 -66 -59 -66 -93 1 -18 16 -61
34 -97 l33 -64 -45 -53 c-25 -29 -49 -53 -53 -53 -4 0 -9 15 -11 33 -2 25 -10
35 -35 46 -25 11 -33 21 -33 40 0 36 -9 46 -52 64 -21 9 -38 22 -38 29 0 29
31 56 77 68 56 13 78 27 86 55 8 24 -1 39 -27 48 -11 4 -16 13 -12 22 7 19 1
19 -18 -1 -15 -14 -16 -12 -16 20 0 48 -30 79 -67 70 -23 -6 -25 -5 -19 12 6
15 5 17 -5 7 -19 -19 -42 -16 -62 7 -9 11 -23 20 -31 20 -20 0 -29 17 -12 23
7 3 26 -1 41 -9 25 -13 29 -12 70 23 50 41 56 52 48 82 -5 18 -31 34 -58 36
-5 0 -9 14 -7 32 2 22 -3 37 -20 53 -24 22 -26 22 -131 4 l-38 -6 27 49 c35
61 29 101 -16 110 -25 4 -30 10 -30 33 0 45 -10 59 -46 66 -37 7 -63 -5 -108
-51 -14 -14 -33 -25 -42 -25 -14 0 -16 7 -10 48 7 55 -6 82 -42 85 -18 1 -22
7 -22 33 0 57 -54 87 -111 64 -33 -14 -58 -46 -74 -94 -14 -44 -47 -42 -56 2
-9 46 -15 48 -33 15 -8 -15 -15 -23 -16 -16 0 19 22 63 32 63 5 0 6 5 3 11 -5
6 -11 4 -19 -7 -10 -12 -15 -14 -20 -5 -4 6 -2 18 4 26 10 12 10 15 -2 15 -8
0 -21 11 -28 25 -9 18 -19 23 -32 19 -10 -3 -18 -1 -18 5 0 6 -11 6 -29 1 -16
-4 -31 -6 -34 -4 -4 4 -17 -40 -34 -121 -16 -79 -95 -71 -158 16 -29 40 -40
49 -65 49 -23 0 -35 -7 -50 -32 -17 -28 -19 -43 -14 -95 l6 -63 -43 -19 -44
-18 -37 33 c-54 49 -143 69 -168 39 -19 -23 -1 -66 71 -166 9 -12 8 -24 -6
-53 -26 -54 -52 -63 -103 -37 -56 28 -147 29 -162 2 -24 -46 -13 -76 51 -134
64 -60 67 -70 33 -124 -11 -18 -24 -23 -55 -23 -72 0 -143 -48 -132 -88 2 -10
26 -30 54 -45 27 -16 49 -34 49 -41 0 -7 11 -19 25 -26 17 -9 25 -22 25 -41 0
-23 -9 -32 -57 -59 -77 -43 -93 -58 -93 -88 0 -37 27 -62 67 -62 28 0 33 -3
33 -24 0 -33 25 -50 71 -48 36 3 39 1 39 -23 0 -25 -15 -43 -81 -99 -46 -39
-6 -124 53 -112 18 4 27 2 23 -5 -11 -17 24 -59 48 -59 12 0 42 9 66 20 24 11
46 18 49 15 3 -2 -9 -31 -27 -64 -24 -45 -30 -67 -25 -88 10 -42 23 -53 60
-53 29 0 34 -4 34 -23 0 -59 59 -63 115 -7 58 57 65 53 65 -34 0 -82 10 -99
61 -99 19 0 29 -5 29 -15 0 -21 30 -52 50 -52 20 0 48 29 84 88 25 41 51 61
62 49 3 -2 7 -26 10 -53 5 -58 26 -84 69 -84 24 0 35 -6 43 -25 9 -18 19 -25
41 -25 42 0 58 21 66 90 5 45 12 64 28 75 33 23 60 17 82 -18 12 -18 34 -37
53 -43 18 -5 39 -20 48 -32 19 -27 55 -28 79 -2 16 17 16 25 4 85 -15 75 -10
89 39 118 29 17 33 17 54 3 12 -9 30 -16 39 -16 10 0 31 -11 47 -25 31 -26 76
-33 87 -14 11 17 37 -28 33 -58 -2 -18 -18 -38 -48 -62 -25 -18 -44 -37 -43
-41 1 -4 -20 -10 -47 -12 -33 -3 -61 -14 -85 -32 -47 -37 -170 -81 -294 -106
-174 -35 -402 -23 -571 31 -231 73 -462 243 -591 434 -54 79 -57 86 -99 170
-75 154 -110 312 -110 496 0 194 37 353 123 524 43 86 123 205 138 205 5 0 9
5 9 12 0 12 120 138 132 138 5 0 24 15 43 33 19 18 70 54 113 80 151 90 330
147 475 152 49 2 92 6 95 10 4 3 8 2 10 -4 2 -7 9 -7 20 0z m5865 -66 c-3 -9
-8 -14 -10 -11 -3 3 -2 9 2 15 9 16 15 13 8 -4z m-6963 -82 c0 -20 -16 -8 -23
17 -4 17 -3 19 9 9 8 -6 14 -18 14 -26z m3990 -33 c32 -86 57 -103 146 -98
l71 3 28 -38 c15 -21 46 -52 71 -70 48 -35 53 -54 29 -111 -24 -56 -46 -65
-141 -55 -106 12 -127 4 -143 -53 -7 -24 -11 -59 -9 -78 3 -30 8 -35 46 -48
24 -8 50 -24 58 -37 8 -13 26 -26 40 -29 38 -10 29 -33 -23 -60 -27 -13 -66
-43 -88 -65 -44 -46 -61 -49 -122 -22 -47 22 -60 52 -62 151 -2 75 -8 88 -43
106 -65 33 -158 -21 -172 -101 -4 -22 -12 -46 -18 -52 -11 -14 -61 -17 -119
-7 l-36 6 -11 74 c-15 113 -52 154 -126 140 -63 -12 -85 -41 -95 -124 -5 -40
-14 -79 -21 -86 -13 -17 -98 -26 -122 -14 -10 5 -18 15 -18 22 0 8 -6 16 -14
19 -7 3 -24 26 -36 52 -37 77 -92 94 -146 44 -20 -19 -20 -19 -43 12 -53 72
-18 159 63 159 44 0 63 -10 152 -82 75 -61 129 -64 182 -11 20 19 37 16 21 -4
-13 -16 -12 -17 4 -4 10 8 16 19 14 25 -2 6 9 26 24 44 16 18 29 41 29 51 0
21 -21 90 -45 146 l-16 40 39 -42 c35 -38 45 -43 85 -43 34 0 53 6 76 26 17
14 31 21 31 15 0 -15 54 -41 84 -41 44 0 156 50 174 78 17 26 21 117 7 164 -6
19 -5 21 6 11 7 -7 35 -13 62 -13 40 0 53 5 75 29 15 16 28 29 28 30 1 0 12
-26 24 -59z m1738 3 c6 -16 13 -42 17 -58 16 -86 85 -130 163 -107 29 9 44 22
62 53 30 55 55 79 81 79 23 0 23 -1 3 -128 -5 -34 -3 -47 12 -63 28 -32 89
-59 129 -59 30 0 39 5 56 35 23 38 62 55 88 38 25 -16 24 -39 -5 -83 -17 -25
-29 -59 -32 -89 -4 -43 -1 -53 21 -74 13 -14 43 -31 66 -38 39 -12 46 -11 96
14 50 25 54 25 69 8 26 -28 20 -43 -44 -102 -66 -61 -65 -58 -39 -146 9 -27
18 -34 64 -47 29 -9 69 -16 89 -16 24 0 39 -5 42 -15 9 -21 -14 -45 -43 -45
-67 0 -120 -68 -108 -140 9 -55 50 -96 104 -105 46 -8 57 -21 47 -60 -6 -25
-8 -25 -70 -19 -63 6 -64 6 -105 -31 -62 -56 -56 -89 31 -183 50 -53 56 -76
26 -96 -13 -8 -30 -5 -70 12 -73 30 -88 28 -136 -20 -34 -34 -42 -48 -42 -78
0 -23 8 -48 21 -63 11 -15 23 -43 26 -62 5 -33 4 -35 -22 -35 -19 0 -39 12
-62 36 -32 34 -37 36 -86 32 -29 -2 -65 -11 -82 -19 l-30 -15 3 -78 c5 -107
-1 -128 -36 -124 -21 2 -33 14 -54 53 -14 28 -31 56 -38 63 -13 15 -114 16
-142 1 -26 -14 -48 -68 -48 -117 0 -45 -14 -62 -51 -62 -32 0 -39 15 -39 81 0
28 -4 59 -10 69 -12 23 -61 40 -116 40 -40 0 -45 -4 -94 -62 -74 -89 -86 -85
-82 23 l3 87 -44 36 c-63 51 -105 50 -156 -5 -51 -55 -77 -52 -72 10 1 25 12
62 24 84 18 36 19 42 6 66 -8 14 -34 40 -59 59 -46 36 -50 36 -132 7 -56 -20
-78 -15 -78 19 0 19 10 31 40 48 73 42 93 132 42 189 -25 28 -36 32 -100 38
-114 11 -123 41 -25 86 32 15 65 30 73 34 19 10 25 75 11 122 -9 31 -17 38
-47 44 -50 9 -98 33 -113 57 -11 17 -9 24 10 44 20 21 31 24 100 24 95 0 109
13 109 102 0 50 -3 59 -26 75 -56 38 -75 63 -72 91 4 35 34 40 87 13 48 -25
91 -27 131 -6 65 34 67 87 7 177 -12 17 -17 40 -15 65 3 36 5 38 40 41 33 3
39 -1 53 -28 19 -36 49 -50 111 -50 34 0 51 6 69 25 23 22 25 32 25 108 0 117
15 127 65 48 44 -71 71 -91 123 -91 89 0 131 41 119 116 -7 41 15 94 37 94 7
0 18 -12 24 -27z m-5946 -31 c22 -26 84 -60 101 -54 5 1 6 -2 2 -8 -10 -17
-58 0 -88 31 -21 22 -37 29 -67 29 -45 0 -70 -26 -71 -75 0 -28 -1 -29 -11 -8
-16 33 -1 71 35 93 44 27 71 25 99 -8z m1353 -32 c8 -16 15 -44 15 -63 0 -43
18 -66 65 -82 54 -19 78 -6 104 54 24 56 58 85 87 74 30 -11 34 -23 34 -105 0
-75 1 -77 33 -102 48 -37 88 -34 136 9 50 45 101 50 101 9 0 -15 -10 -42 -21
-61 -25 -41 -22 -101 9 -142 24 -33 47 -36 122 -17 71 19 90 13 90 -24 0 -22
-12 -39 -50 -71 -52 -44 -57 -59 -44 -129 10 -47 53 -70 132 -70 59 0 62 -1
62 -25 0 -19 -13 -32 -54 -59 -29 -19 -61 -45 -70 -57 -40 -58 1 -139 84 -162
42 -12 45 -15 45 -47 l0 -35 -72 3 -72 4 -25 -51 c-14 -28 -26 -59 -26 -69 0
-22 48 -99 78 -126 12 -11 22 -27 22 -38 0 -14 -8 -18 -40 -18 -22 0 -57 7
-77 15 -54 23 -73 19 -115 -25 -44 -47 -48 -77 -17 -120 13 -17 24 -50 27 -79
4 -45 2 -51 -15 -51 -23 0 -63 27 -63 42 0 22 -44 58 -69 58 -36 0 -103 -40
-118 -70 -12 -24 -12 -38 3 -140 5 -37 4 -40 -19 -40 -30 0 -50 22 -77 83 -29
66 -93 87 -160 52 -40 -21 -50 -44 -57 -126 -5 -63 -8 -69 -28 -69 -32 0 -41
17 -49 89 -9 90 -22 107 -88 114 -70 6 -104 -11 -118 -61 -15 -52 -34 -74 -62
-70 -21 3 -23 8 -26 78 -3 111 -7 119 -58 141 -53 24 -75 19 -127 -28 -73 -65
-111 -22 -62 70 31 59 31 72 3 113 -46 67 -87 74 -172 31 -38 -18 -40 -19 -53
-1 -21 29 -16 41 31 73 51 35 56 46 56 113 0 41 -5 54 -29 79 -27 26 -36 29
-94 29 -46 0 -68 4 -77 16 -17 20 0 37 77 78 64 34 81 66 69 129 -6 30 -15 38
-81 73 -41 21 -75 42 -75 45 0 21 46 42 103 46 l64 6 22 44 c11 24 21 55 21
68 0 26 -6 33 -79 97 -31 27 -42 44 -39 60 3 21 8 23 55 23 39 -1 61 -7 84
-24 40 -29 66 -23 113 29 47 53 47 82 -3 156 -30 44 -37 63 -30 76 8 14 14 15
42 6 17 -6 49 -26 70 -45 20 -18 44 -33 52 -33 9 0 38 11 65 25 56 28 68 54
51 108 -12 36 -3 78 19 92 14 9 47 -20 67 -58 16 -32 66 -57 112 -57 49 0 80
36 93 108 11 61 12 62 45 62 26 0 36 -6 48 -30z m-1395 -176 c45 -42 50 -51
50 -89 0 -41 -11 -59 -50 -80 -11 -6 -10 -3 3 12 9 11 17 28 16 39 0 17 -1 17
-9 -2 -13 -33 -64 -64 -103 -64 -55 0 -67 8 -67 46 0 32 2 33 29 28 46 -9 71
26 71 98 0 32 2 58 5 58 3 0 28 -21 55 -46z m7397 -116 c-3 -7 -5 -2 -5 12 0
14 2 19 5 13 2 -7 2 -19 0 -25z m-3703 -150 c8 -13 19 -57 26 -98 12 -81 18
-92 52 -96 13 -1 48 -5 79 -9 76 -10 95 2 115 73 18 64 53 102 96 102 41 0 58
-33 58 -110 0 -110 52 -170 148 -170 38 0 49 6 94 50 28 27 65 55 81 61 28 12
32 10 54 -15 l23 -27 -25 -43 c-14 -24 -25 -58 -25 -76 0 -43 32 -93 76 -121
44 -27 107 -22 155 12 70 50 104 60 127 37 21 -21 13 -73 -18 -119 -16 -24
-30 -56 -30 -71 0 -28 30 -88 63 -125 27 -30 92 -31 146 -3 61 32 105 15 117
-47 5 -25 1 -33 -30 -57 -49 -37 -70 -79 -63 -129 7 -49 64 -136 95 -144 13
-3 48 3 78 13 49 17 58 17 81 4 62 -36 56 -69 -21 -111 -67 -37 -81 -61 -81
-141 0 -62 2 -70 31 -99 26 -26 42 -32 100 -39 95 -12 113 -19 120 -45 12 -47
2 -58 -71 -82 -46 -15 -80 -34 -97 -53 -25 -27 -28 -37 -28 -106 l0 -75 46
-20 c57 -26 72 -54 55 -108 -9 -33 -18 -42 -49 -51 -51 -17 -82 -38 -82 -56 0
-9 14 -33 30 -54 17 -21 30 -50 30 -64 0 -31 -4 -32 -37 -6 -20 16 -29 18 -40
9 -11 -10 -9 -17 12 -39 15 -15 41 -36 60 -46 41 -22 78 -89 64 -116 -18 -34
-56 -40 -105 -19 -24 11 -44 25 -44 31 0 17 -111 131 -137 141 -13 5 -37 6
-53 2 -41 -8 -61 -48 -63 -126 -2 -102 20 -136 182 -291 23 -21 41 -44 41 -52
0 -29 -21 -65 -45 -76 -21 -10 -32 -8 -65 11 -22 12 -61 24 -87 27 -42 5 -53
2 -90 -25 -31 -22 -44 -40 -49 -66 -7 -40 -6 -45 31 -133 15 -36 25 -77 23
-95 -3 -29 -7 -32 -39 -35 -29 -2 -44 4 -85 37 -41 35 -55 41 -95 41 -64 0
-75 -5 -115 -58 -29 -38 -34 -53 -34 -97 0 -29 7 -70 16 -91 15 -37 15 -39 -6
-56 -12 -10 -31 -18 -42 -18 -23 0 -88 61 -88 82 0 8 -12 25 -26 39 -52 49
-162 22 -212 -52 -21 -31 -23 -41 -17 -105 8 -84 -2 -99 -61 -88 l-37 7 7 191
c4 105 8 192 10 193 1 2 26 7 54 13 83 15 392 179 485 256 16 13 42 24 58 24
32 0 52 29 64 93 5 23 14 39 26 42 10 4 19 12 19 18 0 7 25 50 55 96 30 46 55
88 55 93 0 6 14 40 31 76 68 146 139 394 139 483 0 31 -3 37 -22 37 -19 1 -80
4 -225 11 -7 1 -13 10 -13 21 0 45 -70 37 -90 -10 -11 -28 -16 -30 -64 -31
-28 0 -71 -4 -95 -7 l-45 -7 -41 -120 c-23 -66 -58 -153 -79 -193 l-37 -74 24
-31 c31 -41 88 -97 99 -97 20 0 58 -81 58 -126 0 -43 -2 -46 -22 -41 -13 4
-53 9 -90 13 -62 6 -70 10 -130 62 -34 30 -63 59 -63 63 0 4 -3 10 -6 13 -9 9
-151 -54 -191 -85 -31 -25 -46 -29 -95 -29 -76 0 -85 7 -81 60 l3 43 82 22
c45 13 97 32 116 44 54 33 209 201 241 260 66 123 80 268 46 474 -23 138 -41
180 -112 263 -29 34 -65 77 -80 96 -55 73 -258 156 -403 165 -143 8 -222 -8
-354 -72 -93 -46 -126 -68 -181 -123 -85 -85 -124 -146 -157 -247 -25 -73 -27
-94 -28 -245 l0 -165 66 -125 c58 -111 73 -131 130 -178 35 -29 89 -65 119
-81 30 -15 74 -41 97 -58 27 -19 60 -33 91 -37 47 -6 48 -7 44 -36 -5 -38 -21
-46 -99 -53 -46 -4 -65 -1 -74 9 -6 8 -16 14 -21 14 -15 0 -128 72 -128 81 0
18 -47 8 -97 -21 -28 -16 -64 -47 -80 -70 -30 -43 -19 -40 -165 -44 -20 -1
-24 5 -28 51 l-6 53 58 41 c32 23 70 60 85 83 15 23 31 43 36 44 13 7 7 22
-36 84 -54 80 -100 203 -101 273 l0 53 -83 7 c-45 4 -90 4 -100 1 -13 -4 -26
6 -47 35 -30 42 -43 45 -60 13 -6 -10 -12 -21 -13 -23 -3 -5 -39 -7 -171 -9
l-108 -2 3 -87 c6 -120 41 -243 114 -393 67 -137 159 -284 190 -300 14 -8 19
-21 19 -48 0 -30 7 -45 33 -69 38 -36 88 -63 117 -63 11 0 23 -6 26 -14 6 -15
116 -96 131 -96 5 0 10 16 11 37 2 20 6 41 9 46 3 5 34 7 72 4 36 -3 101 -9
144 -13 42 -4 77 -11 77 -15 0 -5 -7 -9 -16 -9 -9 0 -56 -24 -106 -54 -88 -54
-89 -55 -66 -69 31 -20 111 -52 171 -69 27 -7 54 -19 60 -26 7 -9 11 -78 11
-200 l1 -187 -32 -3 c-58 -6 -66 6 -64 93 2 56 -2 83 -13 101 -22 33 -93 67
-143 68 -38 1 -46 -3 -75 -39 -77 -93 -71 -89 -114 -78 -33 8 -39 13 -37 34 1
13 5 59 9 102 8 88 3 98 -75 149 -60 37 -86 35 -147 -11 -29 -21 -61 -42 -73
-46 -26 -8 -71 18 -71 41 0 22 29 75 58 106 21 23 24 34 19 68 -7 53 -45 103
-100 129 -57 28 -82 26 -146 -9 -57 -32 -70 -30 -92 12 -9 16 -2 28 40 73 49
52 68 91 58 118 -3 8 7 39 22 71 25 50 27 63 20 109 -6 39 -15 58 -36 74 -48
39 -73 31 -147 -47 -51 -54 -72 -70 -93 -70 -34 0 -46 8 -62 37 -20 39 -13 60
29 82 93 49 122 72 117 94 -29 132 -59 184 -110 189 -31 3 -32 4 -35 56 -3 47
-1 53 21 61 38 15 77 68 77 106 0 61 -12 95 -49 136 -31 34 -45 42 -99 52 -51
10 -64 16 -68 34 -15 59 32 93 133 93 54 0 64 3 82 26 44 56 51 134 17 186 -9
13 -38 35 -65 48 -47 24 -50 27 -53 70 -2 25 1 48 6 52 6 4 57 8 112 8 116 0
143 13 165 77 19 57 14 82 -23 121 -39 42 -88 113 -88 128 0 6 13 23 29 38 34
33 60 31 120 -10 62 -42 91 -34 166 43 63 65 75 83 55 83 -5 0 -26 32 -45 70
-38 75 -39 112 -5 130 33 18 52 11 101 -35 42 -39 54 -45 91 -45 44 0 71 13
121 58 34 32 36 81 8 182 -23 81 -15 95 51 95 31 0 45 -6 59 -25 70 -92 80
-100 113 -100 42 0 96 22 120 49 14 15 18 35 17 77 0 31 -3 59 -6 64 -6 10 66
60 86 60 9 0 26 -19 39 -42 13 -24 38 -62 57 -85 34 -42 35 -43 98 -43 99 0
109 7 123 83 7 35 12 76 12 90 0 53 95 80 124 35z m1480 -792 c-3 -11 -13 -28
-22 -36 -14 -14 -15 -13 -3 2 8 10 11 28 7 43 -5 19 -3 23 9 19 11 -4 14 -13
9 -28z m-87 -198 c9 -11 30 -18 50 -18 24 0 33 -4 33 -17 0 -14 3 -14 23 4 42
38 52 36 17 -3 -46 -51 -50 -54 -81 -54 -31 0 -52 22 -74 74 -14 33 -14 43 -3
70 l13 31 3 -35 c2 -19 11 -43 19 -52z m-2852 52 c10 -11 16 -20 13 -20 -3 0
-13 9 -23 20 -10 11 -16 20 -13 20 3 0 13 -9 23 -20z m-201 -35 c4 -10 14 -13
36 -9 35 8 38 -1 8 -25 l-22 -18 30 4 c29 4 124 -30 107 -39 -18 -10 -136 -8
-148 2 -9 8 -15 8 -20 0 -12 -19 -37 -12 -30 9 4 15 -1 21 -22 29 l-28 9 28
13 c15 7 27 19 27 27 0 18 26 17 34 -2z m3306 -77 c0 -7 -4 -19 -9 -27 -8 -12
-12 -12 -25 -2 -21 17 -20 28 2 34 29 8 32 7 32 -5z m-1540 -218 c124 -36 241
-137 324 -278 l49 -84 5 -112 c6 -155 -7 -197 -104 -326 -75 -100 -102 -125
-138 -132 -14 -2 -19 4 -22 27 -1 17 -5 45 -8 62 -2 18 0 35 5 38 5 4 9 22 9
41 0 29 -10 46 -57 95 -31 33 -73 67 -92 75 -20 9 -47 21 -59 27 -37 18 -123
14 -157 -8 -88 -54 -136 -91 -150 -112 -10 -15 -25 -23 -44 -23 -40 0 -58 -24
-32 -42 13 -9 17 -19 11 -28 -5 -9 2 -23 25 -44 32 -30 33 -34 22 -68 -10 -32
-14 -35 -31 -26 -39 21 -108 94 -154 162 -39 58 -51 88 -66 159 -22 102 -19
130 25 274 31 98 39 112 92 169 92 99 224 159 392 177 41 4 78 -1 155 -23z
m3608 -27 c2 -9 -8 -13 -32 -13 -45 0 -55 -20 -30 -56 27 -38 30 -44 44 -89
25 -76 8 -190 -33 -224 -10 -7 -44 -19 -76 -26 l-60 -12 -53 58 c-40 44 -61
59 -80 59 -30 0 -58 -32 -58 -66 0 -29 36 -114 48 -114 5 0 15 -14 22 -30 27
-65 -15 -252 -68 -305 -22 -23 -31 -25 -66 -19 -23 3 -62 17 -88 30 -76 38
-148 30 -218 -26 -32 -26 -40 -38 -40 -65 0 -52 16 -82 70 -137 71 -71 80
-151 24 -218 -23 -27 -32 -30 -83 -30 -32 0 -78 7 -104 16 -68 23 -91 17 -95
-26 -2 -31 5 -42 60 -100 86 -88 113 -126 137 -190 34 -90 24 -170 -21 -170
-20 0 -20 1 -5 18 49 54 -2 187 -117 307 -82 85 -92 105 -82 160 6 29 12 35
41 41 21 4 52 0 81 -10 26 -9 71 -16 99 -16 66 0 87 21 93 93 4 52 3 52 -51
107 -86 87 -101 170 -41 227 52 49 85 63 156 66 54 2 73 -3 130 -31 58 -28 70
-31 87 -20 58 36 107 264 65 299 -20 16 -64 114 -64 141 0 28 27 76 51 89 12
6 36 8 54 5 31 -6 43 -16 101 -80 23 -25 30 -28 70 -23 58 6 80 27 94 88 15
61 9 94 -30 171 -32 62 -38 106 -18 126 16 16 80 11 86 -5z m-5372 -158 c-11
-8 -22 -12 -25 -9 -6 6 19 24 34 24 6 -1 1 -7 -9 -15z m-2080 -190 c7 -19 14
-47 14 -63 0 -60 97 -117 155 -90 16 7 38 34 56 67 51 99 73 112 118 69 22
-20 23 -27 18 -92 -8 -88 4 -114 60 -134 61 -23 113 -5 155 53 32 44 66 63 87
50 14 -8 14 -57 0 -128 -10 -50 -10 -59 9 -89 25 -40 53 -56 102 -60 31 -3 34
-6 35 -33 0 -28 -3 -30 -45 -35 -25 -3 -57 -14 -72 -23 -26 -18 -27 -18 -73
17 -59 45 -157 100 -231 130 -33 13 -68 27 -79 31 -11 4 -24 9 -30 10 -5 1
-13 3 -17 5 -20 7 -132 31 -165 34 -15 2 -73 4 -127 5 l-99 1 6 132 c6 129 7
132 34 155 42 34 71 30 89 -12z m5335 -171 c11 -31 8 -37 -15 -28 -17 7 -23
54 -6 54 6 0 15 -12 21 -26z m1499 16 c12 -8 12 -10 -5 -10 -11 0 -27 5 -35
10 -12 8 -12 10 5 10 11 0 27 -5 35 -10z m-4760 -45 c-7 -9 -15 -13 -18 -10
-3 2 1 11 8 20 7 9 15 13 18 10 3 -2 -1 -11 -8 -20z m2671 -18 c-10 -9 -11 -8
-5 6 3 10 9 15 12 12 3 -3 0 -11 -7 -18z m2140 -21 c16 -58 -31 -110 -93 -104
-28 3 -33 7 -36 31 -4 34 17 61 68 88 43 22 52 20 61 -15z m-4154 -111 c11
-27 26 -62 32 -77 l11 -28 -55 0 -55 0 -20 45 c-11 25 -29 66 -40 91 -23 51
-20 65 11 46 26 -16 39 -8 39 25 0 25 1 24 28 -13 15 -21 37 -61 49 -89z
m-1454 74 c31 -18 57 -36 57 -40 0 -11 -144 -59 -178 -59 -40 0 -67 -13 -188
-95 -56 -38 -110 -66 -133 -70 -43 -7 -103 -61 -120 -108 -18 -47 -12 -138 16
-258 33 -140 41 -281 19 -333 -18 -43 -40 -50 -29 -8 18 63 5 162 -41 305 -49
158 -63 260 -42 311 7 18 33 49 56 69 37 31 51 37 90 37 25 0 51 5 58 12 7 7
12 35 12 63 0 137 112 221 285 211 68 -3 89 -9 138 -37z m1278 -55 c8 -11 1
-8 -17 6 -30 25 -36 52 -18 82 6 9 11 -1 14 -29 4 -23 13 -49 21 -59z m1198
74 c5 -13 7 -27 4 -31 -8 -13 -33 14 -33 34 0 26 19 24 29 -3z m1249 5 c23 -5
24 -9 18 -56 -9 -66 -88 -312 -132 -408 -19 -42 -34 -81 -34 -87 0 -11 -85
-138 -108 -161 -11 -12 -12 1 -8 85 11 212 20 399 18 407 -2 5 10 23 26 41 19
22 34 57 46 107 10 41 23 78 30 82 11 8 97 2 144 -10z m-2127 -54 c10 -69 56
-187 95 -248 47 -71 40 -95 -56 -175 l-35 -29 -7 39 c-10 58 -9 122 2 129 32
20 -10 190 -55 219 -14 9 -36 39 -50 67 l-26 50 63 -3 63 -3 6 -46z m1799 45
c0 -11 -24 -50 -61 -96 -44 -56 -55 -99 -72 -288 l-12 -132 -77 75 -76 76 36
68 c20 37 53 117 73 178 l37 110 39 6 c52 8 113 10 113 3z m775 -131 l7 -83
-33 0 c-19 0 -48 -9 -66 -20 l-32 -19 -20 28 -21 28 46 18 c59 22 84 62 85
135 1 54 1 55 14 25 7 -16 16 -67 20 -112z m-1632 97 c-4 -22 0 -36 12 -50 14
-15 15 -20 4 -20 -33 1 -53 36 -43 76 9 37 35 31 27 -6z m-1832 -22 c0 -24 5
-59 12 -78 11 -31 17 -36 52 -40 47 -6 55 -25 26 -61 -17 -21 -22 -22 -40 -11
-11 6 -34 12 -50 12 -32 0 -45 20 -35 53 4 11 -3 39 -16 66 -27 58 -16 101 25
101 23 0 25 -4 26 -42z m2757 30 c10 -10 17 -10 31 -1 18 11 18 10 6 -42 -7
-30 -25 -69 -41 -89 -26 -30 -35 -35 -77 -35 -45 -1 -48 0 -42 21 4 11 27 48
51 81 24 32 44 63 44 68 0 13 14 11 28 -3z m2646 -25 c-80 -56 -193 -143 -239
-185 -115 -104 -270 -359 -331 -542 -32 -95 -34 -109 -34 -239 0 -106 -3 -138
-12 -135 -9 3 -14 41 -16 133 -2 121 -1 136 29 230 57 184 221 459 340 571
106 98 271 213 278 192 2 -6 -5 -18 -15 -25z m-1752 -1 c-1 -7 3 -12 10 -11
42 5 52 -12 69 -124 11 -74 36 -117 69 -117 9 0 26 -13 38 -30 12 -16 34 -33
47 -36 31 -8 31 -11 -2 -106 -30 -84 -27 -110 16 -116 17 -3 21 -10 21 -40 0
-21 4 -52 9 -70 l10 -33 -66 3 -66 3 -56 101 c-31 56 -61 108 -68 115 -24 29
-134 259 -128 269 3 5 -1 10 -9 10 -16 0 -21 12 -32 73 -4 25 -3 37 5 37 7 0
17 14 23 30 5 17 22 37 37 45 31 17 77 16 73 -3z m893 -92 c9 -17 10 -31 4
-41 -5 -8 -9 -43 -9 -79 1 -73 9 -87 77 -137 23 -17 39 -33 36 -37 -3 -3 3 -6
15 -6 52 0 86 -97 46 -131 -21 -18 -89 -12 -141 12 -67 30 -123 25 -177 -16
-61 -47 -62 -21 -1 47 52 58 75 123 75 212 0 60 -6 75 -56 143 -15 20 -14 23
5 40 12 10 36 23 54 29 36 13 50 6 72 -36z m-6352 -2 c53 -12 97 -26 97 -31 0
-4 4 -6 9 -3 9 6 112 -32 121 -45 3 -3 16 -10 30 -14 14 -4 41 -20 60 -35 19
-15 49 -35 65 -44 l30 -17 1 -107 c1 -110 -1 -105 71 -322 34 -101 30 -199
-10 -257 -15 -21 -27 -47 -27 -57 0 -15 5 -17 32 -12 59 12 114 52 139 103 23
45 24 57 22 211 -2 180 1 189 50 110 25 -40 27 -48 15 -74 -14 -34 -15 -293 0
-366 l9 -48 -61 -2 c-202 -8 -472 29 -568 77 -69 35 -162 100 -202 141 -33 34
-126 192 -126 214 0 5 -12 35 -27 67 -28 57 -28 61 -31 295 -3 222 -2 237 15
242 34 10 188 -4 286 -26z m3738 -1 c-8 -8 -11 -7 -11 4 0 20 13 34 18 19 3
-7 -1 -17 -7 -23z m-718 -51 c19 6 20 5 8 -9 -7 -9 -10 -24 -7 -33 5 -14 4
-15 -8 -5 -11 9 -16 9 -22 0 -4 -8 -11 -4 -19 12 -10 17 -10 27 -2 41 10 15
13 16 20 2 6 -10 16 -13 30 -8z m-1814 -23 c-2 -45 -14 -80 -23 -65 -11 18
-76 16 -76 -3 0 -9 9 -15 23 -15 20 0 22 -4 19 -45 -3 -35 -1 -45 11 -45 21 0
31 34 18 59 -14 26 -14 28 4 28 9 0 15 -10 15 -25 0 -14 10 -40 21 -59 l21
-34 -23 -25 c-15 -16 -26 -21 -33 -14 -25 25 -116 2 -116 -29 0 -14 59 -51 83
-51 9 0 17 -5 17 -10 0 -19 -54 -32 -108 -27 -41 4 -54 2 -59 -9 -3 -8 -13
-14 -23 -14 -32 0 -120 23 -120 31 0 5 13 22 30 39 16 17 37 41 45 54 15 22
14 27 -4 57 -25 40 -27 84 -6 93 27 10 45 -5 45 -39 0 -18 7 -38 15 -45 22
-19 55 14 55 54 0 17 6 40 14 51 7 11 19 37 25 57 11 32 18 38 49 43 20 4 42
8 47 10 26 9 35 3 34 -22z m1420 -65 c13 -69 32 -229 29 -248 -4 -25 13 -149
21 -154 8 -5 216 5 499 24 109 7 168 8 176 1 6 -5 75 -13 151 -16 111 -6 144
-4 158 7 15 11 47 11 195 1 97 -6 222 -12 276 -12 55 -1 128 -6 164 -12 67
-12 84 -7 88 28 1 10 10 111 20 226 l17 207 56 0 56 0 -3 -117 c-6 -247 -20
-470 -30 -489 -9 -18 -28 -22 -134 -33 -68 -7 -136 -15 -153 -18 -16 -3 -88
-6 -160 -7 -139 -2 -172 -11 -179 -49 -3 -12 -9 -92 -15 -177 -21 -315 -24
-476 -10 -650 11 -148 11 -173 -2 -181 -21 -13 -436 -11 -562 3 l-109 12 8
121 c15 199 9 523 -11 704 -15 129 -16 167 -7 182 15 24 12 25 -93 33 -506 38
-491 35 -539 99 l-26 34 0 260 c0 143 3 263 7 266 3 4 28 7 54 7 l48 0 10 -52z
m2818 -231 c133 -246 144 -262 170 -263 15 0 81 -1 146 -2 l117 -2 -29 -58
c-16 -32 -35 -63 -43 -69 -7 -6 -68 -26 -135 -44 l-122 -32 -72 59 c-47 39
-77 72 -89 99 -10 22 -40 87 -68 145 -27 58 -53 116 -57 130 -4 14 -27 67 -52
117 -57 119 -59 139 -13 164 19 10 51 19 70 19 l35 -1 142 -262z m-3597 228
c10 -12 3 -34 -38 -122 -27 -60 -55 -124 -62 -143 -7 -19 -28 -62 -46 -95 -17
-33 -35 -75 -39 -92 -4 -22 -19 -41 -43 -59 -77 -54 -177 -114 -189 -114 -8 0
-48 17 -91 39 -42 21 -109 48 -147 60 -53 15 -80 30 -108 59 -43 44 -46 57
-14 66 49 13 81 6 103 -21 l22 -28 151 -3 151 -3 9 24 c21 55 193 345 233 394
45 55 83 68 108 38z m1476 -72 c4 -19 4 -37 0 -40 -8 -8 -36 61 -36 89 1 22 1
22 15 4 8 -11 18 -35 21 -53z m2384 64 c0 -2 -12 -14 -27 -28 l-28 -24 24 28
c23 25 31 32 31 24z m138 -23 c95 -28 132 -54 132 -95 0 -15 5 -31 12 -35 11
-7 42 23 51 49 3 9 9 9 30 0 34 -16 36 -52 7 -108 -12 -23 -19 -51 -16 -66 5
-27 -2 -34 -87 -77 -60 -30 -177 -48 -189 -30 -10 16 -11 61 0 54 12 -7 74 23
67 34 -8 14 -25 13 -57 -4 -24 -13 -28 -13 -29 0 -1 8 -2 19 -3 25 -1 9 -26
29 -43 35 -2 0 9 28 24 62 27 63 43 81 36 40 -2 -13 1 -30 6 -38 15 -22 33 1
29 36 -2 19 3 34 16 45 27 22 12 42 -26 34 -34 -8 -48 5 -48 44 0 17 4 22 15
17 9 -3 41 -13 73 -22z m-2111 -26 c-3 -8 -6 -5 -6 6 -1 11 2 17 5 13 3 -3 4
-12 1 -19z m-3034 -65 c36 -59 82 -113 95 -113 23 -1 34 -18 23 -39 -17 -30
-28 -26 -50 18 -11 21 -43 59 -71 84 -47 42 -64 80 -43 100 9 10 7 12 46 -50z
m1447 -77 c-5 -5 -4 -15 2 -25 13 -21 -16 -83 -59 -124 -48 -49 -123 -98 -123
-83 0 8 -16 28 -36 44 -32 27 -35 33 -29 66 6 29 12 36 30 36 15 0 49 26 100
78 l77 77 24 -30 c14 -17 20 -33 14 -39z m2764 43 c11 10 21 4 48 -30 50 -63
79 -89 99 -89 17 0 21 -7 33 -61 5 -25 2 -28 -37 -38 -24 -5 -52 -19 -62 -30
-17 -20 -19 -20 -47 -3 -39 22 -105 102 -119 141 -8 23 -8 35 1 46 8 10 8 19
1 33 -9 17 -8 19 9 15 13 -3 22 1 26 11 5 13 9 14 20 5 11 -9 17 -9 28 0z
m-3753 -54 c1 -16 -16 -16 -36 0 -19 15 -19 15 8 13 15 -2 28 -7 28 -13z
m2459 -45 c0 -17 -6 -20 -42 -19 l-43 1 40 19 c22 10 41 19 43 19 1 0 2 -9 2
-20z m1600 -12 c0 -7 25 -64 55 -127 l56 -115 -58 55 c-32 30 -74 68 -94 84
-40 33 -60 75 -36 75 8 0 25 9 38 20 28 23 39 25 39 8z m-2137 -14 c18 -9 42
-25 54 -34 22 -17 19 -18 -93 -24 -64 -4 -118 -6 -120 -3 -18 18 59 74 104 76
13 1 37 -6 55 -15z m387 12 c0 -2 -9 -6 -20 -9 -11 -3 -18 -1 -14 4 5 9 34 13
34 5z m595 -36 l40 -40 -75 1 c-41 0 -95 4 -119 7 -37 6 -42 9 -29 20 16 12
114 50 133 51 6 0 28 -18 50 -39z m-432 -30 c5 -19 0 -20 -81 -19 -48 1 -100
5 -117 9 l-30 7 25 11 c14 6 64 11 111 11 79 1 87 -1 92 -19z m2490 -20 c5
-20 -7 -31 -72 -65 -69 -35 -117 -38 -78 -5 19 17 131 89 138 90 4 0 9 -9 12
-20z m-5134 -74 c20 -14 55 -44 76 -66 31 -31 56 -46 110 -62 38 -11 105 -38
147 -59 123 -62 108 -67 430 149 96 64 129 74 160 45 27 -24 23 -37 -29 -79
-27 -21 -73 -64 -103 -95 -30 -31 -95 -87 -145 -124 -49 -37 -106 -82 -125
-99 -68 -62 -61 -61 -155 -31 -55 18 -85 32 -85 42 0 9 -8 13 -21 11 -14 -2
-32 -23 -54 -68 -34 -66 -57 -163 -77 -325 -5 -44 -11 -81 -13 -83 -22 -22
-187 -22 -288 0 -48 10 -49 11 -43 42 19 107 18 164 -8 301 -32 175 -43 358
-26 440 21 100 18 99 122 92 75 -5 97 -10 127 -31z m4208 -23 c38 -32 93 -79
123 -105 127 -109 215 -178 230 -178 8 0 78 19 155 41 77 23 156 44 175 46 19
3 37 9 40 12 10 13 135 78 193 100 32 12 71 28 87 36 26 13 30 13 66 -14 39
-28 80 -75 103 -120 10 -17 12 -81 10 -245 -2 -121 -2 -302 -1 -401 l3 -180
41 -118 c22 -64 39 -120 36 -122 -8 -8 -149 -24 -214 -25 l-61 0 -14 148 c-21
223 -17 516 7 625 11 48 17 92 13 98 -5 8 -80 -4 -250 -39 -134 -28 -283 -59
-330 -68 l-85 -18 -257 254 c-141 140 -257 259 -257 266 0 21 59 55 112 63 3
1 37 -25 75 -56z m993 28 c5 -11 10 -24 10 -29 0 -6 -44 -27 -97 -48 -54 -22
-101 -40 -104 -42 -3 -1 -11 9 -17 22 -10 23 -9 26 22 36 18 6 62 26 97 45 75
41 75 41 89 16z m-297 -28 c-18 -2 -48 -2 -65 0 -18 2 -4 4 32 4 36 0 50 -2
33 -4z m16 -109 c-11 -36 -23 -53 -42 -54 -4 0 4 23 19 51 29 59 38 60 23 3z
m-848 -304 c-146 -3 -274 -9 -283 -14 -14 -6 -18 -4 -18 9 0 9 -16 53 -35 96
-19 44 -35 87 -35 96 0 9 16 31 36 50 32 30 40 33 72 27 21 -4 49 -15 64 -25
34 -25 109 -25 131 -1 8 9 21 30 27 46 l11 29 148 -154 148 -154 -266 -5z
m-684 234 c-31 -31 -395 -220 -404 -210 -3 2 -21 -2 -40 -11 l-36 -15 7 88 c3
48 11 93 16 99 5 7 7 15 3 18 -7 8 1 8 147 8 58 0 139 6 180 13 85 15 136 19
127 10z m1752 -385 c-20 -118 -21 -135 -10 -344 7 -121 15 -253 18 -294 l6
-74 -84 7 c-46 4 -87 11 -91 14 -9 9 -35 251 -42 397 -4 76 0 151 12 245 l17
135 95 21 c52 12 96 20 98 19 1 -1 -7 -58 -19 -126z m-4813 -1516 c14 -92 9
-135 -52 -393 -13 -58 -29 -149 -34 -204 -6 -54 -12 -102 -15 -106 -3 -5 -12
-77 -20 -161 l-14 -153 27 -29 c15 -16 48 -40 75 -53 26 -13 47 -26 47 -28 0
-13 -102 19 -136 43 -23 16 -57 34 -75 41 l-34 12 -3 307 c-3 298 5 447 32
588 13 65 10 80 -26 120 l-20 21 48 7 c27 3 74 12 104 20 88 21 88 21 96 -32z
m-350 -12 c-2 -9 -10 -41 -16 -71 -15 -68 -65 -208 -129 -360 -97 -229 -120
-287 -167 -427 -56 -167 -54 -175 28 -222 69 -40 45 -40 -40 0 -37 17 -82 38
-101 46 l-34 14 7 63 c3 35 12 83 20 107 20 63 71 293 96 434 26 140 42 186
104 294 27 48 46 93 46 111 l0 30 95 -1 c84 -1 95 -3 91 -18z m109 -88 c-24
-141 -29 -236 -30 -558 -1 -198 -5 -380 -9 -405 -22 -139 -27 -152 -44 -137
-10 8 -78 42 -154 77 -75 35 -148 72 -162 84 l-27 21 49 145 c47 138 85 235
185 470 58 138 103 270 118 349 l12 63 34 -38 c27 -32 32 -45 28 -71z"/>
<path d="M1810 8515 c-7 -9 -11 -17 -9 -20 3 -2 10 5 17 15 14 24 10 26 -8 5z"/>
<path d="M1903 8203 c-19 -7 -16 -19 5 -19 10 0 19 6 19 13 0 14 -4 15 -24 6z"/>
<path d="M1960 8179 c0 -5 5 -7 10 -4 6 3 10 8 10 11 0 2 -4 4 -10 4 -5 0 -10
-5 -10 -11z"/>
<path d="M1928 7783 c6 -2 18 -2 25 0 6 3 1 5 -13 5 -14 0 -19 -2 -12 -5z"/>
<path d="M8444 5239 c-19 -22 -19 -22 4 -8 12 8 22 17 22 21 0 12 -6 9 -26
-13z"/>
<path d="M6631 6934 c0 -11 3 -14 6 -6 3 7 2 16 -1 19 -3 4 -6 -2 -5 -13z"/>
<path d="M2656 7243 c-6 -14 -5 -15 5 -6 7 7 10 15 7 18 -3 3 -9 -2 -12 -12z"/>
<path d="M5145 6980 c-3 -6 1 -7 9 -4 18 7 21 14 7 14 -6 0 -13 -4 -16 -10z"/>
<path d="M4975 6810 c-3 -6 1 -7 9 -4 18 7 21 14 7 14 -6 0 -13 -4 -16 -10z"/>
<path d="M7225 6916 c-249 -49 -438 -213 -523 -455 -23 -67 -26 -91 -27 -206
0 -117 3 -139 29 -219 57 -174 177 -311 341 -391 115 -55 176 -70 300 -70 124
0 184 15 304 72 156 75 277 212 339 385 23 65 26 88 26 213 1 128 -1 147 -27
221 -90 262 -327 442 -604 458 -55 4 -114 0 -158 -8z m269 -112 c150 -39 297
-154 368 -290 48 -92 68 -173 68 -279 0 -163 -56 -301 -170 -415 -114 -114
-252 -170 -415 -170 -163 0 -301 56 -415 170 -114 114 -170 252 -170 415 0 48
7 115 16 149 50 195 213 361 409 417 78 23 227 24 309 3z"/>
<path d="M2572 6880 c-128 -34 -198 -75 -298 -175 -131 -131 -187 -248 -200
-420 -28 -353 251 -671 612 -700 43 -3 104 -1 134 5 30 5 69 13 85 16 17 3 68
24 114 46 120 57 241 178 300 298 46 96 71 199 71 299 0 112 -52 284 -104 341
-12 14 -28 38 -36 53 -9 17 -30 35 -52 44 -21 8 -38 20 -38 25 0 6 8 4 18 -3
15 -13 16 -12 3 3 -7 10 -17 15 -22 12 -5 -3 -14 6 -20 20 -19 40 -92 84 -204
123 -100 35 -261 41 -363 13z m308 -126 c227 -64 382 -270 382 -507 -1 -158
-46 -271 -152 -378 -210 -212 -544 -214 -756 -4 -102 101 -154 229 -154 381 0
183 88 344 243 445 129 84 283 106 437 63z"/>
<path d="M4895 6302 c-229 -25 -448 -96 -604 -197 -57 -37 -75 -44 -86 -35
-18 15 -36 4 -28 -15 3 -9 0 -22 -7 -29 -6 -8 -13 -33 -14 -55 -3 -39 0 -43
74 -113 130 -122 243 -223 276 -247 l31 -23 54 23 c30 13 74 35 99 50 25 15
74 34 110 43 36 8 81 21 100 30 l35 14 0 199 c1 109 5 232 9 274 9 84 7 87
-49 81z m21 -46 c3 -8 -1 -49 -10 -91 -9 -43 -14 -81 -11 -85 3 -5 0 -12 -7
-17 -14 -8 -19 -9 -56 -11 -13 -1 -34 -13 -47 -27 -35 -34 -33 -83 3 -122 15
-16 46 -52 70 -81 l43 -52 -26 -10 c-14 -5 -55 -17 -91 -25 -37 -8 -78 -23
-93 -34 -29 -20 -138 -71 -152 -71 -18 0 -161 144 -147 149 26 7 58 45 58 67
0 34 -20 73 -41 79 -10 3 -21 15 -24 25 -3 11 -24 35 -47 54 -31 27 -38 39
-33 55 16 52 263 153 455 187 157 27 150 27 156 10z m-621 -265 c16 -9 37 -29
45 -45 14 -26 14 -28 -9 -47 -36 -29 -75 -24 -110 14 -32 34 -43 90 -18 101
17 7 57 -3 92 -23z m592 17 c13 -16 28 -197 15 -183 -5 6 -32 38 -60 73 -46
56 -51 66 -41 85 7 12 17 25 23 29 17 12 53 9 63 -4z"/>
<path d="M5152 6298 c-37 -48 -42 -76 -42 -249 0 -176 13 -298 34 -304 171
-46 296 -95 338 -130 16 -14 35 -25 43 -25 33 0 133 87 247 215 69 77 132 146
141 154 24 19 21 29 -14 50 -18 11 -26 21 -20 26 20 12 0 27 -26 20 -19 -4
-33 0 -52 18 -14 14 -48 37 -76 52 -27 15 -63 37 -80 49 -40 31 -216 90 -342
115 -119 24 -137 25 -151 9z m122 -39 c29 -8 36 -13 25 -19 -17 -10 -96 3
-112 19 -15 15 34 15 87 0z m-22 -59 c35 0 59 6 79 21 31 22 66 21 126 -2 24
-9 21 -12 -62 -62 -96 -56 -182 -129 -227 -191 l-28 -39 0 141 c0 169 2 179
37 152 18 -14 41 -20 75 -20z m308 -21 c12 -9 12 -12 2 -16 -8 -3 -36 -25 -63
-49 -27 -24 -67 -53 -88 -64 -66 -33 -172 -130 -212 -193 l-37 -60 -7 35 c-14
73 93 193 267 300 97 59 113 65 138 47z m129 -68 c37 -22 73 -47 81 -55 11
-14 9 -16 -14 -16 -44 0 -94 -26 -110 -59 -21 -40 -20 -84 2 -103 20 -19 81
-37 101 -30 22 7 -72 -110 -130 -162 -66 -59 -87 -64 -135 -33 -38 24 -156 72
-242 98 -24 7 -45 15 -47 19 -2 4 14 34 35 67 44 66 115 131 200 182 30 18 66
43 80 56 25 23 99 75 107 75 3 0 35 -18 72 -39z m172 -117 l30 -15 -45 -47
-45 -47 -61 3 c-70 4 -89 22 -68 68 23 50 126 71 189 38z"/>
<path d="M3942 5794 c-23 -20 -54 -57 -69 -82 -15 -26 -46 -74 -68 -107 -22
-33 -49 -87 -59 -120 -10 -33 -32 -103 -48 -155 -32 -101 -45 -196 -34 -253
10 -53 41 -62 184 -53 64 4 177 9 251 10 l134 2 29 108 c19 74 45 140 79 203
l50 94 -95 97 c-52 53 -104 109 -116 124 -11 14 -42 42 -69 62 -26 20 -59 51
-72 71 -13 19 -31 35 -40 35 -8 0 -34 -16 -57 -36z m70 -23 c8 -11 38 -40 68
-64 30 -25 77 -71 103 -102 39 -45 48 -61 43 -80 -9 -34 -49 -33 -139 1 l-69
26 -36 -33 c-63 -60 -71 -72 -72 -114 0 -48 19 -87 60 -121 32 -27 40 -67 20
-105 -13 -23 -35 -19 -121 22 -73 36 -99 36 -137 4 -17 -14 -32 -25 -35 -25
-7 0 10 69 44 178 16 53 35 115 42 137 6 22 26 60 44 85 18 25 49 73 68 107
32 55 76 102 97 103 4 0 13 -9 20 -19z m303 -292 c4 -5 0 -18 -9 -28 -9 -10
-16 -24 -16 -31 0 -8 8 -4 19 9 11 13 25 20 30 17 6 -4 -7 -41 -34 -92 -25
-47 -52 -111 -60 -142 -38 -141 -39 -142 -106 -142 -25 0 -27 3 -31 62 -3 35
-10 64 -17 66 -6 2 -30 31 -52 63 l-40 60 26 45 c36 62 64 78 111 65 39 -11
64 -2 64 24 0 22 103 44 115 24z"/>
<path d="M6042 5810 c-22 -9 -382 -367 -382 -380 0 -3 18 -30 40 -60 38 -51
100 -191 100 -225 0 -9 10 -39 22 -66 l21 -50 264 2 c312 3 289 -8 280 134 -8
112 -51 244 -138 418 -63 125 -143 237 -169 236 -8 0 -25 -4 -38 -9z m52 -49
c9 -10 34 -54 55 -97 21 -43 55 -104 76 -134 20 -30 44 -68 52 -83 25 -48 70
-199 77 -256 l7 -54 -35 31 c-60 53 -111 51 -185 -7 -68 -53 -107 -45 -118 22
-5 36 -3 41 42 80 42 38 48 48 52 92 4 43 1 56 -25 94 -50 74 -93 86 -182 51
-67 -26 -88 -25 -102 5 -10 22 -7 28 39 70 28 24 68 68 89 96 38 49 107 108
130 109 6 0 18 -8 28 -19z m-240 -316 c24 2 59 12 79 20 59 24 82 20 116 -24
23 -29 31 -49 31 -78 0 -35 -6 -45 -50 -85 -52 -48 -56 -60 -40 -120 21 -76
96 -91 168 -34 55 44 92 53 127 30 14 -9 24 -23 21 -30 -3 -8 -2 -13 2 -11 13
4 56 -32 48 -40 -4 -5 -117 -9 -251 -11 l-243 -4 -14 44 c-8 24 -27 81 -43
128 -15 47 -42 105 -59 130 -18 25 -35 50 -39 57 -4 7 6 27 24 48 l32 36 25
-31 c22 -28 28 -30 66 -25z"/>
<path d="M5870 5423 c0 -6 8 -17 18 -24 16 -13 16 -13 2 6 -8 11 -16 22 -17
24 -2 2 -3 0 -3 -6z"/>
<path d="M5545 3750 c-3 -6 1 -7 9 -4 18 7 21 14 7 14 -6 0 -13 -4 -16 -10z"/>
<path d="M2498 3 c1376 -2 3628 -2 5005 0 1376 1 250 2 -2503 2 -2753 0 -3879
-1 -2502 -2z"/>
</g>
</svg>
